<svg xmlns="http://www.w3.org/2000/svg" xmlns:xlink="http://www.w3.org/1999/xlink" width="600" height="600" viewBox="0 0 600 600"><defs><style>.a{fill:none;}.b{isolation:isolate;}.c{clip-path:url(#a);}.d{fill:#3d454f;}.e{opacity:0.1;}.be,.bz,.e{mix-blend-mode:multiply;}.f{clip-path:url(#d);}.g{fill:#231f20;}.h{clip-path:url(#e);}.i{fill:url(#f);}.j{fill:#fff;}.k{fill:#d1d3d4;}.l{fill:#e28040;}.m{clip-path:url(#h);}.n{clip-path:url(#i);}.o{fill:url(#j);}.p{fill:#595b5e;}.q{fill:#8e8f94;}.r{fill:#5e6063;}.s{clip-path:url(#l);}.t{fill:url(#m);}.u{fill:#42464b;}.v{fill:#3b3b3c;}.bm,.w{fill:#bcbec0;}.x{fill:#35393c;}.y{clip-path:url(#o);}.z{fill:url(#p);}.aa{clip-path:url(#q);}.ab{fill:url(#r);}.ac{clip-path:url(#s);}.ad{fill:url(#t);}.ae{fill:#6eacdb;}.af{fill:#e8e6e7;}.ag{clip-path:url(#v);}.ah{fill:url(#w);}.ai{clip-path:url(#y);}.aj{fill:url(#z);}.ak{fill:#f1f2f2;}.al{clip-path:url(#ab);}.am{fill:url(#ac);}.an{fill:#808285;}.ao{clip-path:url(#ae);}.ap{fill:url(#af);}.aq{clip-path:url(#ah);}.ar{fill:url(#ai);}.as{clip-path:url(#ak);}.at{fill:url(#al);}.au{clip-path:url(#an);}.av{fill:url(#ao);}.aw{clip-path:url(#aq);}.ax{fill:url(#ar);}.ay{clip-path:url(#at);}.az{fill:url(#au);}.ba{clip-path:url(#aw);}.bb{fill:url(#ax);}.bc{clip-path:url(#ay);}.bd{fill:url(#az);}.be{opacity:0.05;}.bf{clip-path:url(#bb);}.bg{fill:#0a1621;}.bh{clip-path:url(#bc);}.bi{fill:url(#bd);}.bj{fill:#53b7e8;}.bk{fill:#f37053;}.bl{fill:#dcddde;}.bl,.bm{fill-rule:evenodd;}.bn{clip-path:url(#bf);}.bo{fill:url(#bg);}.bp{clip-path:url(#bi);}.bq{fill:url(#bj);}.br{fill:#2d3032;}.bs{fill:#29708f;}.bt{clip-path:url(#bl);}.bu{fill:url(#bm);}.bv{fill:#e6e7e8;}.bw{fill:#ba6432;}.bx{fill:#9f4e24;}.by{clip-path:url(#bo);}.bz{opacity:0.2;}.ca{clip-path:url(#bp);}.cb{clip-path:url(#bq);}.cc{clip-path:url(#br);}.cd{fill:url(#bs);}.ce{clip-path:url(#bt);}.cf{fill:url(#bu);}.cg{clip-path:url(#bv);}.ch{fill:url(#bw);}.ci{clip-path:url(#bx);}.cj{fill:url(#by);}.ck{fill:#25292c;}.cl{clip-path:url(#ca);}.cm{fill:url(#cb);}</style><clipPath id="a"><rect class="a" width="600" height="600"/></clipPath><clipPath id="d"><rect class="a" x="158.01" y="67.03" width="65.85" height="56.6"/></clipPath><clipPath id="e"><path class="a" d="M173.27,102.22l-10.84,4.67a5.7,5.7,0,1,0,4.5,10.47l10.85-4.67a5.7,5.7,0,1,0-4.51-10.47"/></clipPath><linearGradient id="f" x1="2.72" y1="33.92" x2="5.12" y2="33.92" gradientTransform="matrix(-9.67, 0, 0, 9.67, 208.2, -217.87)" gradientUnits="userSpaceOnUse"><stop offset="0" stop-color="#bcbec0"/><stop offset="0.11" stop-color="#c7c8ca"/><stop offset="0.47" stop-color="#e5e6e7"/><stop offset="0.78" stop-color="#f8f8f9"/><stop offset="1" stop-color="#fff"/></linearGradient><clipPath id="h"><rect class="a" x="167.9" y="104.12" width="3.47" height="7"/></clipPath><clipPath id="i"><path class="a" d="M143.81,445a6.24,6.24,0,0,0-6.22,6.23V600H462.42V451.23a6.25,6.25,0,0,0-6.23-6.23H143.81Z"/></clipPath><linearGradient id="j" x1="0.59" y1="-3.99" x2="2.99" y2="-3.99" gradientTransform="matrix(135.35, 0, 0, -135.35, 57.33, -17.48)" gradientUnits="userSpaceOnUse"><stop offset="0" stop-color="#ecebea"/><stop offset="1" stop-color="#d4d4d5"/></linearGradient><clipPath id="l"><path class="a" d="M112,380.16a6.34,6.34,0,0,0-6.32,6.31l29.18,47.07c0.71,1.3,3.9,6.31,6.31,6.31H458.87c2.41,0,5.6-5,6.31-6.31l29.17-47.07a6.33,6.33,0,0,0-6.32-6.31H112Z"/></clipPath><linearGradient id="m" x1="0.38" y1="-3.02" x2="2.78" y2="-3.02" gradientTransform="matrix(161.97, 0, 0, -161.97, 44.02, -79.17)" xlink:href="#j"/><clipPath id="o"><path class="a" d="M428.18,94.09a6.92,6.92,0,0,0,3.78,9l136.43,55.77a6.91,6.91,0,0,0,9-3.78l0.17-.4-149.2-61Z"/></clipPath><linearGradient id="p" x1="5.49" y1="-2.53" x2="7.89" y2="-2.53" gradientTransform="matrix(0, 65.12, 65.12, 0, 666.98, -311.18)" gradientUnits="userSpaceOnUse"><stop offset="0" stop-color="#484c50"/><stop offset="1" stop-color="#3e4246"/></linearGradient><clipPath id="q"><polygon class="a" points="428.34 93.69 577.55 154.69 600 99.77 600 67.94 461.94 11.5 428.34 93.69"/></clipPath><linearGradient id="r" x1="4.85" y1="0.67" x2="7.25" y2="0.67" gradientTransform="matrix(0, 76.14, 76.14, 0, 463.12, -373.06)" xlink:href="#j"/><clipPath id="s"><polygon class="a" points="466.64 0 461.94 11.5 600 67.94 600 40.17 501.74 0 466.64 0"/></clipPath><linearGradient id="t" x1="5.6" y1="-1.1" x2="8" y2="-1.1" gradientTransform="matrix(0, 65.16, 65.16, 0, 602.83, -399.88)" xlink:href="#p"/><clipPath id="v"><polygon class="a" points="535.57 0 531.6 9.72 562.69 22.43 566.77 12.45 536.32 0 535.57 0"/></clipPath><linearGradient id="w" x1="26.39" y1="1.08" x2="28.79" y2="1.08" gradientTransform="matrix(0, 15.12, 15.12, 0, 532.84, -406.88)" gradientUnits="userSpaceOnUse"><stop offset="0" stop-color="#2f84c4"/><stop offset="1" stop-color="#2a77b0"/></linearGradient><clipPath id="y"><path class="a" d="M0,521l47.83,8.87a3.38,3.38,0,0,0,3.94-2.7L75.39,399.89a3.38,3.38,0,0,0-2.7-3.93L0,382.46V521Z"/></clipPath><linearGradient id="z" x1="-3.12" y1="-11.93" x2="-0.72" y2="-11.93" gradientTransform="translate(540.39 351.55) rotate(-90) scale(42.13)" xlink:href="#p"/><clipPath id="ab"><path class="a" d="M0,383.23l0.47-2.53A1.25,1.25,0,0,0,0,379.48v3.75Z"/></clipPath><linearGradient id="ac" x1="102.4" y1="19.19" x2="104.8" y2="19.19" gradientTransform="matrix(-4.53, 0, 0, 4.53, 465.59, 294.52)" gradientUnits="userSpaceOnUse"><stop offset="0" stop-color="#dcddde"/><stop offset="1" stop-color="#a7a9ac"/></linearGradient><clipPath id="ae"><path class="a" d="M7.14,381.94l-1.63,8.79a1.25,1.25,0,0,0,2.46.46L9.6,382.4a1.24,1.24,0,0,0-1-1.45l-0.23,0a1.24,1.24,0,0,0-1.22,1"/></clipPath><linearGradient id="af" x1="102.44" y1="20.14" x2="104.84" y2="20.14" gradientTransform="matrix(-4.52, 0, 0, 4.52, 476.71, 295.54)" xlink:href="#ac"/><clipPath id="ah"><path class="a" d="M16.27,383.64l-1.63,8.79a1.25,1.25,0,0,0,2.46.45l1.63-8.79a1.25,1.25,0,0,0-1-1.46l-0.23,0a1.25,1.25,0,0,0-1.23,1"/></clipPath><linearGradient id="ai" x1="102.43" y1="21.33" x2="104.83" y2="21.33" gradientTransform="matrix(-4.52, 0, 0, 4.52, 485.84, 291.82)" xlink:href="#ac"/><clipPath id="ak"><path class="a" d="M25.4,385.33l-1.63,8.79a1.25,1.25,0,0,0,2.46.46l1.63-8.79a1.24,1.24,0,0,0-1-1.45l-0.24,0a1.25,1.25,0,0,0-1.22,1"/></clipPath><linearGradient id="al" x1="102.44" y1="22.53" x2="104.84" y2="22.53" gradientTransform="matrix(-4.52, 0, 0, 4.52, 494.97, 288.1)" xlink:href="#ac"/><clipPath id="an"><path class="a" d="M34.53,387l-1.63,8.79a1.25,1.25,0,1,0,2.46.46L37,387.48A1.25,1.25,0,0,0,36,386l-0.23,0a1.25,1.25,0,0,0-1.23,1"/></clipPath><linearGradient id="ao" x1="102.42" y1="23.72" x2="104.82" y2="23.72" gradientTransform="matrix(-4.52, 0, 0, 4.52, 504.1, 284.38)" xlink:href="#ac"/><clipPath id="aq"><path class="a" d="M43.66,388.72L42,397.51a1.25,1.25,0,0,0,2.46.46l1.63-8.79a1.26,1.26,0,0,0-1-1.46l-0.23,0a1.25,1.25,0,0,0-1.22,1"/></clipPath><linearGradient id="ar" x1="102.42" y1="24.92" x2="104.82" y2="24.92" gradientTransform="matrix(-4.52, 0, 0, 4.52, 513.23, 280.65)" xlink:href="#ac"/><clipPath id="at"><path class="a" d="M52.79,390.41l-1.63,8.79a1.25,1.25,0,0,0,2.46.46l1.63-8.79a1.25,1.25,0,0,0-1-1.45l-0.23,0a1.25,1.25,0,0,0-1.22,1"/></clipPath><linearGradient id="au" x1="102.44" y1="26.12" x2="104.84" y2="26.12" gradientTransform="matrix(-4.52, 0, 0, 4.52, 522.36, 276.93)" xlink:href="#ac"/><clipPath id="aw"><path class="a" d="M61.91,392.1l-1.63,8.79a1.26,1.26,0,0,0,2.47.46l1.63-8.79a1.25,1.25,0,0,0-1-1.46l-0.23,0a1.25,1.25,0,0,0-1.23,1"/></clipPath><linearGradient id="ax" x1="102.42" y1="27.31" x2="104.82" y2="27.31" gradientTransform="matrix(-4.52, 0, 0, 4.52, 531.49, 273.21)" xlink:href="#ac"/><clipPath id="ay"><path class="a" d="M0,217.59l55.37,22.29a1,1,0,0,0,1.32-.56L85.9,166.77a1,1,0,0,0-.56-1.32L0,131.1v86.49Z"/></clipPath><linearGradient id="az" x1="-11.07" y1="-5.41" x2="-8.67" y2="-5.41" gradientTransform="matrix(31.6, 0, 0, -31.6, 346.88, 14.77)" gradientUnits="userSpaceOnUse"><stop offset="0" stop-color="#f1f2f2"/><stop offset="1" stop-color="#d3dade"/></linearGradient><clipPath id="bb"><rect class="a" x="14.81" y="166.66" width="41.97" height="72.95"/></clipPath><clipPath id="bc"><path class="a" d="M0,165.4l7,9.26a9.18,9.18,0,0,0,9.28,3.62L85.8,167l0.1-.25a1,1,0,0,0-.56-1.32L0,131.1v34.3Z"/></clipPath><linearGradient id="bd" x1="-20.04" y1="-9.82" x2="-17.64" y2="-9.82" gradientTransform="matrix(16.25, 0, 0, -16.25, 335.98, -4.22)" xlink:href="#az"/><clipPath id="bf"><path class="a" d="M395.29,0L378.76,44.07a2.46,2.46,0,0,0,1.44,3.17l36,13.49a2.46,2.46,0,0,0,3.16-1.44L441.55,0H395.29Z"/></clipPath><linearGradient id="bg" x1="16.83" y1="-9.59" x2="19.23" y2="-9.59" gradientTransform="matrix(0, 18.05, 18.05, 0, 582.95, -297.54)" xlink:href="#j"/><clipPath id="bi"><path class="a" d="M528.74,286.51a6.15,6.15,0,0,0-4.65,7.32l7.17,32.1,15.9,71.16a6.15,6.15,0,0,0,7.32,4.65L600,391.57v-121Z"/></clipPath><linearGradient id="bj" x1="-4.56" y1="-7.74" x2="-2.16" y2="-7.74" gradientTransform="matrix(62.93, 0, 0, -62.93, 783.48, -150.26)" gradientUnits="userSpaceOnUse"><stop offset="0" stop-color="#ecebea"/><stop offset="0.92" stop-color="#cccdce"/><stop offset="1" stop-color="#c9cacb"/></linearGradient><clipPath id="bl"><path class="a" d="M535.92,301.36a2.46,2.46,0,0,0-1.86,2.93l2.68,12a2.46,2.46,0,0,0,2.93,1.86L600,304.68V287Z"/></clipPath><linearGradient id="bm" x1="6.08" y1="-14.08" x2="8.48" y2="-14.08" gradientTransform="matrix(34.68, 0, 0, -34.68, 323.72, -185.5)" xlink:href="#j"/><clipPath id="bo"><rect class="a" x="-3.09" y="3.75" width="106.63" height="87.66"/></clipPath><clipPath id="bp"><rect class="a" x="6.55" y="61.84" width="24.76" height="6.88"/></clipPath><clipPath id="bq"><rect class="a" x="22.71" y="25.89" width="22.96" height="25.69"/></clipPath><clipPath id="br"><path class="a" d="M511.31,29.23c-2.57,1.13-.75,5-0.75,5l4.8-2.11c-1.13-2.59-2.49-3-3.31-3a1.84,1.84,0,0,0-.74.14"/></clipPath><linearGradient id="bs" x1="75.04" y1="-167.43" x2="77.44" y2="-167.43" gradientTransform="matrix(2.19, 0, 0, -2.19, 345.56, -334.43)" gradientUnits="userSpaceOnUse"><stop offset="0" stop-color="#3e4246"/><stop offset="0.11" stop-color="#44484c"/><stop offset="0.26" stop-color="#53585c"/><stop offset="0.3" stop-color="#5a5f63"/><stop offset="0.42" stop-color="#4f5457"/><stop offset="1" stop-color="#181c1f"/></linearGradient><clipPath id="bt"><path class="a" d="M525.55,72.24s11.92,25.6,16.61,36.29c0,0,3.58,8.8,4.31,11.36,0,0,3.91,5.93,7.05,7.27l1.67-.73c1.14-3.22-.58-10.11-0.58-10.11-1.39-2.28-5.45-10.86-5.45-10.86-4.69-10.68-16.08-36.52-16.08-36.52Z"/></clipPath><linearGradient id="bu" x1="44.08" y1="-110.15" x2="46.48" y2="-110.15" gradientTransform="matrix(3.7, 0, 0, -3.7, 374.04, -309.72)" xlink:href="#bs"/><clipPath id="bv"><path class="a" d="M546.47,119.89s3.91,5.93,7.05,7.27l1.67-.73c1.14-3.22-.58-10.11-0.58-10.11-4.27,3.66-8.14,3.57-8.14,3.57"/></clipPath><linearGradient id="bw" x1="26.31" y1="-118.47" x2="28.71" y2="-118.47" gradientTransform="matrix(3.74, 0, 0, -3.74, 449.9, -321.14)" xlink:href="#bs"/><clipPath id="bx"><path class="a" d="M512.91,32.54l-0.25.11a5.79,5.79,0,0,0-2.76,2.14s6.8,16.36,15.65,37.45l7.53-3.31c-9.55-20.79-17-36.87-17-36.87a2.26,2.26,0,0,0-.78-0.11,6,6,0,0,0-2.4.58"/></clipPath><linearGradient id="by" x1="47.6" y1="-110.65" x2="50" y2="-110.65" gradientTransform="matrix(3.43, 0, 0, -3.43, 353.92, -327.23)" gradientUnits="userSpaceOnUse"><stop offset="0" stop-color="#e6e7e8"/><stop offset="0.12" stop-color="#eceded"/><stop offset="0.28" stop-color="#fcfcfc"/><stop offset="0.3" stop-color="#fff"/><stop offset="0.41" stop-color="#f4f5f5"/><stop offset="1" stop-color="#bcbec0"/></linearGradient><clipPath id="ca"><path class="a" d="M512.27,40.5l0.8,1.92a13.76,13.76,0,0,1,6.49-2.85l-0.87-1.89a13.38,13.38,0,0,0-6.42,2.82"/></clipPath><linearGradient id="cb" x1="55.38" y1="-125.8" x2="57.78" y2="-125.8" gradientTransform="matrix(2.95, 0, 0, -2.95, 348.84, -331.37)" xlink:href="#w"/></defs><title>project</title><g class="b"><g class="c"><g class="c"><rect class="d" width="600" height="600"/><g class="c"><g class="e"><g class="f"><path class="g" d="M195.56,67a28.29,28.29,0,0,0-27.66,34.24L161.46,104A5.7,5.7,0,1,0,166,114.51l6.53-2.81A28.29,28.29,0,1,0,195.56,67"/></g></g></g><g class="h"><rect class="i" x="155.84" y="97.73" width="28.52" height="24.89" transform="translate(-29.71 76.28) rotate(-23.3)"/></g><g class="c"><path class="j" d="M224.83,98.17a28.3,28.3,0,1,1-28.3-28.3,28.3,28.3,0,0,1,28.3,28.3"/><path class="k" d="M219.06,98.17a22.54,22.54,0,1,1-22.54-22.54,22.54,22.54,0,0,1,22.54,22.54"/><path class="l" d="M217.67,98.17A21.14,21.14,0,1,1,196.53,77a21.14,21.14,0,0,1,21.14,21.15"/><g class="e"><g class="m"><path class="g" d="M171.37,111.12a27.75,27.75,0,0,1-3.47-6.58l1-.42a27.62,27.62,0,0,0,2.51,7"/></g></g></g><g class="n"><rect class="o" x="137.58" y="445" width="324.84" height="155"/></g><g class="c"><path class="p" d="M212.34,517.93a2.09,2.09,0,0,1-2.11,2.08l-11,.11a2.1,2.1,0,0,1-2.16-2L197,507.4a2.08,2.08,0,0,1,2.11-2.08l11-.11a2.1,2.1,0,0,1,2.15,2Z"/><path class="p" d="M230.41,517.75a2.11,2.11,0,0,1-2.11,2.09l-11,.1a2.1,2.1,0,0,1-2.16-2L215,507.23a2.1,2.1,0,0,1,2.11-2.09l11-.1a2.1,2.1,0,0,1,2.16,2Z"/><path class="p" d="M194.27,518.1a2.09,2.09,0,0,1-2.11,2.08l-20.17.2a2.1,2.1,0,0,1-2.15-2l-0.11-10.68a2.1,2.1,0,0,1,2.12-2.08l20.18-.19a2.11,2.11,0,0,1,2.16,2.05Z"/><path class="p" d="M248.49,517.58a2.11,2.11,0,0,1-2.11,2.09l-11,.12a2.11,2.11,0,0,1-2.16-2.05l-0.1-10.67A2.1,2.1,0,0,1,235.2,505l11-.1a2.09,2.09,0,0,1,2.15,2Z"/><path class="p" d="M266.56,517.41a2.11,2.11,0,0,1-2.12,2.09l-11,.1a2.09,2.09,0,0,1-2.15-2l-0.11-10.67a2.1,2.1,0,0,1,2.12-2.08l11-.11a2.11,2.11,0,0,1,2.15,2Z"/><path class="p" d="M284.62,517.23a2.09,2.09,0,0,1-2.12,2.09l-11,.11a2.1,2.1,0,0,1-2.15-2l-0.11-10.67a2.1,2.1,0,0,1,2.13-2.08l11-.11a2.09,2.09,0,0,1,2.16,2Z"/><path class="p" d="M302.69,517.07a2.1,2.1,0,0,1-2.11,2.08l-11,.11a2.11,2.11,0,0,1-2.16-2l-0.1-10.67a2.1,2.1,0,0,1,2.11-2.08l11-.11a2.11,2.11,0,0,1,2.16,2Z"/><path class="p" d="M320.76,516.89a2.1,2.1,0,0,1-2.12,2.09l-11,.1a2.09,2.09,0,0,1-2.15-2l-0.11-10.67a2.1,2.1,0,0,1,2.12-2.08l11-.11a2.1,2.1,0,0,1,2.16,2Z"/><path class="p" d="M338.84,516.72a2.12,2.12,0,0,1-2.12,2.09l-11,.11a2.11,2.11,0,0,1-2.16-2l-0.1-10.67a2.12,2.12,0,0,1,2.11-2.09l11-.09a2.09,2.09,0,0,1,2.15,2Z"/><path class="p" d="M356.9,516.55a2.1,2.1,0,0,1-2.11,2.09l-11,.1a2.08,2.08,0,0,1-2.15-2L341.5,506a2.1,2.1,0,0,1,2.11-2.08l11-.11a2.1,2.1,0,0,1,2.16,2Z"/><path class="p" d="M375,516.37a2.12,2.12,0,0,1-2.12,2.09l-11,.1a2.11,2.11,0,0,1-2.16-2l-0.09-10.67a2.09,2.09,0,0,1,2.11-2.08l11-.11a2.1,2.1,0,0,1,2.15,2Z"/><path class="p" d="M185.07,500.86a2.1,2.1,0,0,1-2.11,2.09l-11,.11a2.09,2.09,0,0,1-2.14-2l-0.1-10.67a2.09,2.09,0,0,1,2.11-2.09l11-.11a2.1,2.1,0,0,1,2.16,2.05Z"/><path class="p" d="M187.13,483.59a2.22,2.22,0,0,1-2.33,2.1L172,485.8a2.2,2.2,0,0,1-2.36-2l0-3.69a2.21,2.21,0,0,1,2.32-2.09l12.83-.12a2.21,2.21,0,0,1,2.36,2Z"/><path class="p" d="M207.31,483.41a2.2,2.2,0,0,1-2.33,2.08l-12.82.13a2.22,2.22,0,0,1-2.36-2l0-3.69a2.22,2.22,0,0,1,2.33-2.09l12.82-.13a2.22,2.22,0,0,1,2.36,2.05Z"/><path class="p" d="M227.48,483.21a2.22,2.22,0,0,1-2.33,2.09l-12.81.12a2.23,2.23,0,0,1-2.38-2l0-3.68a2.22,2.22,0,0,1,2.33-2.1l12.81-.12a2.22,2.22,0,0,1,2.37,2Z"/><path class="p" d="M247.65,483a2.23,2.23,0,0,1-2.33,2.09l-12.82.13a2.22,2.22,0,0,1-2.37-2l0-3.69a2.23,2.23,0,0,1,2.33-2.09l12.82-.11a2.22,2.22,0,0,1,2.37,2Z"/><path class="p" d="M267.82,482.82a2.2,2.2,0,0,1-2.32,2.08l-12.81.13a2.21,2.21,0,0,1-2.37-2l0-3.68a2.21,2.21,0,0,1,2.32-2.1l12.82-.12a2.22,2.22,0,0,1,2.36,2Z"/><path class="p" d="M288,482.63a2.22,2.22,0,0,1-2.33,2.09l-12.83.12a2.2,2.2,0,0,1-2.36-2l0-3.69a2.22,2.22,0,0,1,2.33-2.09l12.83-.12a2.19,2.19,0,0,1,2.36,2Z"/><path class="p" d="M308.18,482.44a2.22,2.22,0,0,1-2.33,2.08l-12.83.13a2.22,2.22,0,0,1-2.37-2l0-3.69a2.22,2.22,0,0,1,2.32-2.09l12.82-.12a2.2,2.2,0,0,1,2.36,2Z"/><path class="p" d="M328.35,482.25a2.21,2.21,0,0,1-2.33,2.08l-12.81.13a2.22,2.22,0,0,1-2.37-2l0-3.68a2.22,2.22,0,0,1,2.33-2.1l12.82-.13a2.23,2.23,0,0,1,2.37,2.06Z"/><path class="p" d="M348.52,482.06a2.21,2.21,0,0,1-2.32,2.08l-12.82.13a2.22,2.22,0,0,1-2.36-2l0-3.69a2.22,2.22,0,0,1,2.33-2.1l12.82-.12a2.22,2.22,0,0,1,2.37,2Z"/><path class="p" d="M368.71,481.86a2.22,2.22,0,0,1-2.33,2.09l-12.82.12a2.22,2.22,0,0,1-2.37-2l0-3.7a2.22,2.22,0,0,1,2.33-2.08l12.82-.13a2.22,2.22,0,0,1,2.36,2.06Z"/><path class="p" d="M388.87,481.67a2.23,2.23,0,0,1-2.33,2.1l-12.81.11a2.22,2.22,0,0,1-2.38-2l0-3.69a2.21,2.21,0,0,1,2.33-2.09l12.81-.12a2.22,2.22,0,0,1,2.37,2Z"/><path class="p" d="M409.05,481.48a2.22,2.22,0,0,1-2.33,2.08l-12.82.12a2.23,2.23,0,0,1-2.37-2l0-3.7a2.22,2.22,0,0,1,2.33-2.09l12.82-.13a2.22,2.22,0,0,1,2.37,2.05Z"/><path class="p" d="M393.39,568.52a2.22,2.22,0,0,1-2.33,2.08l-11,.1a2.21,2.21,0,0,1-2.36-2l0-3.7a2.21,2.21,0,0,1,2.33-2.08l11-.1a2.22,2.22,0,0,1,2.36,2Z"/><path class="p" d="M411.9,568.34a2.23,2.23,0,0,1-2.33,2.09l-11,.1a2.23,2.23,0,0,1-2.37-2l0-3.7a2.23,2.23,0,0,1,2.33-2.08l11-.11a2.23,2.23,0,0,1,2.37,2Z"/><path class="p" d="M411.82,559.83a2.23,2.23,0,0,1-2.33,2.09l-11,.1a2.22,2.22,0,0,1-2.38-2l0-3.69a2.23,2.23,0,0,1,2.33-2.09l11-.1a2.22,2.22,0,0,1,2.37,2Z"/><path class="p" d="M430.41,568.16a2.21,2.21,0,0,1-2.32,2.09l-11,.11a2.21,2.21,0,0,1-2.36-2l0-3.7a2.21,2.21,0,0,1,2.33-2.08l11-.1a2.21,2.21,0,0,1,2.36,2Z"/><path class="p" d="M429.22,481.28a2.21,2.21,0,0,1-2.32,2.08l-12.82.13a2.22,2.22,0,0,1-2.36-2l0-3.69a2.21,2.21,0,0,1,2.32-2.09l12.82-.13a2.22,2.22,0,0,1,2.36,2.05Z"/><path class="p" d="M203.15,500.68a2.11,2.11,0,0,1-2.11,2.1l-11,.11a2.11,2.11,0,0,1-2.16-2.05l-0.1-10.67a2.11,2.11,0,0,1,2.12-2.09l11-.11A2.1,2.1,0,0,1,203,490Z"/><path class="p" d="M221.22,500.51a2.1,2.1,0,0,1-2.11,2.09l-11,.1a2.11,2.11,0,0,1-2.16-2L205.82,490a2.11,2.11,0,0,1,2.12-2.09l11-.1a2.1,2.1,0,0,1,2.15,2Z"/><path class="p" d="M239.29,500.34a2.1,2.1,0,0,1-2.11,2.09l-11,.11a2.1,2.1,0,0,1-2.16-2l-0.1-10.67a2.11,2.11,0,0,1,2.12-2.09l11-.1a2.1,2.1,0,0,1,2.16,2Z"/><path class="p" d="M257.36,500.16a2.1,2.1,0,0,1-2.11,2.09l-11,.1a2.1,2.1,0,0,1-2.16-2L242,489.64a2.11,2.11,0,0,1,2.12-2.09l11-.11a2.13,2.13,0,0,1,2.16,2.05Z"/><path class="p" d="M275.42,500a2.08,2.08,0,0,1-2.12,2.09l-11,.11a2.11,2.11,0,0,1-2.16-2L260,489.47a2.1,2.1,0,0,1,2.11-2.09l11-.11a2.1,2.1,0,0,1,2.15,2.05Z"/><path class="p" d="M293.49,499.82a2.1,2.1,0,0,1-2.12,2.09l-11,.11A2.11,2.11,0,0,1,278.2,500l-0.1-10.67a2.1,2.1,0,0,1,2.12-2.08l11-.11a2.1,2.1,0,0,1,2.15,2Z"/><path class="p" d="M311.56,499.65a2.1,2.1,0,0,1-2.11,2.09l-11,.1a2.1,2.1,0,0,1-2.15-2l-0.11-10.67a2.1,2.1,0,0,1,2.12-2.09l11-.11a2.1,2.1,0,0,1,2.16,2Z"/><path class="p" d="M329.63,499.48a2.1,2.1,0,0,1-2.11,2.09l-11,.1a2.1,2.1,0,0,1-2.15-2L314.24,489a2.11,2.11,0,0,1,2.12-2.1l11-.1a2.09,2.09,0,0,1,2.15,2Z"/><path class="p" d="M347.7,499.31a2.1,2.1,0,0,1-2.11,2.09l-11,.1a2.09,2.09,0,0,1-2.16-2l-0.1-10.68a2.11,2.11,0,0,1,2.12-2.08l11-.11a2.12,2.12,0,0,1,2.16,2Z"/><path class="p" d="M366,499.13a2.11,2.11,0,0,1-2.12,2.09l-11,.1a2.1,2.1,0,0,1-2.16-2l-0.11-10.67a2.11,2.11,0,0,1,2.12-2.09l11-.1a2.09,2.09,0,0,1,2.15,2Z"/><path class="p" d="M384.06,499A2.09,2.09,0,0,1,382,501l-11,.12a2.1,2.1,0,0,1-2.15-2l-0.1-10.68a2.1,2.1,0,0,1,2.11-2.08l11-.11a2.11,2.11,0,0,1,2.16,2Z"/><path class="p" d="M402.14,498.78a2.1,2.1,0,0,1-2.11,2.09L389,501a2.1,2.1,0,0,1-2.16-2l-0.09-10.67a2.09,2.09,0,0,1,2.11-2.08l11-.11a2.09,2.09,0,0,1,2.15,2Z"/><path class="p" d="M429,498.53a2.11,2.11,0,0,1-2.11,2.09l-19.92.19a2.11,2.11,0,0,1-2.16-2l-0.1-10.67a2.1,2.1,0,0,1,2.11-2.09l19.92-.19a2.09,2.09,0,0,1,2.15,2Z"/><path class="p" d="M393,516.2a2.09,2.09,0,0,1-2.11,2.08l-11,.11a2.09,2.09,0,0,1-2.15-2l-0.1-10.67a2.09,2.09,0,0,1,2.11-2.09l11-.1a2.1,2.1,0,0,1,2.15,2Z"/><path class="p" d="M411.12,516a2.11,2.11,0,0,1-2.13,2.08l-11,.11a2.09,2.09,0,0,1-2.16-2l-0.11-10.68a2.09,2.09,0,0,1,2.12-2.08l11-.1a2.08,2.08,0,0,1,2.15,2Z"/><path class="p" d="M217,534.78a2.1,2.1,0,0,1-2.12,2.09l-11,.11a2.1,2.1,0,0,1-2.15-2.05l-0.11-10.67a2.09,2.09,0,0,1,2.12-2.08l11-.11a2.09,2.09,0,0,1,2.15,2Z"/><path class="p" d="M235.12,534.61A2.11,2.11,0,0,1,233,536.7l-11,.11a2.11,2.11,0,0,1-2.16-2.05l-0.1-10.67a2.11,2.11,0,0,1,2.12-2.08l11-.11a2.09,2.09,0,0,1,2.15,2Z"/><path class="p" d="M253.19,534.45a2.11,2.11,0,0,1-2.12,2.08l-11,.11a2.11,2.11,0,0,1-2.16-2l-0.1-10.68a2.09,2.09,0,0,1,2.11-2.08l11-.11a2.1,2.1,0,0,1,2.16,2Z"/><path class="p" d="M271.25,534.27a2.1,2.1,0,0,1-2.11,2.09l-11,.1a2.1,2.1,0,0,1-2.16-2l-0.09-10.67a2.08,2.08,0,0,1,2.1-2.08l11-.11a2.1,2.1,0,0,1,2.15,2Z"/><path class="p" d="M289.33,534.09a2.11,2.11,0,0,1-2.11,2.09l-11,.11a2.12,2.12,0,0,1-2.16-2.05l-0.1-10.67a2.1,2.1,0,0,1,2.12-2.08l11-.1a2.09,2.09,0,0,1,2.15,2Z"/><path class="p" d="M307.4,533.93a2.11,2.11,0,0,1-2.12,2.08l-11,.11a2.1,2.1,0,0,1-2.15-2L292,523.4a2.09,2.09,0,0,1,2.11-2.08l11-.1a2.09,2.09,0,0,1,2.16,2Z"/><path class="p" d="M325.47,533.75a2.1,2.1,0,0,1-2.11,2.09l-11,.1a2.11,2.11,0,0,1-2.16-2l-0.1-10.67a2.11,2.11,0,0,1,2.12-2.08l11-.1a2.1,2.1,0,0,1,2.15,2Z"/><path class="p" d="M343.54,533.59a2.11,2.11,0,0,1-2.12,2.08l-11,.1a2.1,2.1,0,0,1-2.15-2l-0.11-10.67a2.1,2.1,0,0,1,2.12-2.09l11-.1a2.1,2.1,0,0,1,2.16,2Z"/><path class="p" d="M361.61,533.41a2.1,2.1,0,0,1-2.12,2.08l-11,.1a2.1,2.1,0,0,1-2.16-2l-0.09-10.68a2.09,2.09,0,0,1,2.12-2.08l11-.11a2.09,2.09,0,0,1,2.14,2Z"/><path class="p" d="M379.67,533.23a2.1,2.1,0,0,1-2.11,2.09l-11,.1a2.11,2.11,0,0,1-2.15-2.05l-0.11-10.67a2.11,2.11,0,0,1,2.11-2.09l11-.1a2.08,2.08,0,0,1,2.15,2Z"/><path class="p" d="M397.74,533.06a2.1,2.1,0,0,1-2.11,2.08l-11,.11a2.09,2.09,0,0,1-2.15-2l-0.1-10.67a2.08,2.08,0,0,1,2.1-2.09l11-.1a2.09,2.09,0,0,1,2.15,2Z"/><path class="p" d="M429.34,532.77a2.1,2.1,0,0,1-2.12,2.08l-24.54.24a2.11,2.11,0,0,1-2.16-2.06l-0.1-10.67a2.09,2.09,0,0,1,2.11-2.08l24.55-.24a2.1,2.1,0,0,1,2.15,2Z"/><path class="p" d="M198.81,535a2.1,2.1,0,0,1-2.12,2.08l-24.55.24a2.11,2.11,0,0,1-2.15-2.06l-0.1-10.66a2.1,2.1,0,0,1,2.12-2.09l24.55-.23a2.1,2.1,0,0,1,2.16,2Z"/><path class="p" d="M226.24,551.61a2.08,2.08,0,0,1-2.11,2.08l-11,.11a2.09,2.09,0,0,1-2.15-2l-0.1-10.68A2.1,2.1,0,0,1,213,539l11-.1a2.09,2.09,0,0,1,2.16,2Z"/><path class="p" d="M244.32,551.43a2.1,2.1,0,0,1-2.12,2.08l-11,.1a2.1,2.1,0,0,1-2.16-2l-0.09-10.67a2.07,2.07,0,0,1,2.11-2.08l11-.11a2.1,2.1,0,0,1,2.15,2Z"/><path class="p" d="M262.39,551.26a2.12,2.12,0,0,1-2.11,2.09l-11,.11a2.1,2.1,0,0,1-2.16-2L247,540.73a2.11,2.11,0,0,1,2.12-2.09l11-.1a2.09,2.09,0,0,1,2.15,2Z"/><path class="p" d="M280.45,551.09a2.1,2.1,0,0,1-2.11,2.09l-11,.1a2.09,2.09,0,0,1-2.15-2l-0.1-10.67a2.09,2.09,0,0,1,2.1-2.09l11-.1a2.09,2.09,0,0,1,2.15,2Z"/><path class="p" d="M298.53,550.91a2.1,2.1,0,0,1-2.11,2.09l-11,.11a2.11,2.11,0,0,1-2.16-2l-0.1-10.67a2.11,2.11,0,0,1,2.12-2.09l11-.1a2.11,2.11,0,0,1,2.15,2Z"/><path class="p" d="M316.6,550.75a2.1,2.1,0,0,1-2.13,2.08l-11,.11a2.09,2.09,0,0,1-2.15-2l-0.11-10.67a2.1,2.1,0,0,1,2.12-2.09l11-.1a2.09,2.09,0,0,1,2.15,2Z"/><path class="p" d="M334.66,550.58a2.09,2.09,0,0,1-2.11,2.08l-11,.11a2.1,2.1,0,0,1-2.15-2L319.26,540a2.11,2.11,0,0,1,2.12-2.08l11-.1a2.09,2.09,0,0,1,2.16,2Z"/><path class="p" d="M352.74,550.39a2.11,2.11,0,0,1-2.12,2.09l-11,.1a2.1,2.1,0,0,1-2.16-2l-0.1-10.67a2.09,2.09,0,0,1,2.11-2.08l11-.11a2.1,2.1,0,0,1,2.16,2Z"/><path class="p" d="M370.8,550.23a2.09,2.09,0,0,1-2.12,2.08l-11,.11a2.09,2.09,0,0,1-2.15-2l-0.1-10.67a2.1,2.1,0,0,1,2.11-2.09l11-.1a2.1,2.1,0,0,1,2.16,2Z"/><path class="p" d="M388.87,550.05a2.1,2.1,0,0,1-2.11,2.08l-11,.1a2.1,2.1,0,0,1-2.16-2l-0.1-10.68a2.1,2.1,0,0,1,2.12-2.08l11-.1a2.09,2.09,0,0,1,2.15,2Z"/><path class="p" d="M429.5,549.66a2.11,2.11,0,0,1-2.12,2.09l-33.58.32a2.1,2.1,0,0,1-2.15-2l-0.11-10.67a2.09,2.09,0,0,1,2.11-2.08l33.59-.32a2.12,2.12,0,0,1,2.16,2Z"/><path class="p" d="M208,551.78a2.1,2.1,0,0,1-2.11,2.09l-33.59.32a2.11,2.11,0,0,1-2.15-2.05L170,541.47a2.09,2.09,0,0,1,2.11-2.09l33.59-.32a2.11,2.11,0,0,1,2.16,2Z"/><path class="p" d="M196.87,570.25a2.12,2.12,0,0,1-2.12,2.09l-22.26.21a2.1,2.1,0,0,1-2.16-2l-0.11-12.3a2.1,2.1,0,0,1,2.11-2.08l22.27-.22a2.12,2.12,0,0,1,2.16,2Z"/><path class="p" d="M220.64,570a2.1,2.1,0,0,1-2.11,2.08l-16.78.17a2.09,2.09,0,0,1-2.15-2l-0.12-12.31a2.09,2.09,0,0,1,2.11-2.08l16.78-.16a2.1,2.1,0,0,1,2.16,2Z"/><path class="p" d="M244.35,569.79a2.1,2.1,0,0,1-2.11,2.09l-16.78.16a2.09,2.09,0,0,1-2.15-2l-0.12-12.3a2.11,2.11,0,0,1,2.11-2.09l16.79-.16a2.09,2.09,0,0,1,2.14,2Z"/><path class="p" d="M357.08,568.72A2.11,2.11,0,0,1,355,570.8l-14.74.14a2.1,2.1,0,0,1-2.16-2l-0.12-12.3a2.11,2.11,0,0,1,2.12-2.08l14.73-.13a2.1,2.1,0,0,1,2.16,2Z"/><path class="p" d="M374.9,568.55a2.1,2.1,0,0,1-2.13,2.08l-10.27.1a2.1,2.1,0,0,1-2.16-2l-0.11-12.31a2.07,2.07,0,0,1,2.11-2.08l10.27-.1a2.1,2.1,0,0,1,2.16,2Z"/><path class="p" d="M334.81,568.93a2.1,2.1,0,0,1-2.12,2.09l-83.25.8a2.12,2.12,0,0,1-2.17-2l-0.12-12.29a2.1,2.1,0,0,1,2.12-2.08l83.25-.8a2.1,2.1,0,0,1,2.16,2Z"/><path class="p" d="M429.18,515.85a2.11,2.11,0,0,1-2.12,2.09L416,518a2.08,2.08,0,0,1-2.14-2l-0.12-10.67a2.11,2.11,0,0,1,2.13-2.09l11-.1a2.1,2.1,0,0,1,2.15,2Z"/><path class="j" d="M350.35,659.53a3.12,3.12,0,0,1-3.11,3.11H252.76a3.12,3.12,0,0,1-3.12-3.11V588.47a3.12,3.12,0,0,1,3.12-3.11h94.48a3.12,3.12,0,0,1,3.11,3.11v71.07Z"/><rect class="q" x="165.33" y="439.29" width="267.8" height="14.66"/><rect class="r" x="165.33" y="439.29" width="267.8" height="9.37"/></g><g class="s"><rect class="t" x="105.64" y="380.16" width="388.72" height="59.69"/></g><g class="c"><path class="u" d="M141.12,436.73a19.64,19.64,0,0,1-3.58-4.69l-28.71-46.32a3.21,3.21,0,0,1,3.12-2.46H488a3.21,3.21,0,0,1,3.12,2.45L462.54,431.9c-1,1.88-3,4.35-3.89,4.84H141.12Z"/><path class="v" d="M146.64,430.51a16.89,16.89,0,0,1-.94-1.46l-24.5-39.56h363l-24.24,39.12a19.1,19.1,0,0,1-1.22,1.89H146.64Z"/><path class="w" d="M431.09,105.22a9.21,9.21,0,0,1-5-12l40.89-100a9.21,9.21,0,0,1,12-5L615.36,44a9.21,9.21,0,0,1,5,12L579.51,156a9.21,9.21,0,0,1-12,5Z"/><path class="x" d="M431.61,103.94a7.83,7.83,0,0,1-4.28-10.2l40.88-100a7.83,7.83,0,0,1,10.2-4.28L614.84,45.24a7.83,7.83,0,0,1,4.28,10.19l-40.88,100a7.83,7.83,0,0,1-10.2,4.28Z"/></g><g class="y"><rect class="z" x="439.44" y="44.61" width="125.4" height="164.78" transform="translate(170.02 524.45) rotate(-64.31)"/></g><g class="aa"><rect class="ab" x="402.46" y="-26.15" width="223.42" height="218.48" transform="translate(57.66 333.84) rotate(-37.96)"/></g><g class="ac"><rect class="ad" x="465.96" y="-42.64" width="130.02" height="153.22" transform="translate(224.8 469.1) rotate(-58.53)"/></g><g class="c"><path class="ae" d="M609.48,58.66a1,1,0,0,1-1.3.55L595.41,54a1,1,0,1,1,.75-1.85l12.78,5.22a1,1,0,0,1,.54,1.3"/><path class="af" d="M472.82,2.79a1,1,0,0,0,.54,1.3l12.78,5.22a1,1,0,1,0,.75-1.85L474.12,2.24a1,1,0,0,0-1.3.55"/><path class="x" d="M472.35,9.22a0.61,0.61,0,1,0,.8-0.34,0.61,0.61,0,0,0-.8.34"/><path class="x" d="M466.68-.09l-0.26.63,6.4,2.62a0.51,0.51,0,0,1,0-.37,0.52,0.52,0,0,1,.25-0.26Z"/></g><g class="ag"><rect class="ah" x="529.18" y="-9.42" width="40" height="41.27" transform="translate(180.59 418.48) rotate(-49.02)"/></g><g class="c"><path class="j" d="M544.07,7l-0.29.71L544.42,8l-0.14.34-0.65-.27-0.54,1.34c-0.13.3-.11,0.51,0.14,0.61a0.92,0.92,0,0,0,.28.08l-0.12.35a1.16,1.16,0,0,1-.42-0.1,0.67,0.67,0,0,1-.41-0.39,1,1,0,0,1,.09-0.72L543.2,7.9l-0.38-.16L543,7.4l0.39,0.16L543.58,7Z"/><path class="j" d="M545.44,11.31l0.09-.33h0a1,1,0,0,1-.91.06,0.76,0.76,0,0,1-.47-1c0.25-.6.91-0.71,1.86-0.31l0-.05a0.55,0.55,0,0,0-.33-0.8A1.38,1.38,0,0,0,545,8.77l0-.34a1.67,1.67,0,0,1,.9.12,1,1,0,0,1,.53,1.39l-0.38.93a3.68,3.68,0,0,0-.2.61ZM545.89,10c-0.49-.21-1.08-0.35-1.27.13a0.43,0.43,0,0,0,.24.6,0.67,0.67,0,0,0,.77-0.17,0.56,0.56,0,0,0,.08-0.13Z"/><path class="j" d="M546.66,11.81c0.08-.16.19-0.41,0.28-0.63l1.22-3,0.44,0.18L548,9.92h0a1,1,0,0,1,1-.11,1.2,1.2,0,0,1,.53,1.68,1.27,1.27,0,0,1-1.65.87,1,1,0,0,1-.64-0.8h0l-0.18.4Zm0.87-.8a1,1,0,0,0,0,.17,0.74,0.74,0,0,0,.46.8,0.87,0.87,0,0,0,1.14-.64,0.87,0.87,0,0,0-.36-1.22,0.78,0.78,0,0,0-.91.27,1,1,0,0,0-.1.17Z"/><polygon class="j" points="551.23 9.44 551.68 9.62 550.2 13.25 549.75 13.07 551.23 9.44"/><path class="j" d="M551.83,12.57a0.86,0.86,0,0,0,.49,1.21,1.81,1.81,0,0,0,.74.15l-0.06.35a2.11,2.11,0,0,1-.88-0.18,1.24,1.24,0,0,1-.71-1.74,1.29,1.29,0,0,1,1.7-.86,1.13,1.13,0,0,1,.54,1.58c0,0.09-.08.16-0.1,0.2Zm1.45,0.22a0.7,0.7,0,0,0-.32-1,0.81,0.81,0,0,0-1,.45Z"/><path class="j" d="M555.66,11.77l-0.29.71L556,12.74l-0.14.34-0.65-.26-0.54,1.33c-0.12.31-.11,0.52,0.14,0.62a1.05,1.05,0,0,0,.28.07l-0.12.34a1.11,1.11,0,0,1-.42-0.1,0.68,0.68,0,0,1-.41-0.39,1,1,0,0,1,.09-0.71l0.55-1.35-0.38-.15,0.14-.34,0.38,0.16,0.24-.59Z"/></g><g class="ai"><rect class="aj" x="-41.68" y="405.64" width="159.09" height="101.41" transform="translate(-417.73 410.33) rotate(-79.49)"/></g><g class="c"><path class="w" d="M43.28,525a5,5,0,0,0,5.84-4L70.59,405.34a5,5,0,0,0-4-5.85l-82.23-15.26a5,5,0,0,0-5.84,4L-43,503.93a5,5,0,0,0,4,5.85Z"/><path class="k" d="M43.45,524.1a5,5,0,0,0,5.84-4L70.76,404.42a5,5,0,0,0-4-5.85l-82.23-15.26a5,5,0,0,0-5.84,4L-42.79,503a5,5,0,0,0,4,5.85Z"/><path class="ak" d="M70.94,403.5l-0.38,2a5,5,0,0,0-4-5.84l-82.23-15.26a5,5,0,0,0-5.84,4l0.38-2a5,5,0,0,1,5.85-4l82.23,15.26a5,5,0,0,1,4,5.85"/><path class="j" d="M43.62,523.18a5,5,0,0,0,5.84-4L70.93,403.49a5,5,0,0,0-4-5.85l-82.23-15.26a5,5,0,0,0-5.84,4L-42.62,502.08a5,5,0,0,0,4,5.84Z"/></g><g class="al"><rect class="am" x="-1.62" y="380.74" width="3.79" height="1.23" transform="translate(-374.73 312.07) rotate(-79.49)"/></g><g class="c"><path class="an" d="M7,389.79a1.61,1.61,0,1,1-1.87,1.29A1.61,1.61,0,0,1,7,389.79"/></g><g class="ao"><rect class="ap" x="1.56" y="383.45" width="11.99" height="6.34" transform="translate(-373.95 323.53) rotate(-79.49)"/></g><g class="c"><path class="an" d="M16.09,391.48a1.61,1.61,0,1,1-1.87,1.29,1.61,1.61,0,0,1,1.87-1.29"/></g><g class="aq"><rect class="ar" x="10.69" y="385.14" width="12" height="6.35" transform="translate(-368.16 333.89) rotate(-79.49)"/></g><g class="c"><path class="an" d="M25.22,393.18a1.61,1.61,0,1,1-1.87,1.29,1.6,1.6,0,0,1,1.87-1.29"/></g><g class="as"><rect class="at" x="19.82" y="386.83" width="12" height="6.35" transform="translate(-362.36 344.25) rotate(-79.49)"/></g><g class="c"><path class="an" d="M34.34,394.87a1.61,1.61,0,1,1-1.87,1.29,1.61,1.61,0,0,1,1.87-1.29"/></g><g class="au"><rect class="av" x="28.95" y="388.53" width="12" height="6.35" transform="translate(-356.56 354.61) rotate(-79.49)"/></g><g class="c"><path class="an" d="M43.47,396.57a1.61,1.61,0,1,1-1.87,1.29,1.61,1.61,0,0,1,1.87-1.29"/></g><g class="aw"><rect class="ax" x="38.08" y="390.22" width="12" height="6.35" transform="translate(-350.76 364.97) rotate(-79.49)"/></g><g class="c"><path class="an" d="M52.6,398.26a1.61,1.61,0,1,1-1.87,1.29,1.61,1.61,0,0,1,1.87-1.29"/></g><g class="ay"><rect class="az" x="47.21" y="391.92" width="11.99" height="6.35" transform="matrix(0.18, -0.98, 0.98, 0.18, -344.96, 375.33)"/></g><g class="c"><path class="an" d="M61.73,400a1.61,1.61,0,1,1-1.87,1.29A1.6,1.6,0,0,1,61.73,400"/></g><g class="ba"><rect class="bb" x="56.33" y="393.61" width="12" height="6.35" transform="translate(-339.16 385.7) rotate(-79.49)"/></g><g class="bc"><rect class="bd" x="-23.58" y="125.31" width="133.26" height="120.57" transform="translate(-145.2 156.23) rotate(-68.08)"/></g><g class="c"><path class="ak" d="M15.1,167l-80.44,23.56a1,1,0,0,1,.07-0.36l0.09-.21L15,166.55Z"/><g class="be"><g class="bf"><path class="bg" d="M56.78,239.09l-0.1.24a1.08,1.08,0,0,1-.18.29l-41.69-72.7,0.43-.25Z"/></g></g></g><g class="bh"><rect class="bi" x="4.54" y="106.32" width="77.02" height="97.94" transform="translate(-117.08 137.24) rotate(-68.08)"/></g><g class="c"><path class="ak" d="M85.9,166.77l-0.1.25L16.28,178.28A9.2,9.2,0,0,1,7,174.66l-43-57a1,1,0,0,1,1.32-.56l0.57,0.23L7.74,172.82A9.2,9.2,0,0,0,17,176.43l68.17-11,0.14,0.06a1,1,0,0,1,.56,1.32"/><polygon class="bj" points="8.16 218.33 5.08 219.64 -2.69 216.51 0.39 215.2 8.16 218.33"/><polygon class="bk" points="22.07 223.93 18.98 225.24 11.22 222.11 14.3 220.8 22.07 223.93"/><polygon class="bj" points="35.98 229.53 32.9 230.84 25.14 227.71 28.22 226.4 35.98 229.53"/><polygon class="bk" points="49.89 235.13 46.81 236.44 39.05 233.31 42.13 232 49.89 235.13"/><polygon class="bj" points="84.5 170.25 81.37 178.01 78.29 179.32 81.42 171.56 84.5 170.25"/><polygon class="bk" points="78.9 184.16 75.77 191.92 72.69 193.23 75.81 185.47 78.9 184.16"/><polygon class="bj" points="73.3 198.07 70.17 205.83 67.09 207.14 70.22 199.38 73.3 198.07"/><polygon class="bk" points="67.69 211.98 64.57 219.74 61.49 221.05 64.62 213.29 67.69 211.98"/><polygon class="bj" points="62.1 225.89 58.97 233.65 55.89 234.96 59.02 227.2 62.1 225.89"/><polygon class="bj" points="9.41 134.89 6.33 136.2 -1.43 133.07 1.65 131.76 9.41 134.89"/><polygon class="bk" points="23.32 140.49 20.25 141.8 12.48 138.67 15.56 137.36 23.32 140.49"/><polygon class="bj" points="37.24 146.09 34.16 147.4 26.39 144.27 29.47 142.97 37.24 146.09"/><polygon class="bk" points="51.15 151.69 48.06 153 40.3 149.87 43.38 148.56 51.15 151.69"/><polygon class="bj" points="65.06 157.29 61.98 158.6 54.21 155.47 57.3 154.16 65.06 157.29"/><polygon class="bk" points="78.97 162.89 75.89 164.2 68.13 161.07 71.21 159.77 78.97 162.89"/><path class="j" d="M72.33,174.09a0.72,0.72,0,0,1,.72-0.45l0.32-.8a0.72,0.72,0,0,1,.51-1.27l0.46-1.14-0.79-.32a0.72,0.72,0,0,1-.79.17,0.73,0.73,0,0,1-.45-0.67l-0.84-.34a0.72,0.72,0,0,1-1.24-.5l-0.84-.34a0.72,0.72,0,0,1-.79.17,0.73,0.73,0,0,1-.45-0.67l-0.83-.34a0.72,0.72,0,0,1-1.24-.5l-0.84-.34a0.72,0.72,0,0,1-1.24-.5l-0.84-.34a0.72,0.72,0,0,1-1.24-.5l-0.84-.34a0.72,0.72,0,0,1-1.24-.5l-0.79-.32-0.45,1.12a0.72,0.72,0,0,1-.53,1.31l-0.31.77a0.72,0.72,0,0,1-.52,1.31l-0.31.77a0.73,0.73,0,0,1,.26.86,0.72,0.72,0,0,1-.79.44l-0.31.77a0.72,0.72,0,0,1-.53,1.3l-0.31.77a0.71,0.71,0,0,1,.26.86,0.72,0.72,0,0,1-.79.44l-0.36.87a0.72,0.72,0,0,1-.53,1.31l-0.31.77a0.72,0.72,0,0,1-.53,1.3l-0.31.78a0.72,0.72,0,0,1-.53,1.3l-0.31.77a0.72,0.72,0,0,1-.52,1.3l-0.34.84,0.82,0.33a0.72,0.72,0,0,1,.73-0.12,0.73,0.73,0,0,1,.44.6l0.9,0.36a0.71,0.71,0,0,1,1.17.47l0.9,0.36a0.72,0.72,0,0,1,.73-0.12,0.7,0.7,0,0,1,.44.59l0.9,0.36a0.71,0.71,0,0,1,1.17.47l0.9,0.37a0.71,0.71,0,0,1,1.17.47l0.9,0.36a0.71,0.71,0,0,1,1.17.47l0.9,0.36a0.71,0.71,0,0,1,1.17.47l0.82,0.33,0.35-.86a0.72,0.72,0,0,1,.51-1.27l0.32-.81A0.72,0.72,0,0,1,68,186.2l0.32-.8a0.72,0.72,0,0,1,.51-1.27l0.32-.81a0.71,0.71,0,0,1-.21-0.82,0.72,0.72,0,0,1,.72-0.45l0.37-.91a0.7,0.7,0,0,1-.22-0.82,0.72,0.72,0,0,1,.72-0.45l0.32-.81a0.72,0.72,0,0,1,.51-1.27L71.7,177a0.71,0.71,0,0,1,.51-1.27l0.32-.8a0.72,0.72,0,0,1-.21-0.83"/><rect class="ak" x="53.46" y="170.65" width="18.46" height="13.38" transform="translate(-125.23 169.3) rotate(-68.08)"/><path class="bl" d="M65.14,184.39c-1.52-1.34-2.25-2-2.22-3L64.35,182l2.29-5.69a10,10,0,0,0,.36-1.45c0.09-1.27-.47-2.05-2.2-2.75s-2.69-.53-3.5.45a10,10,0,0,0-.74,1.3l-2.29,5.69,1.42,0.58c-0.65.73-1.63,0.69-3.65,0.6-2.37-.11-3,2.69-3,2.69l12.34,5s1.51-2.43-.27-4"/><path class="bm" d="M51.23,179.34a1,1,0,0,1-.54.12H50.3a8.86,8.86,0,0,1-.91,0c-0.24,0-.47-0.12-0.71-0.16a3.73,3.73,0,0,1-1.74-.87,3.72,3.72,0,0,0-1.74-.88H45.09a0.15,0.15,0,0,1-.13-0.18,0.15,0.15,0,0,1,.19-0.13,4.13,4.13,0,0,1,.66.17,11.68,11.68,0,0,1,1.27.76,0.36,0.36,0,0,1,.13.13,1.52,1.52,0,0,0,.7.49,2.94,2.94,0,0,0,.74.22c0.2,0,.39.12,0.59,0.16a4.81,4.81,0,0,0,1.05,0l0.73,0a0.17,0.17,0,0,1,.2.17"/><path class="bm" d="M49.61,181.06a4.53,4.53,0,0,1-1.73-.36,4.93,4.93,0,0,1-1.27-.63l-0.77-.6a2,2,0,0,0-.9-0.36,2.57,2.57,0,0,1-.43-0.1,0.15,0.15,0,0,1-.07-0.11,0.34,0.34,0,0,1,.11-0.12,0.08,0.08,0,0,1,.07,0,3.13,3.13,0,0,1,1.29.37,5.45,5.45,0,0,1,.68.54,2.58,2.58,0,0,0,1,.61c0.25,0.09.49,0.2,0.74,0.3a0.35,0.35,0,0,0,.14,0,5.39,5.39,0,0,0,1,.07,0.22,0.22,0,0,1,.26.1,0.2,0.2,0,0,1-.07.25"/><path class="bm" d="M45.39,174.43a2.42,2.42,0,0,1,.76.17,7.07,7.07,0,0,1,1.35.78,5.71,5.71,0,0,0,.9.55,6.17,6.17,0,0,0,1,.32,2.78,2.78,0,0,0,.57.08c0.1,0,.21,0,0.24.11a0.26,0.26,0,0,1-.26.25,1.44,1.44,0,0,1-.29,0,8.21,8.21,0,0,1-2.35-1,8.69,8.69,0,0,0-.89-0.56,2,2,0,0,0-.76-0.33,0.57,0.57,0,0,1-.26-0.12,0.37,0.37,0,0,1,0-.17"/><path class="bm" d="M45.56,173.29a0.77,0.77,0,0,1,.26-0.07,4.76,4.76,0,0,1,.8.24,6.24,6.24,0,0,1,1.45,1,2.14,2.14,0,0,0,1.48.61H49.8a0.15,0.15,0,0,1,.16.16,0.14,0.14,0,0,1-.14.14,1.75,1.75,0,0,1-1-.11,3.46,3.46,0,0,1-1-.66,5.46,5.46,0,0,0-1.65-1.06c-0.12,0-.26-0.07-0.38-0.12a1.07,1.07,0,0,1-.2-0.17"/><path class="bm" d="M46.26,176.35a3,3,0,0,0-1.05-.26l-0.07,0a0.21,0.21,0,0,1-.07-0.11,0.13,0.13,0,0,1,.07-0.1,0.57,0.57,0,0,1,.22,0,5.08,5.08,0,0,1,1.36.4l0.2,0.09a2.42,2.42,0,0,1,.75.43c0.14,0.13.33,0.2,0.48,0.32a2.17,2.17,0,0,1,.3.26,0.15,0.15,0,0,1,0,.13,0.2,0.2,0,0,1-.14.08A1,1,0,0,1,48,177.4a4.88,4.88,0,0,0-1.76-1.05"/><path class="bm" d="M55.79,178a0.45,0.45,0,0,1,.16-0.13,1.71,1.71,0,0,1,.29,0h0.58a4.3,4.3,0,0,1,.47,0L58,178a1.77,1.77,0,0,1,.59.19,0.16,0.16,0,0,1,.06.22,0.14,0.14,0,0,1-.17.11,0.59,0.59,0,0,1-.17,0,2.51,2.51,0,0,0-.48-0.16,2.93,2.93,0,0,0-1.07-.11,1.55,1.55,0,0,1-1-.21"/><path class="bm" d="M58.41,177.24a5.94,5.94,0,0,0-1.64-.3h0c-0.07,0-.15,0-0.14-0.12a0.14,0.14,0,0,1,.15-0.13,1.65,1.65,0,0,1,.29,0c0.51,0.07,1,.14,1.52.24a2.07,2.07,0,0,1,.47.18,0.19,0.19,0,0,1,.1.22,0.12,0.12,0,0,1-.16.11l-0.56-.18"/><path class="bm" d="M55.52,182.31a0.47,0.47,0,0,1,.12-0.16,2.43,2.43,0,0,1,.62,0,4.86,4.86,0,0,1,1,.23,0.54,0.54,0,0,1,.29.22,0.24,0.24,0,0,1,0,.17,0.18,0.18,0,0,1-.16.05,5.1,5.1,0,0,1-.55-0.21,2,2,0,0,0-.8-0.18,3.35,3.35,0,0,1-.54-0.08"/><path class="bm" d="M54.71,179.49l-0.06,0a0.26,0.26,0,0,1-.22-0.21c0-.08.11-0.1,0.31-0.06a4.77,4.77,0,0,0,1.19.14,0.46,0.46,0,0,1,.36.12,0.13,0.13,0,0,1,0,.23,0.34,0.34,0,0,1-.18,0,6,6,0,0,1-.74-0.12,1.37,1.37,0,0,0-.28-0.05l-0.33-.05"/><path class="bm" d="M56.08,181.34a0.19,0.19,0,0,1-.08,0,0.19,0.19,0,0,1-.06-0.12A0.12,0.12,0,0,1,56,181.1a0.35,0.35,0,0,1,.18,0,3,3,0,0,0,1.16,0,0.66,0.66,0,0,1,.38.08,0.23,0.23,0,0,1,.11.16,0.16,0.16,0,0,1-.19.14H57.29l-1.05-.11-0.16,0"/><path class="bm" d="M48.81,177.57l0.21,0a3.57,3.57,0,0,0,1.26.09,1.23,1.23,0,0,1,.36.05,0.13,0.13,0,0,1,.08.1,0.21,0.21,0,0,1-.06.12,0.16,0.16,0,0,1-.1,0,3.81,3.81,0,0,1-1.6-.17,0.17,0.17,0,0,1-.13-0.26"/><path class="bm" d="M56.8,179.79c0-.24,0-0.28.15-0.29a2.81,2.81,0,0,1,.65,0,2.36,2.36,0,0,1,.59.19,0.17,0.17,0,0,1,.07.22,0.16,0.16,0,0,1-.21.11,1.35,1.35,0,0,1-.38-0.1A1,1,0,0,0,57,179.8H56.8"/><path class="bm" d="M54.29,178.05l-0.42-.2a0.24,0.24,0,0,1-.09-0.1,0.09,0.09,0,0,1,0-.1,0.16,0.16,0,0,1,.11-0.07,0.28,0.28,0,0,1,.17,0,1.55,1.55,0,0,0,.83.2c0.12,0,.24,0,0.36,0a0.23,0.23,0,0,1,.16.11,0.24,0.24,0,0,1-.09.17,0.19,0.19,0,0,1-.17.06,2.14,2.14,0,0,0-.54,0,1.1,1.1,0,0,1-.3-0.11v0"/><path class="bm" d="M52.41,175.16a1.41,1.41,0,0,1,.59.35,0.29,0.29,0,0,1,.07.08,0.22,0.22,0,0,1,0,.24,0.19,0.19,0,0,1-.27,0c-0.08-.06-0.15-0.12-0.24-0.18l-0.45-.24a1.17,1.17,0,0,1-.22-0.11,0.17,0.17,0,0,1-.06-0.15,0.17,0.17,0,0,1,.14-0.07l0.38,0.09"/><path class="bm" d="M54.9,182c0,0.23,0,.29-0.18.26a4.77,4.77,0,0,1-1-.31,0.25,0.25,0,0,1-.16-0.25l0.16,0a1,1,0,0,1,.18,0l1,0.29"/><path class="bm" d="M52.85,179.6a1.32,1.32,0,0,1,.73.45,0.14,0.14,0,0,1,0,.2,0.14,0.14,0,0,1-.2,0,2.22,2.22,0,0,0-.84-0.43,0.15,0.15,0,0,1-.1-0.17,0.14,0.14,0,0,1,.2-0.1l0.21,0.05"/><path class="bm" d="M51.44,175.21a0.21,0.21,0,0,1-.09.06l-0.76.06a0.15,0.15,0,0,1-.15-0.14,0.14,0.14,0,0,1,.1-0.17,1.48,1.48,0,0,1,.79,0,0.17,0.17,0,0,1,.11.22"/><path class="bm" d="M52.67,176.83a0.18,0.18,0,0,1-.27.07,1.26,1.26,0,0,0-.46-0.19,0.38,0.38,0,0,1-.27-0.18c0-.06,0-0.18.07-0.17a2.94,2.94,0,0,1,.63.13,0.47,0.47,0,0,1,.29.3,0.23,0.23,0,0,1,0,0"/><path class="bm" d="M51.28,180.65a0.94,0.94,0,0,1,.62,0,1.61,1.61,0,0,1,.27.1,0.14,0.14,0,0,1,.1.17,0.14,0.14,0,0,1-.19.12,2.72,2.72,0,0,1-.77-0.27,0.26,0.26,0,0,1,0-.08"/><path class="bm" d="M55.27,177c-0.13-.23-0.1-0.29.11-0.31l0.32-.05a0.69,0.69,0,0,1,.21,0,0.13,0.13,0,0,1,.09.22,0.76,0.76,0,0,1-.2.13,0.29,0.29,0,0,1-.14,0l-0.39,0"/><path class="bm" d="M52.61,178.23l-0.31-.18a0.16,0.16,0,0,1,0-.23,0.21,0.21,0,0,1,.16,0,4.2,4.2,0,0,1,.48.25,0.16,0.16,0,0,1,0,.15,0.18,0.18,0,0,1-.13.08,0.87,0.87,0,0,1-.22,0"/><path class="bm" d="M53.64,176a3.19,3.19,0,0,1,.26.23,0.19,0.19,0,0,1,0,.23,0.15,0.15,0,0,1-.12.07,0.36,0.36,0,0,1-.31-0.38,0.46,0.46,0,0,1,.15-0.15"/><path class="bm" d="M50.76,176.4l0.13-.24,0.15,0,0.21,0.12-0.14.25-0.35-.17"/><path class="bm" d="M51.45,177.59a1.13,1.13,0,0,1,.06.21,0.13,0.13,0,0,1-.13.14,0.15,0.15,0,0,1-.18-0.08,0.13,0.13,0,0,1,0-.19l0.2-.08"/><path class="bm" d="M54,179.11l-0.36-.06a0.76,0.76,0,0,1,.07-0.21,0.15,0.15,0,0,1,.13-0.05c0.16,0,.17.13,0.17,0.32"/><path class="bm" d="M53.33,177.28a1.23,1.23,0,0,1-.23,0,0.13,0.13,0,0,1-.11-0.18,0.16,0.16,0,0,1,.22-0.1c0.07,0,.07,0,0.12.26"/><path class="bm" d="M54.62,176.88a0.49,0.49,0,0,1-.17,0,0.16,0.16,0,0,1-.15-0.2,0.19,0.19,0,0,1,.21-0.1,0.23,0.23,0,0,1,.11.27"/><path class="bm" d="M54.36,180.35a0.23,0.23,0,0,1,.15.31,0.16,0.16,0,0,1-.25,0,0.17,0.17,0,0,1,0-.23,0.28,0.28,0,0,1,.09-0.07"/><path class="bm" d="M53.2,178.65c-0.09-.21-0.1-0.28,0-0.31a0.17,0.17,0,0,1,.22.12c0,0.1,0,.12-0.22.19"/><path class="bm" d="M52,179.22l0.14,0.26a0.32,0.32,0,0,1-.1.09,0.16,0.16,0,0,1-.23,0,0.18,0.18,0,0,1,.06-0.23l0.13-.11"/><path class="bm" d="M55.24,180.92a0.14,0.14,0,0,1-.18.12,0.15,0.15,0,0,1-.1-0.2,0.13,0.13,0,0,1,.19-0.11,0.14,0.14,0,0,1,.1.19"/><path class="bm" d="M50.4,180.88a0.28,0.28,0,0,1-.14,0,0.14,0.14,0,0,1-.12-0.18,0.13,0.13,0,0,1,.15-0.12,0.19,0.19,0,0,1,.11.25"/><path class="bm" d="M52.93,181.17c0,0.13-.11.18-0.2,0.15a0.13,0.13,0,0,1-.09-0.17,0.13,0.13,0,0,1,.19-0.1,0.35,0.35,0,0,1,.1.13"/><path class="w" d="M52,188.48H51.94l-0.33-.06a3.46,3.46,0,0,0-.4-0.06H51.14l-0.16,0c-0.11,0-.23-0.06-0.35-0.12a1.34,1.34,0,0,0-.34-0.09A2.24,2.24,0,0,1,50,188a4.73,4.73,0,0,1-1.14-.71l-0.1-.07L48.51,187l-0.34-.31L48,186.52l-0.11-.1a1.87,1.87,0,0,1-.44-0.54l-0.13-.23,0,0a4.07,4.07,0,0,1-.36-0.83c0-.1-0.07-0.21-0.1-0.32s0-.12-0.05-0.18a2,2,0,0,1-.08-0.43v-0.2c0-.2,0-0.4,0-0.61a1.93,1.93,0,0,1,0-.26l0-.22v-0.16c0-.05,0-0.1,0-0.16a1.81,1.81,0,0,1,.14-0.58c0.1-.26.19-0.51,0.29-0.82a0.58,0.58,0,0,0,0-.11,0.64,0.64,0,0,1,.14-0.31,1.22,1.22,0,0,0,.2-0.32,0.92,0.92,0,0,1,.22-0.33l0.06-.06a4.1,4.1,0,0,1,.36-0.42l0,0a2.08,2.08,0,0,1,.5-0.41l0.06,0a0.79,0.79,0,0,1,.22-0.14l0.12-.07a1.6,1.6,0,0,1,.33-0.21,0.72,0.72,0,0,0,.19-0.12l0.12-.08c0.28-.13.54-0.27,0.79-0.4l0.18-.06a2.59,2.59,0,0,1,.38-0.11,3.72,3.72,0,0,1,.93-0.07h0.13l0.43,0h0.35l0.16,0,0.17,0a1.74,1.74,0,0,1,.49.12l0.26,0.09a0.89,0.89,0,0,1,.28.12l0.28,0.18,0.24,0.15L55,178.39a5.16,5.16,0,0,1,.89.63l0,0,0.25,0.3a3.94,3.94,0,0,1,.29.34l0.09,0.12L56.65,180a1.28,1.28,0,0,1,.13.21l0.46,1a4.73,4.73,0,0,1,.35,1.23c0,0.27.06,0.51,0.07,0.73a2.09,2.09,0,0,1,0,.52v0.05c-0.06.3-.12,0.6-0.19,0.9a1.88,1.88,0,0,1-.24.61,0.63,0.63,0,0,0-.09.16,1,1,0,0,1-.16.29l-0.22.3a0.59,0.59,0,0,0-.06.12,2.92,2.92,0,0,1-.48.75A0.82,0.82,0,0,1,56,187l-0.26.18-0.16.13a1.16,1.16,0,0,1-.27.18,0.55,0.55,0,0,0-.13.09l-0.08.06a2.94,2.94,0,0,1-.57.34,2.73,2.73,0,0,1-.65.26l-0.17.06a2.57,2.57,0,0,1-.48.1l-0.55.07a3,3,0,0,1-.64,0m-0.78-.41a3.76,3.76,0,0,1,.43.06L52,188.19H52a3.05,3.05,0,0,0,.56,0l0.56-.07a2.46,2.46,0,0,0,.43-0.09l0.18-.06a2.34,2.34,0,0,0,.56-0.23l0.06,0a2.53,2.53,0,0,0,.52-0.31l0.07-.05a1.07,1.07,0,0,1,.2-0.13,0.91,0.91,0,0,0,.2-0.15l0.19-.14,0.26-.19a0.6,0.6,0,0,0,.13-0.12,3,3,0,0,0,.44-0.68,0.78,0.78,0,0,1,.09-0.16l0.21-.3a0.82,0.82,0,0,0,.13-0.21,1,1,0,0,1,.12-0.24,1.83,1.83,0,0,0,.21-0.51c0.07-.3.13-0.6,0.19-0.89v-0.05a1.65,1.65,0,0,0,0-.45,6.92,6.92,0,0,0-.07-0.7,4.19,4.19,0,0,0-.33-1.14c-0.15-.32-0.3-0.64-0.45-1a1.27,1.27,0,0,0-.11-0.17L56.29,180l-0.09-.12-0.28-.33-0.26-.31a4.68,4.68,0,0,0-.83-0.59l-0.25-.15-0.24-.16-0.27-.17a0.81,0.81,0,0,0-.22-0.09,1.67,1.67,0,0,1-.3-0.11,1.35,1.35,0,0,0-.42-0.1l-0.18,0-0.13,0h-0.3l-0.42,0H51.93a3.56,3.56,0,0,0-.86.06l-0.34.09-0.16.06c-0.23.12-.5,0.26-0.78,0.4l0,0a1.2,1.2,0,0,1-.27.17,1,1,0,0,0-.27.18l-0.17.1a0.38,0.38,0,0,0-.14.09,0.43,0.43,0,0,1-.13.09,2,2,0,0,0-.43.36l0,0a2.53,2.53,0,0,0-.33.38,0.83,0.83,0,0,1-.09.11,0.61,0.61,0,0,0-.16.23,1.53,1.53,0,0,1-.25.4,0.36,0.36,0,0,0-.07.17c0,0.05,0,.1,0,0.16-0.08.24-.18,0.54-0.3,0.83a1.59,1.59,0,0,0-.12.5,0.74,0.74,0,0,1,0,.08h0v0.16l0,0.31a1.18,1.18,0,0,0,0,.23c0,0.19,0,.39,0,0.59v0.21a1.43,1.43,0,0,0,.07.36c0,0.06,0,.12.06,0.19a3,3,0,0,0,.09.31,3.75,3.75,0,0,0,.34.77l0,0c0,0.08.1,0.16,0.14,0.25a1.67,1.67,0,0,0,.38.46l0.12,0.11,0.21,0.19,0.34,0.3L48.91,187,49,187.06a4.67,4.67,0,0,0,1.07.67,1.08,1.08,0,0,0,.27.08,2.2,2.2,0,0,1,.4.12,2,2,0,0,0,.3.1l0.16,0h0Z"/><path class="w" d="M52.05,186.46h0l-0.21,0-0.25,0H51.5l-0.1,0a0.8,0.8,0,0,1-.22-0.07,0.84,0.84,0,0,0-.2-0.06,0.8,0.8,0,0,1-.22-0.07,3.09,3.09,0,0,1-.72-0.45L50,185.65l-0.14-.12-0.22-.19-0.12-.11-0.08-.07a1.1,1.1,0,0,1-.29-0.35l-0.08-.14a2.35,2.35,0,0,1-.25-0.55c0-.07,0-0.14-0.07-0.21l0-.1a1.38,1.38,0,0,1-.06-0.28V183.4a2.94,2.94,0,0,1,0-.39,1,1,0,0,1,0-.17v-0.32a1.23,1.23,0,0,1,.09-0.39c0.06-.17.12-0.34,0.18-0.51a0.38,0.38,0,0,0,0-.06,0.47,0.47,0,0,1,.1-0.23,0.66,0.66,0,0,0,.11-0.19,0.74,0.74,0,0,1,.15-0.22l0,0a2.31,2.31,0,0,1,.23-0.27l0,0a1.44,1.44,0,0,1,.33-0.27,0.75,0.75,0,0,1,.17-0.12l0.06,0a1,1,0,0,1,.22-0.14l0.11-.06a0.16,0.16,0,0,1,.08-0.06l0.49-.25,0.12,0,0.24-.07a2.64,2.64,0,0,1,.6,0h0.08l0.26,0h0.22l0.11,0h0.11a1,1,0,0,1,.32.09l0.15,0.05,0.19,0.08L53.79,180l0.14,0.09a2.93,2.93,0,0,1,.56.4l0,0,0.15,0.17,0.18,0.23L54.92,181,55,181.08a0.73,0.73,0,0,1,.09.14c0.1,0.2.19,0.4,0.28,0.6a2.72,2.72,0,0,1,.23.78c0,0.17,0,.32,0,0.46a1.43,1.43,0,0,1,0,.34v0c0,0.18-.08.36-0.12,0.55a1.23,1.23,0,0,1-.16.39,0.44,0.44,0,0,0,0,.09,0.57,0.57,0,0,1-.11.19l-0.13.19a0.16,0.16,0,0,0,0,.06,2.31,2.31,0,0,1-.31.48,0.47,0.47,0,0,1-.14.13l-0.15.11-0.1.08a0.79,0.79,0,0,1-.18.13l-0.07,0,0,0a2,2,0,0,1-.37.22,1.74,1.74,0,0,1-.41.16l-0.11,0a1.56,1.56,0,0,1-.31.06l-0.35,0a1.92,1.92,0,0,1-.39,0m-0.48-.36,0.28,0,0.19,0h0a1.29,1.29,0,0,0,.33,0l0.35,0a1,1,0,0,0,.26-0.05l0.11,0a1.46,1.46,0,0,0,.34-0.13l0,0a1.5,1.5,0,0,0,.31-0.18l0,0a0.57,0.57,0,0,1,.13-0.09,0.37,0.37,0,0,0,.11-0.08l0.12-.09,0.15-.1a0.27,0.27,0,0,0,.08-0.08,1.64,1.64,0,0,0,.27-0.41,0.67,0.67,0,0,1,.06-0.12l0.13-.18a0.38,0.38,0,0,0,.07-0.11,0.48,0.48,0,0,1,.08-0.16,1,1,0,0,0,.12-0.31c0-.18.08-0.36,0.12-0.54v0a1.07,1.07,0,0,0,0-.27c0-.13,0-0.27,0-0.43a2.58,2.58,0,0,0-.2-0.7l-0.28-.59a0.4,0.4,0,0,0-.06-0.1l-0.07-.1-0.06-.08-0.16-.2a1.61,1.61,0,0,1-.16-0.2,3.54,3.54,0,0,0-.5-0.35l-0.16-.1-0.32-.2L53.2,180,53,179.9a1,1,0,0,0-.24-0.06l-0.12,0H52.39l-0.27,0H52a2.62,2.62,0,0,0-.53,0l-0.2.06-0.1,0a4.66,4.66,0,0,1-.48.24,0.63,0.63,0,0,1-.19.12,0.71,0.71,0,0,0-.16.1l-0.11.07-0.07,0a0.24,0.24,0,0,1-.09.06,1,1,0,0,0-.25.21l0,0a1.58,1.58,0,0,0-.2.23l-0.07.07a0.3,0.3,0,0,0-.08.12,1,1,0,0,1-.17.26,0.11,0.11,0,0,0,0,.08l0,0.11c-0.06.18-.12,0.35-0.19,0.52a1,1,0,0,0-.07.29h0l0,0.35a0.62,0.62,0,0,0,0,.13,3,3,0,0,0,0,.36v0.14a0.7,0.7,0,0,0,0,.21l0,0.11c0,0.07,0,.13.06,0.19a2.16,2.16,0,0,0,.2.47l0.11,0.18a1.07,1.07,0,0,0,.22.27L49.71,185l0.11,0.11L50,185.33l0.13,0.11,0.06,0a2.63,2.63,0,0,0,.65.41,0.48,0.48,0,0,0,.16,0,1.46,1.46,0,0,1,.26.07l0.18,0.06,0.1,0"/><path class="w" d="M49.13,184.19l-0.31,0,0-.09-0.05-.17,0-.1a1.37,1.37,0,0,1-.06-0.28v-0.12a3.17,3.17,0,0,1,0-.41,1.06,1.06,0,0,1,0-.17l0-.32a1.09,1.09,0,0,1,.09-0.38c0.06-.16.12-0.33,0.18-0.5v-0.06a0.48,0.48,0,0,1,0-.13l0-.1h0.19l0.92,0.07,0.4,0,0.46,0,0.3,0h0.16l0.19,0,0.78,0.05,0.44,0,0.78,0.05,1,0.07,0.41,0h0.28l0,0.08a2.6,2.6,0,0,1,.2.71,3.2,3.2,0,0,1,0,.46,1.07,1.07,0,0,1,0,.34l0,0.12c0,0.16-.06.32-0.1,0.48a1.29,1.29,0,0,1-.16.39,0.55,0.55,0,0,0,0,.08l0,0.09-0.05.07-0.62-.06-0.32,0-0.32,0L53,184.45H52.94l-0.48,0H52.23l-1.69-.11-0.55,0-0.86-.06m-0.09-.3h0.12L50,184l0.55,0,1.68,0.11h0.24l0.47,0H53L54,184.23l0.32,0,0.32,0,0.42,0,0.06-.1a1,1,0,0,0,.12-0.3c0-.15.07-0.31,0.1-0.47l0-.12a1.85,1.85,0,0,0,0-.27c0-.14,0-0.29,0-0.43a2.41,2.41,0,0,0-.14-0.55H55l-0.41,0-1-.07-0.77-.05-0.44,0-0.78-.05-0.19,0H51.31l-0.31,0-0.46,0-0.41,0-0.89-.07v0.06c-0.05.16-.12,0.34-0.19,0.52a1.06,1.06,0,0,0-.07.29h0l0,0.34a0.73,0.73,0,0,0,0,.14,3.32,3.32,0,0,0,0,.37v0.12a0.9,0.9,0,0,0,0,.21l0,0.11,0,0.06"/><path class="w" d="M49.86,179.93l0,0-0.06,0-0.46-.68,0.25-.18a0.24,0.24,0,0,1,.35.07,0.24,0.24,0,0,1-.07.35l-0.15.11Zm-0.09-.44a0.14,0.14,0,0,0,0-.21,0.14,0.14,0,0,0-.21,0l-0.14.09,0.18,0.26Z"/><path class="w" d="M50.26,178.73a0.35,0.35,0,0,1,.48.27c0.12,0.28.06,0.45-.13,0.53s-0.35,0-.47-0.27a0.35,0.35,0,0,1,.12-0.53m0,0.09c-0.12,0-.16.15-0.06,0.39s0.2,0.27.32,0.22,0.16-.15.06-0.39-0.21-.27-0.32-0.22"/><path class="w" d="M51.09,178.46a0.87,0.87,0,0,1,.23,0,0.12,0.12,0,0,1,0,.1,0.51,0.51,0,0,0-.18,0c-0.12,0-.17.08-0.15,0.17s0.12,0.09.24,0.1a0.25,0.25,0,1,1,0,.49,0.6,0.6,0,0,1-.26,0,0.18,0.18,0,0,1,0-.1,0.78,0.78,0,0,0,.22,0c0.12,0,.16-0.09.14-0.17a0.15,0.15,0,0,0-.17-0.1,0.28,0.28,0,0,1-.32-0.18,0.24,0.24,0,0,1,.23-0.3"/><path class="w" d="M52.09,178.35a0.08,0.08,0,0,1,0,.05,0.14,0.14,0,0,1,0,.05H51.88l0,0.73H51.82l-0.05-.72H51.54a0.09,0.09,0,0,1,0-.06,0.13,0.13,0,0,1,0,0Z"/><path class="w" d="M52.86,178.4a0.81,0.81,0,0,1,.22.06,0.16,0.16,0,0,1-.05.09,0.66,0.66,0,0,0-.17-0.05,0.15,0.15,0,0,0-.2.11,0.22,0.22,0,0,0,.18.17,0.25,0.25,0,0,1,.18.27,0.24,0.24,0,0,1-.32.19,0.67,0.67,0,0,1-.25-0.09,0.22,0.22,0,0,1,0-.09,0.85,0.85,0,0,0,.21.07c0.12,0,.18,0,0.19-0.1a0.16,0.16,0,0,0-.12-0.16,0.28,0.28,0,0,1-.24-0.29,0.23,0.23,0,0,1,.31-0.19"/><path class="w" d="M53.84,178.67a0.11,0.11,0,0,1,0,.05l0,0-0.21-.07-0.22.7H53.32l-0.06,0,0.23-.7-0.21-.07a0.1,0.1,0,0,1,0-.05,0.12,0.12,0,0,1,0,0Z"/><path class="w" d="M54.26,178.87l0.06,0-0.11.86-0.06,0,0,0,0-.21-0.31-.16-0.16.15-0.06,0a0.09,0.09,0,0,1,0,0l0.63-.59a0.15,0.15,0,0,1,.07,0m-0.06.11-0.07.08-0.24.22,0.25,0.12,0-.3c0-.07,0-0.11,0-0.11"/><path class="w" d="M55.33,179.62l0.06,0.06-0.52.63-0.05,0,0,0,0.24-.29a2.06,2.06,0,0,1,.2-0.24h0l-0.23.11-0.27.11,0,0a0,0,0,0,1,0,0l0.06-.28a2,2,0,0,1,.07-0.25h0a2.46,2.46,0,0,1-.18.23l-0.25.3,0,0a0.1,0.1,0,0,1,0,0l0.52-.64,0.06,0,0,0.05-0.06.32a1.4,1.4,0,0,1-.06.19h0l0.1-.05,0.39-.16,0.06,0"/><path class="w" d="M55,180.54l0,0,0-.05,0.65-.52,0.19,0.24a0.24,0.24,0,0,1-.05.36,0.23,0.23,0,0,1-.35,0l-0.12-.14Zm0.44-.13a0.13,0.13,0,0,0,.21,0,0.14,0.14,0,0,0,0-.21l-0.11-.14-0.24.2Z"/><path class="w" d="M49.15,186l0.14,0.12a0.25,0.25,0,0,1,0,.36,0.24,0.24,0,0,1-.36,0l-0.22-.21,0.57-.6a0.11,0.11,0,0,1,.06,0l0,0Zm-0.07.07-0.22.23L49,186.39a0.13,0.13,0,0,0,.21,0,0.14,0.14,0,0,0,0-.21Z"/><path class="w" d="M49.53,186.45c0.17-.25.34-0.3,0.51-0.18s0.21,0.28,0,.54-0.35.29-.51,0.18a0.35,0.35,0,0,1,0-.54M50,186.74c0.14-.21.11-0.32,0-0.39s-0.22-.05-0.36.17-0.11.32,0,.39,0.21,0.05.35-.17"/><path class="w" d="M50.17,187.07a0.29,0.29,0,0,1,.35-0.12,0.16,0.16,0,0,0,.19-0.07,0.14,0.14,0,0,0-.12-0.19,0.77,0.77,0,0,0-.21-0.05,0.17,0.17,0,0,1,0-.1,0.54,0.54,0,0,1,.25.06,0.24,0.24,0,0,1,.17.34,0.24,0.24,0,0,1-.29.13c-0.11,0-.21,0-0.25.06s0,0.14.12,0.19a0.46,0.46,0,0,0,.17,0,0.15,0.15,0,0,1,0,.1,0.78,0.78,0,0,1-.23-0.06,0.24,0.24,0,0,1-.17-0.33"/><path class="w" d="M50.77,187.54a0.16,0.16,0,0,1,0-.05,0.15,0.15,0,0,1,0,0L51,187.5l0.16-.71h0.12l-0.17.71,0.22,0.05a0.11,0.11,0,0,1,0,.05l0,0Z"/><path class="w" d="M51.8,187.51a0.28,0.28,0,0,1,.28-0.24,0.15,0.15,0,0,0,.15-0.13,0.14,0.14,0,0,0-.18-0.14,0.7,0.7,0,0,0-.22,0,0.16,0.16,0,0,1,0-.1,0.63,0.63,0,0,1,.25,0,0.25,0.25,0,0,1,.29.25,0.25,0.25,0,0,1-.22.24,0.22,0.22,0,0,0-.21.14,0.15,0.15,0,0,0,.18.13,0.63,0.63,0,0,0,.18,0,0.12,0.12,0,0,1,0,.09,0.68,0.68,0,0,1-.23,0,0.24,0.24,0,0,1-.28-0.24"/><path class="w" d="M52.55,187.72a0.15,0.15,0,0,1,0,0,0.18,0.18,0,0,1,0-.05l0.22,0-0.11-.72h0.12l0.11,0.72,0.21,0a0.09,0.09,0,0,1,0,.05,0.26,0.26,0,0,1,0,0Z"/><path class="w" d="M53.47,187.53l-0.53-.69,0.05,0H53L53.18,187l0.33-.1v-0.22l0.06,0h0.06l0,0.87-0.07,0-0.06,0m0-.14a0.63,0.63,0,0,1,0-.11V187l-0.26.08,0.19,0.25,0.06,0.09"/><path class="w" d="M54.65,187l-0.35-.22-0.09-.07h0s0,0.12,0,.19v0.33l-0.06,0-0.06,0-0.42-.72,0,0,0.05,0,0.2,0.34a2.31,2.31,0,0,1,.13.26h0a1,1,0,0,1,0-.26v-0.29l0,0h0l0.24,0.15,0.21,0.15h0a2.51,2.51,0,0,1-.16-0.27l-0.18-.32,0,0,0.06,0,0.41,0.71-0.06,0-0.07,0"/><path class="w" d="M54.8,186.24l0.13-.12a0.25,0.25,0,0,1,.36,0,0.24,0.24,0,0,1,0,.36l-0.23.21-0.56-.62,0,0,0.05,0Zm0.07,0.07,0.21,0.24,0.13-.12A0.16,0.16,0,0,0,55,186.2Z"/><path class="w" d="M50.44,182.46H50.5l0.06,0-0.07.77H50.38l0-.48a0.82,0.82,0,0,1,0-.15,0.39,0.39,0,0,1-.2.09,0.11,0.11,0,0,1,0-.1,0.39,0.39,0,0,0,.24-0.14"/><path class="w" d="M50.8,183.27H50.68v-0.11h0.12v0.11Z"/><path class="w" d="M51.13,182.84h0.06a0.23,0.23,0,0,1,.25.26,0.24,0.24,0,0,1-.32.22,0.52,0.52,0,0,1-.19-0.05,0.12,0.12,0,0,1,0-.09,0.49,0.49,0,0,0,.15,0c0.12,0,.19,0,0.2-0.12s0-.15-0.18-0.16H51l0-.42,0.41,0a0.15,0.15,0,0,1,0,.1l-0.29,0Z"/><path class="w" d="M51.68,183.34H51.56v-0.11h0.12v0.11Z"/><path class="w" d="M52,182.6h0.11l-0.06.77H51.95l0-.47a0.91,0.91,0,0,1,0-.15,0.43,0.43,0,0,1-.21.09,0.11,0.11,0,0,1,0-.1A0.4,0.4,0,0,0,52,182.6"/><path class="w" d="M52.32,183.31a0.3,0.3,0,0,0,.32-0.21,0.35,0.35,0,0,1-.15,0,0.22,0.22,0,0,1-.22-0.26,0.23,0.23,0,0,1,.28-0.23,0.27,0.27,0,0,1,.24.33,0.43,0.43,0,0,1-.48.46,0.13,0.13,0,0,1,0-.09m0.21-.29a0.29,0.29,0,0,0,.14,0,0.41,0.41,0,0,0,0-.06c0-.16,0-0.22-0.12-0.23a0.14,0.14,0,0,0-.16.15,0.14,0.14,0,0,0,.13.17"/><path class="w" d="M52.9,183.26a0.26,0.26,0,0,1,.16-0.2,0.23,0.23,0,0,1-.11-0.21,0.21,0.21,0,0,1,.26-0.18,0.21,0.21,0,0,1,.23.21,0.24,0.24,0,0,1-.13.19,0.22,0.22,0,0,1,.12.22c0,0.14-.12.2-0.3,0.19a0.22,0.22,0,0,1-.25-0.23m0.43,0a0.25,0.25,0,0,0-.19-0.19,0.22,0.22,0,0,0-.12.16,0.13,0.13,0,0,0,.15.14,0.13,0.13,0,0,0,.17-0.11m-0.25-.43a0.2,0.2,0,0,0,.17.17,0.22,0.22,0,0,0,.1-0.14,0.12,0.12,0,0,0-.13-0.12,0.1,0.1,0,0,0-.13.09"/><path class="w" d="M53.63,183.42A0.3,0.3,0,0,0,54,183.2a0.4,0.4,0,0,1-.15,0,0.22,0.22,0,0,1-.22-0.27,0.23,0.23,0,0,1,.28-0.23,0.26,0.26,0,0,1,.24.34,0.43,0.43,0,0,1-.48.45,0.12,0.12,0,0,1,0-.09m0.21-.29a0.42,0.42,0,0,0,.14,0,0.49,0.49,0,0,0,0-.06c0-.15,0-0.22-0.12-0.23a0.14,0.14,0,0,0-.16.15,0.13,0.13,0,0,0,.13.17"/><path class="v" d="M438.38,8.45A0.65,0.65,0,0,1,438,7.61L442.43-4.2a0.65,0.65,0,0,1,.84-0.38,0.65,0.65,0,0,1,.38.84l-2.49,5.81-1.94,6a0.65,0.65,0,0,1-.84.38"/></g><g class="bn"><rect class="bo" x="370.16" y="-9.77" width="79.51" height="80.72" transform="translate(237.31 403.65) rotate(-69.44)"/></g><g class="c"><path class="v" d="M380.54,46.32a1.49,1.49,0,0,1-.87-1.92l27-72a1.49,1.49,0,0,1,1.92-.87l36,13.49a1.49,1.49,0,0,1,.87,1.91l-27,72.05a1.49,1.49,0,0,1-1.91.87Z"/><path class="u" d="M418,58.77a1,1,0,0,1-1.3.59l-36-13.49a1,1,0,0,1-.59-1.3l27-72a1,1,0,0,1,1.29-.59l36,13.49a1,1,0,0,1,.59,1.3Z"/><rect class="v" x="378.79" y="-1.12" width="67.52" height="33.55" transform="translate(253.03 396.43) rotate(-69.44)"/><path class="j" d="M554.83,403.31a7.74,7.74,0,0,1-9.23-5.86L522.53,294.18a7.74,7.74,0,0,1,5.86-9.22l83.79-18.72a7.73,7.73,0,0,1,9.23,5.85l23.08,103.27a7.74,7.74,0,0,1-5.86,9.23Z"/></g><g class="bp"><rect class="bq" x="485.52" y="272.45" width="152.32" height="128.18" transform="translate(6.8 684.17) rotate(-63)"/></g><g class="c"><path class="p" d="M566.39,387.59a2.46,2.46,0,0,1-1.86,2.93l-8.28,1.85a2.46,2.46,0,0,1-2.93-1.86L552,384.7a2.45,2.45,0,0,1,1.86-2.93l8.28-1.85a2.46,2.46,0,0,1,2.93,1.86Z"/><path class="p" d="M563.3,373.77a2.47,2.47,0,0,1-1.86,2.93l-8.28,1.85a2.45,2.45,0,0,1-2.93-1.86l-1.3-5.82a2.46,2.46,0,0,1,1.86-2.93l8.28-1.85A2.46,2.46,0,0,1,562,368Z"/><path class="p" d="M560.21,359.95a2.46,2.46,0,0,1-1.86,2.93l-8.28,1.85a2.45,2.45,0,0,1-2.93-1.86l-1.3-5.82a2.45,2.45,0,0,1,1.86-2.93l8.28-1.85a2.46,2.46,0,0,1,2.93,1.86Z"/><path class="p" d="M557.12,346.13a2.46,2.46,0,0,1-1.86,2.93L547,350.9a2.46,2.46,0,0,1-2.93-1.86l-1.3-5.82a2.46,2.46,0,0,1,1.86-2.93l8.28-1.85a2.46,2.46,0,0,1,2.93,1.86Z"/><path class="br" d="M583.43,383.78a2.47,2.47,0,0,1-1.86,2.93l-8.28,1.85a2.46,2.46,0,0,1-2.93-1.86l-1.3-5.82a2.47,2.47,0,0,1,1.86-2.93l8.28-1.85a2.46,2.46,0,0,1,2.93,1.86Z"/><path class="br" d="M580.34,370a2.47,2.47,0,0,1-1.86,2.93l-8.28,1.85a2.46,2.46,0,0,1-2.93-1.86l-1.3-5.82a2.46,2.46,0,0,1,1.86-2.93l8.28-1.85a2.46,2.46,0,0,1,2.93,1.86Z"/><path class="br" d="M577.25,356.14a2.47,2.47,0,0,1-1.86,2.93l-8.28,1.85a2.46,2.46,0,0,1-2.93-1.86l-1.3-5.81a2.46,2.46,0,0,1,1.86-2.93l8.28-1.85a2.46,2.46,0,0,1,2.93,1.86Z"/><path class="br" d="M574.17,342.32a2.47,2.47,0,0,1-1.86,2.93L564,347.1a2.46,2.46,0,0,1-2.93-1.86l-1.3-5.82a2.46,2.46,0,0,1,1.86-2.93l8.28-1.85a2.46,2.46,0,0,1,2.93,1.86Z"/><path class="br" d="M600.47,380a2.46,2.46,0,0,1-1.86,2.93l-8.28,1.85a2.46,2.46,0,0,1-2.93-1.86l-1.3-5.81a2.46,2.46,0,0,1,1.86-2.93l8.28-1.85a2.46,2.46,0,0,1,2.93,1.86Z"/><path class="br" d="M597.38,366.16a2.46,2.46,0,0,1-1.86,2.93l-8.28,1.85a2.46,2.46,0,0,1-2.93-1.86l-1.3-5.82a2.46,2.46,0,0,1,1.86-2.93l8.28-1.85a2.46,2.46,0,0,1,2.93,1.86Z"/><path class="br" d="M594.29,352.33a2.46,2.46,0,0,1-1.86,2.93l-8.28,1.85a2.46,2.46,0,0,1-2.93-1.86l-1.3-5.81a2.46,2.46,0,0,1,1.86-2.93l8.28-1.85a2.45,2.45,0,0,1,2.93,1.86Z"/><path class="br" d="M591.2,338.51a2.46,2.46,0,0,1-1.86,2.93l-8.28,1.85a2.46,2.46,0,0,1-2.93-1.86l-1.3-5.82a2.46,2.46,0,0,1,1.86-2.93l8.28-1.85a2.46,2.46,0,0,1,2.93,1.86Z"/><path class="br" d="M614.42,362.35a2.47,2.47,0,0,1-1.86,2.93l-8.28,1.85a2.46,2.46,0,0,1-2.93-1.86l-1.3-5.82a2.46,2.46,0,0,1,1.86-2.93l8.28-1.85a2.46,2.46,0,0,1,2.93,1.86Z"/><path class="br" d="M611.33,348.52a2.46,2.46,0,0,1-1.86,2.93l-8.28,1.85a2.46,2.46,0,0,1-2.93-1.86l-1.3-5.81a2.46,2.46,0,0,1,1.86-2.93l8.28-1.85a2.46,2.46,0,0,1,2.93,1.86Z"/><path class="br" d="M608.24,334.7a2.46,2.46,0,0,1-1.86,2.93l-8.28,1.85a2.46,2.46,0,0,1-2.93-1.86l-1.3-5.82a2.46,2.46,0,0,1,1.86-2.93L604,327a2.46,2.46,0,0,1,2.93,1.86Z"/><path class="p" d="M554,332.16a2.46,2.46,0,0,1-1.86,2.93l-8.28,1.85a2.45,2.45,0,0,1-2.93-1.86l-0.61-2.74a2.45,2.45,0,0,1,1.86-2.93l8.28-1.85a2.46,2.46,0,0,1,2.93,1.86Z"/><path class="p" d="M571,328.35a2.46,2.46,0,0,1-1.86,2.93l-8.28,1.85a2.46,2.46,0,0,1-2.93-1.86l-0.61-2.74a2.46,2.46,0,0,1,1.86-2.93l8.28-1.85a2.47,2.47,0,0,1,2.93,1.86Z"/><path class="p" d="M588.08,324.55a2.46,2.46,0,0,1-1.86,2.93l-8.28,1.85a2.46,2.46,0,0,1-2.93-1.86l-0.61-2.75a2.46,2.46,0,0,1,1.86-2.93l8.28-1.85a2.46,2.46,0,0,1,2.93,1.86Z"/><path class="bs" d="M605.12,320.73a2.46,2.46,0,0,1-1.86,2.93L595,325.51a2.46,2.46,0,0,1-2.93-1.86l-0.61-2.74A2.47,2.47,0,0,1,593.3,318l8.28-1.85a2.46,2.46,0,0,1,2.93,1.86Z"/></g><g class="bt"><rect class="bu" x="531.13" y="280.2" width="71.49" height="45.11" transform="translate(-52.38 130.93) rotate(-12.6)"/></g><g class="c"><path class="p" d="M539.32,316.61a0.87,0.87,0,0,1-1-.65l-2.69-12a0.86,0.86,0,0,1,.65-1l76.44-17.08a0.87,0.87,0,0,1,1,.65l2.68,12a0.87,0.87,0,0,1-.65,1Z"/><path class="br" d="M613.64,278.79a2.46,2.46,0,0,1-1.86,2.93l-20,4.47a2.46,2.46,0,0,1-2.93-1.86l-0.28-1.25a2.46,2.46,0,0,1,1.86-2.93l20-4.47a2.46,2.46,0,0,1,2.93,1.86Z"/><path class="j" d="M113.87,23.82A67.11,67.11,0,1,1,22.42-1.53a67.11,67.11,0,0,1,91.45,25.35"/><path class="bv" d="M112.71,24.48A65.77,65.77,0,1,1,23.07-.37a65.77,65.77,0,0,1,89.64,24.85"/><path class="k" d="M80.84,42.52a29.15,29.15,0,1,1-39.72-11,29.15,29.15,0,0,1,39.72,11"/><path class="ak" d="M80.25,42.85A28.47,28.47,0,1,1,41.45,32.1a28.47,28.47,0,0,1,38.8,10.75"/><path class="l" d="M44.21,69.39a0.83,0.83,0,1,1-1.14-.32,0.83,0.83,0,0,1,1.14.32"/><path class="bw" d="M46.66,64.5a0.83,0.83,0,1,1-1.13-.31,0.83,0.83,0,0,1,1.13.31"/><path class="bx" d="M69.6,58.43a0.83,0.83,0,1,1-1.14-.32,0.83,0.83,0,0,1,1.14.32"/><path class="bw" d="M69.46,63.74a0.83,0.83,0,1,1-1.14-.31,0.83,0.83,0,0,1,1.14.31"/><path class="bw" d="M59.89,63a0.83,0.83,0,1,1-1.13-.31,0.83,0.83,0,0,1,1.13.31"/><path class="l" d="M56.54,70.09a0.83,0.83,0,1,1-1.14-.31,0.83,0.83,0,0,1,1.14.31"/><path class="bw" d="M37.12,74.36A0.83,0.83,0,1,1,36,74a0.83,0.83,0,0,1,1.13.31"/><path class="bw" d="M27.06,93.7a0.83,0.83,0,1,1-1.14-.32,0.83,0.83,0,0,1,1.14.32"/><path class="l" d="M40.92,96.51a0.83,0.83,0,1,1-1.14-.31,0.84,0.84,0,0,1,1.14.31"/><path class="bw" d="M91.58,61.68a0.83,0.83,0,1,1-1.14-.31,0.84,0.84,0,0,1,1.14.31"/><g class="e"><g class="by"><path class="g" d="M95.72,33.71c-0.42-.37-0.85-0.74-1.29-1.1a79.45,79.45,0,0,1-6.34-5.4,5.38,5.38,0,0,0,.24-0.58c0.6-6.22-7.55-6.37-11.41-10.38l-1.79-1.08a6.66,6.66,0,0,1-1.52-.56,20.47,20.47,0,0,0-2-1.24c-0.67-.36-1.34-0.69-2-1C64.21,9.9,58.43,11.23,53.39,7.94,53,7.73,52.67,7.52,52.32,7.28a16.17,16.17,0,0,0-1.93-.4H50.28c-0.67-1.63-2.2-2.76-5.17-3L44.2,3.77a11.72,11.72,0,0,0-1.7,0C42,3.85,41.47,3.92,41,4l-1.8.72-1.84.75c-4.7,1.92-12,4.94-17.15,7.59-0.45.27-.88,0.54-1.3,0.82a19.13,19.13,0,0,0-2.29,1.77,15.16,15.16,0,0,0-1.46,1.12,6.26,6.26,0,0,0-1.08,4.28,4.5,4.5,0,0,0,.65,1.65c0.56,0.56,1.13,1.1,1.7,1.65v0c-2.2,5.6-7.68,7.87-10.64,13a22.32,22.32,0,0,0-1.08,2,18.91,18.91,0,0,0-.88,2.16,7,7,0,0,1-.91,1.34c-0.28.62-.55,1.26-0.82,1.92C1.28,50.32-5.26,55.17-1.17,59.89a4.24,4.24,0,0,0,.53.34,78.63,78.63,0,0,1-2,8.07C-2.82,68.86-3,69.41-3.07,70c-0.1,5.73.34,12,2.69,16.59a12.84,12.84,0,0,0,.81,1.7c1.51,2.62,3.93,4.05,8.35,2.57A10.28,10.28,0,0,0,10.38,90a15.62,15.62,0,0,0,6.2-7.19c0.33-.53.64-1.07,0.94-1.61s0.59-1.08.86-1.62a13.11,13.11,0,0,0,.75-1.92c0.42-.46.81-0.94,1.2-1.42s0.76-1,1.13-1.48,0.74-1.08,1.1-1.63a61.29,61.29,0,0,1,5.88-8.28,14,14,0,0,0,5.28-2.82A9.57,9.57,0,0,0,35.25,61a7.93,7.93,0,0,1,1.13-1c0.45-.35,1-0.71,1.5-1.09,2.63-1.31,3.71-3.75,4.67-5.65,3,0.74,6.42-.16,10.79-2.88a9.21,9.21,0,0,0,1.23-1.49c0.07-.11.12-0.26,0.19-0.37a7.14,7.14,0,0,0,1.2,0c0.66,0,1.28,0,1.86,0a7.74,7.74,0,0,1,1.5.16,9.4,9.4,0,0,0,1.89,0,14.14,14.14,0,0,0,5.94-.77,61.91,61.91,0,0,1,9.6,3.33c0.62,0.24,1.24.48,1.84,0.69s1.19,0.38,1.79.54,1.2,0.32,1.8.46A13.28,13.28,0,0,0,83.88,54c0.53,0.28,1.08.55,1.64,0.82s1.13,0.53,1.7.77a15.63,15.63,0,0,0,9.22,2.25,10.59,10.59,0,0,0,1.76-.3c4.46-1.36,5.6-3.93,5.3-6.94a12.46,12.46,0,0,0-.34-1.86c-0.77-5.13-4-10.46-7.44-15.07"/></g></g><path class="l" d="M37.9,65.12c-2.92,2.58-5,6.27-7.15,9.6-0.36.56-.73,1.1-1.1,1.63s-0.75,1-1.13,1.47-0.79,1-1.2,1.42a13.47,13.47,0,0,1-.74,1.92c-0.27.54-.56,1.08-0.86,1.62s-0.61,1.08-.94,1.61a15.58,15.58,0,0,1-6.2,7.18,10.13,10.13,0,0,1-1.61.78c-4.42,1.48-6.83.05-8.34-2.58a12.67,12.67,0,0,1-.81-1.7C5.46,83.45,5,77.23,5.12,71.49c0.12-.54.26-1.09,0.41-1.64a72,72,0,0,0,2.1-8.46l2-.83L27,53.37l2.13,5.13,0.54,1.27c2,4.28,3.83,3.53,7.52,2.35a1,1,0,0,1,1.26.4,3.49,3.49,0,0,1-.19,2l-0.31.56"/><path class="bw" d="M50.85,54.58c-1,1.92-2,4.51-4.77,5.86-0.54.38-1.05,0.74-1.5,1.09a7.84,7.84,0,0,0-1.13,1,9.25,9.25,0,0,1-1.55,1.09c-6.18,5.16-13.16,3.78-20.25-.22l-1.4-.34-2.09-.5c-2.33-.5-7.8,1.77-11.13-1.13-4.09-4.72,2.45-9.57,3.27-15.07,0.27-.65.55-1.3,0.82-1.92A7,7,0,0,0,12,43.11,19.73,19.73,0,0,1,12.9,41c0.33-.68.7-1.34,1.09-2,3-5.17,8.44-7.44,10.64-13,0.17-.38.34-0.76,0.49-1.16a14.59,14.59,0,0,1,1.34-1.44c2.32-2.15,5.06-2.8,8.27,1.64,0.31,0.51.6,1,.87,1.59,1.06,2.21,1.82,4.73,2.77,6.82,0.28,0.58.57,1.15,0.86,1.71s0.43,1.12.65,1.64,0.43,1,.66,1.5c1.78,5,4.75,9,7.84,12.7q0.58,0.69,1.16,1.37l1.15,1.32c0.12,0.62.16,0.95,0.16,0.95"/><path class="l" d="M73.53,49.08c3.88,0.42,7.7,2.22,11.4,3.67,0.62,0.24,1.23.48,1.84,0.69s1.18,0.38,1.78.54,1.2,0.32,1.8.46a13.91,13.91,0,0,0,1.73,1.14c0.53,0.28,1.08.55,1.64,0.82s1.12,0.53,1.7.77a15.63,15.63,0,0,0,9.22,2.25,11.15,11.15,0,0,0,1.76-.31c4.46-1.36,5.6-3.93,5.31-6.94a12.64,12.64,0,0,0-.34-1.86c-0.78-5.13-4-10.46-7.44-15.07-0.42-.36-0.84-0.73-1.29-1.1A71.44,71.44,0,0,1,96,28.48L93.88,29,75.61,33.18l1.25,5.41c0.1,0.44.2,0.89,0.3,1.35C78,44.59,76.09,45,72.4,46.22a0.94,0.94,0,0,0-.79,1.05,3.46,3.46,0,0,0,1.33,1.54c0.35,0.18.58,0.27,0.58,0.27"/><path class="bw" d="M56.87,48c1.91,1,4.28,2.48,7.28,2,0.66,0,1.29,0,1.86,0a7.55,7.55,0,0,1,1.5.16,9.26,9.26,0,0,0,1.89,0c8,0.62,12.92-4.56,16.36-11.93l1-1.09c0.47-.55.94-1.09,1.41-1.62,1.6-1.76,7.37-3.09,8.41-7.38,0.6-6.22-7.55-6.37-11.41-10.38l-1.79-1.08a6.79,6.79,0,0,1-1.51-.56,19.34,19.34,0,0,0-2-1.24,22.13,22.13,0,0,0-2-1c-5.42-2.49-11.19-1.16-16.24-4.44-0.36-.21-0.72-0.42-1.07-0.66a15.82,15.82,0,0,0-1.93-.4c-3.14-.4-5.75.66-5.78,6.14,0,0.59.12,1.19,0.22,1.79,0.42,2.42,1.26,4.91,1.7,7.17q0.16,1,.29,1.89c0.15,0.58.3,1.16,0.43,1.71s0.25,1.1.33,1.62c1.45,5.1,1.37,10.09,1,14.89q-0.07.9-.15,1.79l-0.17,1.74c0.25,0.57.42,0.86,0.42,0.86"/><path class="bx" d="M52.39,5.32a10.77,10.77,0,0,0-1.7,0c-0.53.05-1,.13-1.49,0.21l-1.8.72L45.56,7c-4.71,1.92-12,4.94-17.14,7.59-0.45.27-.88,0.55-1.3,0.82a18,18,0,0,0-2.29,1.77,15.07,15.07,0,0,0-1.46,1.12,6.26,6.26,0,0,0-1.08,4.28,4.55,4.55,0,0,0,.65,1.65c5,5,10.88,9,13.57,14.38,0.38,0.54.78,1.11,1.21,1.66s0.9,1.1,1.4,1.64l1,1.31a12.39,12.39,0,0,0,1.12,2.09c0.39,0.47.78,0.95,1.18,1.45,4.92,8.65,10.08,10.79,19.16,5.13a9.22,9.22,0,0,0,1.23-1.49,10.35,10.35,0,0,0,1-1.79c1.33-3.23.24-6.28-1.15-9-0.28-.54-0.57-1.07-0.85-1.58-0.39-5.54-6.31-9.51-4.67-17.5,0.12-.62.29-1.27,0.46-2C58.89,13.16,61.21,6,53.3,5.47l-0.91-.15"/><g class="bz"><g class="ca"><path class="bx" d="M31.31,66.87c-5.35.57-11.69,1.41-14.46,1.76a16.11,16.11,0,0,1-10.29-2.5,32.35,32.35,0,0,0,1-4.3c3.36,2.29,8.4.25,10.6,0.72,0.71,0.16,1.4.32,2.1,0.52,0.47,0.09.94,0.22,1.39,0.33a25.91,25.91,0,0,0,9.66,3.47"/></g></g><g class="bz"><g class="cb"><path class="bx" d="M45.67,51.5c-5,.62-8.56-2.1-11.83-7.82-0.46-.53-0.83-1-1.25-1.45a10.81,10.81,0,0,1-1.12-2.09c-0.3-.42-0.68-0.86-1-1.28a19.28,19.28,0,0,1-1.44-1.61c-0.44-.54-0.86-1.12-1.25-1.68a21.19,21.19,0,0,0-5.1-6.29,13.83,13.83,0,0,0,1.91-3.34,0,0,0,0,0,0,0c4.56,4.3,9.51,8,11.87,12.75,0.37,0.54.78,1.09,1.2,1.65s0.93,1.12,1.43,1.65L40,43.25a13.38,13.38,0,0,0,1.14,2.07c0.37,0.48.78,1,1.19,1.46a26.34,26.34,0,0,0,3.29,4.72"/></g></g><path d="M554,126.94l0.5,1.14a0.33,0.33,0,0,0,.45.13,0.33,0.33,0,0,0,.21-0.42l-0.5-1.14Z"/></g><g class="cc"><rect class="cd" x="507.99" y="27.98" width="8.13" height="7.38" transform="translate(30.5 208.61) rotate(-23.71)"/></g><g class="ce"><rect class="cf" x="515.14" y="65.2" width="51.6" height="65.69" transform="translate(6.24 225.83) rotate(-23.71)"/></g><g class="cg"><rect class="ch" x="544.34" y="114.52" width="14.12" height="14.43" transform="translate(20.34 313.66) rotate(-32.32)"/></g><g class="ci"><rect class="cj" x="502.77" y="29" width="37.43" height="46.21" transform="translate(23.08 214.13) rotate(-23.71)"/></g><g class="c"><path class="ck" d="M544.13,104.33a1.54,1.54,0,0,1-2-.72l-0.07-.15s-0.48-1.2-.93-2.3c-0.08-.19-0.17-0.4-0.26-0.61-0.17-.4-0.53-1.26-0.74-1.71L539,96.23l-1-2.16c-0.2-.44-0.41-0.87-0.6-1.26l-0.3-.61c-0.52-1.07-.89-1.79-0.89-1.79a1.64,1.64,0,0,1,.7-2.22l0.1-.05a1.66,1.66,0,0,1,2.12.75,1.46,1.46,0,0,1,.09.2s0.28,0.77.72,1.89l0.25,0.62c0.16,0.41.33,0.84,0.53,1.3l0.92,2.19,1.14,2.6c0.2,0.45.58,1.31,0.76,1.7l0.28,0.61c0.5,1.08,1.05,2.23,1.06,2.24a1.54,1.54,0,0,1-.68,2.07l-0.08,0"/><path class="x" d="M538.85,89.22s0.27,0.76.72,1.89c0.23,0.56.49,1.22,0.78,1.93l0.92,2.19,1.14,2.6c0.3,0.7.8,1.76,1,2.32,0.51,1.1,1.07,2.25,1.07,2.25a1.13,1.13,0,0,1-2,1l0-.11s-0.47-1.19-.94-2.31c-0.24-.56-0.69-1.64-1-2.34l-1.14-2.6-1-2.16c-0.32-.69-0.64-1.33-0.89-1.87-0.53-1.09-.91-1.81-0.91-1.81a1.24,1.24,0,1,1,2.2-1.14l0.07,0.15"/></g><g class="cl"><rect class="cm" x="511.63" y="36.42" width="8.58" height="7.27" transform="translate(27.46 210.87) rotate(-23.71)"/></g><g class="c"><path class="x" d="M555.15,119c0,0.16.06,0.31,0.08,0.48l-3.33,1.71-3.51,1.29c-0.1-.13-0.21-0.25-0.3-0.38l3.62-1.33Z"/></g></g></g></g></svg>