<svg xmlns="http://www.w3.org/2000/svg" xmlns:xlink="http://www.w3.org/1999/xlink" width="600" height="600" viewBox="0 0 600 600"><defs><style>.a{fill:none;}.b{isolation:isolate;}.c{clip-path:url(#a);}.d{fill:#50291f;}.e{fill:#fff;}.f{fill:#e6e7e8;}.g{fill:#d1d3d4;}.h{fill:#f1f2f2;}.i{fill:#e28040;}.j{fill:#ba6432;}.k{fill:#9f4e24;}.l,.y{opacity:0.1;}.l,.o,.w{mix-blend-mode:multiply;}.m{clip-path:url(#d);}.n{fill:#231f20;}.o{opacity:0.2;}.p{clip-path:url(#e);}.q{clip-path:url(#f);}.r{clip-path:url(#g);}.s{clip-path:url(#h);}.t{fill:url(#i);}.u{clip-path:url(#k);}.v{clip-path:url(#l);}.w{opacity:0.25;}.x{clip-path:url(#m);}.z{clip-path:url(#n);}.aa{clip-path:url(#o);}.ab{fill:url(#p);}.ac{clip-path:url(#r);}.ad{fill:#d39276;}.ae{fill:#bcbec0;}.af{fill:#939598;}</style><clipPath id="a"><rect class="a" x="-3" width="603" height="600"/></clipPath><clipPath id="d"><rect class="a" x="459.09" y="44.33" width="128.76" height="117.13"/></clipPath><clipPath id="e"><rect class="a" x="487.56" y="66.44" width="15.85" height="28.29"/></clipPath><clipPath id="f"><rect class="a" x="526.47" y="60.34" width="15.68" height="39.19"/></clipPath><clipPath id="g"><rect class="a" x="510.76" y="204.14" width="124.79" height="114.41"/></clipPath><clipPath id="h"><path class="a" d="M537.61,285.94l-19,14.54a11.5,11.5,0,0,0-2.12,16.16,11.61,11.61,0,0,0,16.23,2.1l19-14.55a11.54,11.54,0,0,0-14.11-18.25"/></clipPath><linearGradient id="i" x1="-960.6" y1="739.75" x2="-958.18" y2="739.75" gradientTransform="matrix(-15.49, 11.92, 11.92, 15.49, -23142.36, 275.81)" gradientUnits="userSpaceOnUse"><stop offset="0" stop-color="#bcbec0"/><stop offset="0.11" stop-color="#c7c8ca"/><stop offset="0.47" stop-color="#e5e6e7"/><stop offset="0.78" stop-color="#f8f8f9"/><stop offset="1" stop-color="#fff"/></linearGradient><clipPath id="k"><rect class="a" x="528.2" y="291.86" width="10.13" height="12.47"/></clipPath><clipPath id="l"><rect class="a" x="182.06" y="435.5" width="211.21" height="202.08"/></clipPath><clipPath id="m"><rect class="a" x="192.89" y="446.3" width="191.58" height="180.03"/></clipPath><clipPath id="n"><rect class="a" x="-17.89" y="64.96" width="35.1" height="25.23"/></clipPath><clipPath id="o"><path class="a" d="M10.09,67.91L-3,73.52V92.4a9,9,0,0,0,3.08-.72L17.2,84.35a9,9,0,0,0-7.11-16.43"/></clipPath><linearGradient id="p" x1="-967.94" y1="711.95" x2="-965.53" y2="711.95" gradientTransform="matrix(-13.94, 6.01, 6.01, 13.94, -17748.45, -4038.72)" xlink:href="#i"/><clipPath id="r"><rect class="a" x="3.77" y="6.62" width="95.5" height="95.03"/></clipPath></defs><title>project</title><g class="b"><g class="c"><g class="c"><rect class="d" x="-3" width="603" height="600"/><g class="c"><path class="e" d="M604.25,152.62A83.81,83.81,0,0,1,456.11,74.19,84.11,84.11,0,0,1,569.59,39.71a83.27,83.27,0,0,1,34.66,112.91"/><path class="f" d="M602.78,151.84A82.14,82.14,0,0,1,457.58,75a82.44,82.44,0,0,1,111.22-33.8,81.62,81.62,0,0,1,34,110.67"/><path class="g" d="M562.35,130.44a36.54,36.54,0,0,1-49.29,15,36.17,36.17,0,0,1-15.05-49,36.54,36.54,0,0,1,49.29-15,36.17,36.17,0,0,1,15.05,49"/><path class="h" d="M561.61,130a35.69,35.69,0,0,1-48.15,14.63A35.46,35.46,0,1,1,561.61,130"/><path class="i" d="M509.42,109.95a1,1,0,1,1-.43-1.4,1,1,0,0,1,.43,1.4"/><path class="j" d="M516.23,109.26a1,1,0,0,1-1.41.43,1,1,0,0,1-.43-1.4,1,1,0,0,1,1.41-.43,1,1,0,0,1,.43,1.4"/><path class="k" d="M538,129.28a1,1,0,1,1-.43-1.4,1,1,0,0,1,.43,1.4"/><path class="j" d="M532.34,132.68a1,1,0,1,1-.43-1.4,1,1,0,0,1,.43,1.4"/><path class="j" d="M526.71,122.12a1,1,0,1,1-.43-1.4,1,1,0,0,1,.43,1.4"/><path class="i" d="M517,123.37a1,1,0,1,1-.43-1.4,1,1,0,0,1,.43,1.4"/><path class="j" d="M499.42,105.82a1,1,0,0,1-1.41.43,1,1,0,1,1,1.41-.43"/><path class="j" d="M472.26,108.19a1,1,0,1,1-.43-1.4,1,1,0,0,1,.43,1.4"/><path class="i" d="M478.61,124.61a1,1,0,0,1-1.41.43,1,1,0,1,1,1.41-.43"/><path class="j" d="M549.35,154.52a1,1,0,1,1-.43-1.4,1,1,0,0,1,.43,1.4"/><g class="l"><g class="m"><path class="n" d="M581.64,140.18c0.11-.69.21-1.38,0.29-2.09a97.55,97.55,0,0,1,1.44-10.26,6.06,6.06,0,0,0,.77-0.14c7-3.53,1.65-12.17,3.29-18.9,0-.88,0-1.75-0.06-2.6a8.22,8.22,0,0,1-.43-2,23.11,23.11,0,0,0,0-2.89,26.35,26.35,0,0,0-.32-2.78c-1-7.35-6.3-12.52-6.22-20,0-.52,0-1,0-1.56a19,19,0,0,0-.88-2.29l-0.06-.12c1.27-1.8,1.44-4.15-.36-7.4-0.28-.68-0.45-1.05-0.45-1.05a13.82,13.82,0,0,0-1.16-1.77c-0.41-.52-0.82-1-1.22-1.42l-2-1.41-2-1.43c-5.18-3.65-13.26-9.3-19.52-12.92-0.58-.29-1.16-0.56-1.74-0.81a23.65,23.65,0,0,0-3.4-1.22,18.48,18.48,0,0,0-2.16-.78,7.83,7.83,0,0,0-5.24,1.73,5.6,5.6,0,0,0-1.31,1.78c-0.22,1-.41,1.92-0.6,2.89h0c-7.38,1.44-13.45-2.8-20.9-2.45a27.83,27.83,0,0,0-2.81.18,24.75,24.75,0,0,0-2.86.52,8.68,8.68,0,0,1-2-.06c-0.83.12-1.7,0.27-2.57,0.42-6.36,2.82-15.86-.81-18.09,6.64a6.08,6.08,0,0,0,0,.78A99.1,99.1,0,0,1,479.1,60q-1,.32-2,0.67C471,64.43,464.7,69,461.39,74.6a16.27,16.27,0,0,0-1.25,2c-1.75,3.34-1.64,6.83,2.89,10.48a12.7,12.7,0,0,0,1.9,1.18,19.62,19.62,0,0,0,11.74,1.71c0.78,0,1.56,0,2.32-.09s1.54-.1,2.29-0.18a16.53,16.53,0,0,0,2.53-.51c0.77,0.13,1.53.23,2.31,0.31s1.54,0.15,2.32.2,1.63,0.05,2.46.06c4.2,0,8.59-.1,12.69.64A17.55,17.55,0,0,0,510.09,94a12.08,12.08,0,0,0,2.18.9,10,10,0,0,1,1.81.52c0.67,0.24,1.39.54,2.16,0.85,3.14,1.88,6.45,1.39,9.09,1.12,1.2,3.61,4.47,6.63,10.28,9.4a11.29,11.29,0,0,0,2.39.29c0.17,0,.36,0,0.53,0a8.48,8.48,0,0,0,.82,1.24c0.44,0.69.87,1.35,1.23,2a9.61,9.61,0,0,1,.83,1.68,11.91,11.91,0,0,0,1.29,2,17.55,17.55,0,0,0,4.79,5.71c1.47,3.88,2.12,8.2,2.93,12.3,0.16,0.81.33,1.61,0.51,2.39s0.39,1.49.62,2.23,0.46,1.47.72,2.2a16.26,16.26,0,0,0,0,2.57c0.07,0.75.14,1.5,0.23,2.27s0.2,1.53.34,2.29a19.38,19.38,0,0,0,3.81,11.18,13.46,13.46,0,0,0,1.5,1.65c4.43,3.77,7.9,3.25,10.88.93a15.42,15.42,0,0,0,1.73-1.6c4.89-4.24,8.33-11.21,10.9-17.87"/></g></g><path class="i" d="M509.69,100.47c-4.68-1.34-10-1-14.93-1.09-0.83,0-1.65,0-2.46-.06s-1.55-.12-2.32-0.2-1.54-.19-2.3-0.31a16.77,16.77,0,0,1-2.53.51c-0.75.07-1.51,0.13-2.29,0.18s-1.55.08-2.33,0.09a19.64,19.64,0,0,1-11.74-1.7,13.09,13.09,0,0,1-1.9-1.18c-4.53-3.64-4.64-7.14-2.88-10.47a15.68,15.68,0,0,1,1.25-2c3.31-5.55,9.58-10.17,15.69-13.9,0.65-.23,1.33-0.46,2-0.67a90.48,90.48,0,0,0,10.33-3.45l2.23,1.56,19.21,13.39-4,5.66c-0.31.46-.65,0.93-1,1.41-3.17,5-1.15,6.37,2.57,9.46,0.55,0.54.8,1.08,0.42,1.59a4.33,4.33,0,0,1-2.27,1.15l-0.8.05"/><path class="j" d="M529.5,107c-2.68.26-6.13,0.87-9.39-1.09-0.76-.31-1.49-0.61-2.16-0.85a10.08,10.08,0,0,0-1.81-.52,12.1,12.1,0,0,1-2.18-.9c-9.59-3-12.83-11.29-13.36-21.4-0.2-.57-0.4-1.14-0.59-1.7-0.29-.85-0.58-1.69-0.88-2.52-1-2.78-7.09-7-6.28-12.44,2.23-7.44,11.73-3.82,18.09-6.64,0.87-.15,1.73-0.3,2.57-0.42a8.56,8.56,0,0,0,2,.06,25.19,25.19,0,0,1,2.86-.52c0.94-.11,1.88-0.16,2.81-0.18,7.45-.34,13.52,3.89,20.9,2.46,0.51-.07,1-0.16,1.55-0.26a17.55,17.55,0,0,1,2.42.44c3.82,1,6.35,3.45,3.83,9.77-0.33.66-.7,1.32-1.1,2-1.62,2.59-3.77,5.08-5.34,7.47-0.42.68-.83,1.37-1.23,2s-0.89,1.2-1.3,1.77-0.8,1.15-1.14,1.71c-4.08,5.2-6.32,11-8.13,16.71-0.22.71-.45,1.43-0.66,2.13s-0.42,1.41-.62,2.1c-0.57.54-.89,0.79-0.89,0.79"/><path class="i" d="M550.52,127.16c2.15,4.35,2.82,9.56,3.78,14.42,0.16,0.81.33,1.61,0.51,2.39s0.4,1.49.62,2.23,0.47,1.47.73,2.2a17.48,17.48,0,0,0,0,2.57c0.07,0.75.14,1.5,0.24,2.26s0.2,1.53.33,2.29a19.36,19.36,0,0,0,3.81,11.18,13.66,13.66,0,0,0,1.51,1.64c4.43,3.77,7.9,3.25,10.88.93a15.88,15.88,0,0,0,1.73-1.59c4.89-4.24,8.32-11.21,10.9-17.87,0.11-.69.21-1.38,0.29-2.09A88,88,0,0,1,587.34,137l-1.94-1.91-16.71-16.37-4.87,4.92-1.22,1.22c-4.33,4-6.09,2.28-9.82-.8-0.64-.43-1.21-0.58-1.64-0.12a4.29,4.29,0,0,0-.73,2.43c0.05,0.49.1,0.79,0.1,0.79"/><path class="j" d="M540.45,109c0.23,2.67.25,6.15,2.77,9,0.44,0.69.87,1.35,1.23,2a9.38,9.38,0,0,1,.83,1.68,11.41,11.41,0,0,0,1.29,2c4.74,8.84,13.48,10.51,23.56,9.2l1.79,0.27,2.65,0.4c2.94,0.5,8.21,5.67,13.43,3.9,7-3.53,1.65-12.17,3.29-18.9,0-.88,0-1.75-0.06-2.6a8.37,8.37,0,0,1-.43-2,25.13,25.13,0,0,0,0-2.89c-0.07-.95-0.18-1.87-0.33-2.78-1-7.35-6.29-12.52-6.22-20,0-.52,0-1,0-1.56a18,18,0,0,0-.87-2.29c-1.68-3.56-4.56-5.59-10.36-2-0.59.44-1.17,0.92-1.74,1.43-2.27,2.05-4.33,4.6-6.42,6.58-0.6.54-1.2,1.06-1.8,1.57s-1,1.08-1.51,1.59-1,1-1.49,1.42c-4.39,4.93-9.72,8.17-15,11l-2,1-2,1a11.4,11.4,0,0,0-.62,1"/><path class="k" d="M582.5,75.74A13.54,13.54,0,0,0,581.33,74c-0.41-.52-0.82-1-1.22-1.43l-2-1.41-2-1.44c-5.18-3.66-13.27-9.3-19.52-12.92-0.58-.29-1.16-0.56-1.74-0.81a23.14,23.14,0,0,0-3.4-1.22,19.57,19.57,0,0,0-2.16-.78A7.86,7.86,0,0,0,544,55.69a5.58,5.58,0,0,0-1.3,1.78c-2,8.56-2.16,17.42-6.06,23.84-0.32.76-.64,1.55-0.94,2.38s-0.56,1.68-.79,2.56c-0.26.64-.5,1.27-0.75,1.88a15.11,15.11,0,0,0-1.44,2.57c-0.24.72-.48,1.45-0.74,2.22-5.82,10.94-4.61,17.78,7.45,23.54a11.54,11.54,0,0,0,2.4.29,13.49,13.49,0,0,0,2.53-.2c4.3-.76,6.78-3.95,8.7-7.21,0.39-.66.74-1.31,1.1-2,5.58-4.11,5.79-13,15.32-16.58,0.73-.29,1.53-0.55,2.37-0.82,6.7-2.19,15.83-4.56,11.06-13.19-0.28-.68-0.45-1.05-0.45-1.05"/><g class="o"><g class="p"><path class="k" d="M503.42,94.73c-4.19-5.23-9.33-11.33-11.57-14a20,20,0,0,1-4.28-12.47,40.25,40.25,0,0,0,5.21-1.82c-0.16,5.05,5.37,9,6.36,11.6,0.31,0.85.6,1.68,0.86,2.55,0.23,0.56.4,1.14,0.59,1.68a32,32,0,0,0,2.83,12.46"/></g></g><g class="o"><g class="q"><path class="k" d="M529.27,99.54c-4-4.86-3.53-10.39.31-17.64,0.24-.84.5-1.55,0.69-2.29A13.23,13.23,0,0,1,531.73,77c0.23-.6.45-1.29,0.68-1.89a25.06,25.06,0,0,1,.74-2.58c0.27-.82.6-1.65,0.94-2.44a26.22,26.22,0,0,0,3.21-9.55,17.26,17.26,0,0,0,4.81-.23,0,0,0,0,0,0,0c-1.47,7.66-2,15.3-5.48,21-0.32.75-.63,1.55-0.94,2.36s-0.56,1.72-.78,2.6l-0.75,1.85a16.44,16.44,0,0,0-1.42,2.58c-0.25.71-.5,1.47-0.74,2.22a33,33,0,0,0-2.77,6.61"/></g></g><g class="l"><g class="r"><path class="n" d="M563.89,205.92a57,57,0,0,0-37.32,80.84l-11.28,8.63a11.48,11.48,0,0,0-2.12,16.16,11.61,11.61,0,0,0,16.23,2.1l11.45-8.76a57.32,57.32,0,1,0,23-99"/></g></g></g><g class="s"><polygon class="t" points="576.71 308.1 529.37 344.34 493.61 298.08 540.95 261.84 576.71 308.1"/></g><g class="c"><path class="e" d="M637.08,252.35A57.47,57.47,0,1,1,567.2,211a57.19,57.19,0,0,1,69.88,41.35"/><path class="g" d="M625.73,255.22a45.76,45.76,0,1,1-55.64-32.93,45.53,45.53,0,0,1,55.64,32.93"/><path class="i" d="M623,255.91A42.94,42.94,0,1,1,570.78,225,42.72,42.72,0,0,1,623,255.91"/><g class="l"><g class="u"><path class="n" d="M538.33,304.33a56.37,56.37,0,0,1-10.13-11.16l1.68-1.31a55.64,55.64,0,0,0,8.45,12.47"/></g></g><path class="e" d="M452.68,547.33c0,84.71-69,153.41-154.18,153.41S144.32,632,144.32,547.33s69-153.41,154.18-153.41S452.68,462.6,452.68,547.33"/><path class="f" d="M449.62,547.33c0,83-67.65,150.36-151.12,150.36S147.38,630.36,147.38,547.33,215,397,298.5,397s151.12,67.34,151.12,150.37"/><path class="g" d="M365.47,547.33a67,67,0,1,1-67-66.64,66.81,66.81,0,0,1,67,66.64"/><path class="h" d="M363.92,547.33a65.41,65.41,0,1,1-65.41-65.09,65.25,65.25,0,0,1,65.41,65.09"/><g class="l"><g class="v"><path class="n" d="M391.24,534.51c5.55,10.64-1.47,18.6-6.84,27.81a41.71,41.71,0,0,0-3.5,7.17,54.37,54.37,0,0,1-1.5,11.29,46.53,46.53,0,0,1-3.55,9.67c-16.22,29.56-46.16,49.41-89.4,46.92a74.69,74.69,0,0,1-8.39-1.31c-16.68-3.53-32.31-12.22-47.87-18.9a67.43,67.43,0,0,1-9.59-5.69,63.75,63.75,0,0,1-13.53-13.25,76,76,0,0,1-5.27-7.92c-10.67-26.91-27.89-53.73-15.36-84.4a70.6,70.6,0,0,1,5.33-10.42,109.07,109.07,0,0,1,22.07-29.35c1.73-1.6,3.51-3.13,5.35-4.6,30.65-30.25,60.59-30.25,98.48-19.52,2.88,0.11,5.66.26,8.28,0.37,2.19,0.53,4.34,1.16,6.47,1.88a56.42,56.42,0,0,1,23.42,15.3,37.16,37.16,0,0,1,7.88,5.28c4.94,4.29,9.18,10.26,12.52,18.74,2.09,2.68,4.16,5.33,6.1,8,7.72,10.61,13.18,21.93,9.11,34.63,0,2.82,0,5.57-.21,8.31"/></g></g><path class="j" d="M402.08,545.3c5.55,10.65-1.47,18.6-6.83,27.8a41.38,41.38,0,0,0-3.5,7.18,54.14,54.14,0,0,1-1.5,11.28,47.23,47.23,0,0,1-3.55,9.67c-16.22,29.56-46.16,49.42-89.4,46.92a74,74,0,0,1-8.39-1.31c-16.68-3.53-32.32-12.21-47.87-18.9a67.41,67.41,0,0,1-9.59-5.69A63.7,63.7,0,0,1,217.92,609a76.64,76.64,0,0,1-5.27-7.93c-10.68-26.9-27.9-53.73-15.36-84.4a71.67,71.67,0,0,1,5.33-10.42,109.05,109.05,0,0,1,22.07-29.34q2.59-2.41,5.35-4.6c30.65-30.25,60.59-30.25,98.49-19.51,2.89,0.11,5.65.26,8.28,0.36,2.18,0.53,4.34,1.16,6.47,1.89a56.41,56.41,0,0,1,23.42,15.3,37.12,37.12,0,0,1,7.87,5.28c4.94,4.29,9.19,10.26,12.52,18.74,2.09,2.68,4.16,5.33,6.1,8,7.72,10.61,13.17,21.93,9.11,34.63,0.05,2.82,0,5.56-.21,8.31"/><path class="i" d="M394.3,558c3.64,10.39-3.79,16.72-9.87,24.34a37.42,37.42,0,0,0-4.13,6.08,50.81,50.81,0,0,1-2.84,10,43,43,0,0,1-4.51,8.35c-18.63,24.72-48.44,38.84-87.4,30.92a69.11,69.11,0,0,1-7.46-2.3c-14.66-5.39-27.71-15.31-41-23.44a61.85,61.85,0,0,1-8-6.43,59.46,59.46,0,0,1-10.54-13.77,71,71,0,0,1-3.71-7.9c-6.15-25.83-18.25-52.45-2.81-78.66a63.7,63.7,0,0,1,6.22-8.78,100.69,100.69,0,0,1,23.9-23.77c1.81-1.22,3.62-2.39,5.49-3.47,31.84-23.46,59-19.54,92-4.82,2.62,0.46,5.12,1,7.46,1.39,1.93,0.79,3.8,1.62,5.64,2.57a51.37,51.37,0,0,1,19.24,17,35.18,35.18,0,0,1,6.45,5.83c3.93,4.55,7,10.54,8.88,18.65,1.57,2.72,3.1,5.4,4.51,8.06,5.59,10.66,9.06,21.66,3.7,32.67q-0.5,3.81-1.3,7.5"/><g class="w"><g class="x"><path class="k" d="M384.47,488.72a55.73,55.73,0,0,0-15.73-8.33,66.61,66.61,0,0,0-6.5-1.95c-2.66-.07-5.39-0.24-8.29-0.31-37.88-10.75-67.85-10.75-98.45,19.46-1.88,1.48-3.68,3-5.4,4.6A111.22,111.22,0,0,0,228,531.56,73.46,73.46,0,0,0,222.71,542c-12.52,30.67,4.7,57.38,15.27,84.34a60,60,0,0,1-6.5-4.06A63.67,63.67,0,0,1,217.94,609a89.21,89.21,0,0,1-5.33-7.94c-10.64-26.94-27.86-53.73-15.34-84.41a73.14,73.14,0,0,1,5.33-10.44,111.37,111.37,0,0,1,22.06-29.35c1.72-1.56,3.52-3.12,5.4-4.59,30.6-30.21,60.57-30.21,98.46-19.47,2.9,0.07,5.63.24,8.29,0.31a65.47,65.47,0,0,1,6.5,1.94,56,56,0,0,1,23.4,15.26,36.58,36.58,0,0,1,7.83,5.29,41.88,41.88,0,0,1,9.93,13.08"/></g></g><path class="d" d="M332.67,493.86c-0.16.43-.31,0.82-0.45,1.18-2,1.82,1.53,8.77-5.72,8.9a9.42,9.42,0,0,1-1.19.08,12.5,12.5,0,0,1-2.6-.25l-0.88-.25a27.82,27.82,0,0,1-4.78-2.76,9.1,9.1,0,0,1-.93-0.73,7.31,7.31,0,0,1-1.23-1.62,8.7,8.7,0,0,1-.44-0.9c-0.71-3-2.12-6.14-.33-9.18a7.43,7.43,0,0,1,.73-1,11.37,11.37,0,0,1,2.8-2.76,5.85,5.85,0,0,1,.63-0.41,9.9,9.9,0,0,1,3.75-1.79c0.32-.06.61-0.1,0.92-0.13,3.82,0.76,7.29,1.92,9.21,5.57l0.23,0.67c0.07,0.23.15,0.47,0.23,0.71s0,0.63-.08,1a5.13,5.13,0,0,0,.39,2.8,5,5,0,0,1-.27.93"/><path class="d" d="M342.7,537.32c-1.12-.21-2.29-0.21-3.12-0.94-0.28-.19-0.54-0.4-0.79-0.59-1-.86-1.87-1.89-3-2.78-0.22-.28-0.42-0.56-0.62-0.87a20,20,0,0,1-1.09-1.95,6.48,6.48,0,0,1-.3-1,6.11,6.11,0,0,1,.52-3.63,7.6,7.6,0,0,1,.76-0.9,11.11,11.11,0,0,1,4.73-2.6c0.34,0,.64,0,0.94,0l0.77,0c0.39,0,.79,0,1.17-0.08a21,21,0,0,0,4.25-.7c0.35-.07.73-0.13,1.09-0.2,4.07-.06,6.4,1.1,6.88,4.9a5.1,5.1,0,0,1-.05,1,14.69,14.69,0,0,1-1.33,4.35c-0.06.32-.11,0.59-0.16,0.88a5.19,5.19,0,0,1-.3.64,38.43,38.43,0,0,1-6.59,4.54,7.24,7.24,0,0,1-.95.28,4.64,4.64,0,0,1-2-.08c-0.28,0-.54-0.12-0.82-0.18"/><path class="d" d="M266.85,543.24a5.78,5.78,0,0,0-.39.95,11.17,11.17,0,0,0-.31,1.4,5.14,5.14,0,0,1-.43.9,7.19,7.19,0,0,1-.61.91,22.17,22.17,0,0,1-2.78,2.94,5.89,5.89,0,0,1-.83.7,5.32,5.32,0,0,1-5.42.54,7.08,7.08,0,0,1-1.07-.36,6.88,6.88,0,0,1-3.56-3.44c-0.08-.21-0.17-0.45-0.24-0.7s0-.69,0-1c0.07-.72.12-1.45,0.14-2.21a11.32,11.32,0,0,0-.12-1.26c1.19-3.11-2.3-6.59.83-10,0.16-.17.3-0.36,0.46-0.54s0.32-.37.48-0.57a9.48,9.48,0,0,1,1-.22,10.38,10.38,0,0,1,5.32.84c0.38,0.14.76,0.31,1.13,0.46a15.31,15.31,0,0,1,6,5.64,5,5,0,0,1,.48.94,4.11,4.11,0,0,1-.18,3.26,7,7,0,0,1,0,.85"/><path class="d" d="M286.29,507a12.16,12.16,0,0,1-2.58,4.8,11.86,11.86,0,0,1-.89.89c-1.61,1.72-3.95,1.72-6.58,2.67l-1-.3-1-.33c-0.33-.11-0.67-0.23-1-0.37-2.56,0-3.73-3.44-6-3.85a11.8,11.8,0,0,1-1-1,9.87,9.87,0,0,1-.53-1.16,10.55,10.55,0,0,1-1.32-3.8,8.86,8.86,0,0,1-.12-1.31c-0.54-7.42,6.5-11,12.92-9.28a10.89,10.89,0,0,1,1.35.47,8,8,0,0,1,7.39,5.93,11.68,11.68,0,0,1,.3,1.2,4.75,4.75,0,0,1,.15,4.1c0,0.45-.11.87-0.2,1.36"/><path class="d" d="M286.24,467.91c0.27,0.12.51,0.21,0.74,0.29,1.12,1.22,5.46-.94,5.55,3.55,0,0.24.06,0.48,0.06,0.72a7,7,0,0,1-.16,1.61c-0.06.19-.12,0.37-0.15,0.54a22.14,22.14,0,0,1-1.72,2.95,6,6,0,0,1-.48.58,4.14,4.14,0,0,1-1,.76l-0.57.28c-1.89.44-3.84,1.31-5.75,0.2a6.59,6.59,0,0,1-.61-0.45,7,7,0,0,1-1.73-1.73c-0.09-.13-0.19-0.26-0.26-0.39a6.08,6.08,0,0,1-1.1-2.33,3.13,3.13,0,0,1-.09-0.56c0.48-2.35,1.2-4.51,3.48-5.7l0.44-.14a3.76,3.76,0,0,1,.43-0.13l0.59,0a3.1,3.1,0,0,0,1.76-.23,3.16,3.16,0,0,1,.58.16"/><path class="d" d="M244.54,506.68a3.66,3.66,0,0,1-.59,1.93,3.55,3.55,0,0,1-.36.48c-0.52.62-1.19,1.16-1.74,1.88l-0.55.37a10.21,10.21,0,0,1-1.22.69,2.27,2.27,0,0,1-.63.18,3.72,3.72,0,0,1-2.27-.31,7.21,7.21,0,0,1-.56-0.48,6.57,6.57,0,0,1-1.62-2.94c0-.19,0-0.38,0-0.58a3.6,3.6,0,0,0,0-.46c0-.24,0-0.49-0.06-0.74a11.11,11.11,0,0,0-.44-2.6c0-.22-0.07-0.46-0.11-0.69-0.06-2.51.68-4,3.07-4.26a3.5,3.5,0,0,1,.64,0,8.91,8.91,0,0,1,2.72.82l0.52,0.09a2.3,2.3,0,0,1,.41.18,24.06,24.06,0,0,1,2.83,4.08,2.13,2.13,0,0,1,.16.59,2.16,2.16,0,0,1,0,1.2,2,2,0,0,1-.11.5"/><path class="d" d="M303.24,515.05a2.73,2.73,0,0,0,.59.25l0.9,0.2a3.18,3.18,0,0,1,.55.26,3.58,3.58,0,0,1,.56.37,12.86,12.86,0,0,1,1.83,1.71,3,3,0,0,1,.44.52,3.25,3.25,0,0,1,.35,3.35,3.69,3.69,0,0,1-.23.67,4.3,4.3,0,0,1-2.15,2.19,4.24,4.24,0,0,1-.45.16l-0.65,0a13.15,13.15,0,0,0-1.37-.09,4.4,4.4,0,0,0-.8.07c-1.94-.75-4.09,1.41-6.25-0.5l-0.34-.3a4.32,4.32,0,0,1-.34-0.3,4.14,4.14,0,0,1-.14-0.63,6.54,6.54,0,0,1,.52-3.32c0.09-.2.18-0.44,0.29-0.67a9.62,9.62,0,0,1,3.53-3.74,2.33,2.33,0,0,1,.6-0.29,2.52,2.52,0,0,1,2,.1c0.17,0,.35,0,0.52,0"/><path class="d" d="M361.34,493.54a7.43,7.43,0,0,1,3,1.61c0.19,0.18.4,0.36,0.56,0.55,1.07,1,1.07,2.42,1.67,4.05-0.05.21-.12,0.41-0.18,0.61s-0.14.39-.22,0.6a5,5,0,0,1-.23.6c0,1.6-2.14,2.31-2.4,3.7-0.2.21-.41,0.4-0.64,0.61a18.13,18.13,0,0,1-3.1,1.14,7.08,7.08,0,0,1-.82.07c-4.66.34-6.89-4-5.79-8a7.33,7.33,0,0,1,.27-0.82,5,5,0,0,1,3.71-4.57c0.24-.08.49-0.13,0.74-0.19a3.06,3.06,0,0,1,2.56-.09l0.85,0.12"/><path class="d" d="M259.33,607.89c0.16-.43.32-0.82,0.45-1.18,2-1.82-1.52-8.76,5.74-8.91a10.39,10.39,0,0,1,1.17-.07,12.61,12.61,0,0,1,2.6.25l0.88,0.26a28.71,28.71,0,0,1,4.78,2.74,9.94,9.94,0,0,1,.92.74,7.48,7.48,0,0,1,1.23,1.62,8,8,0,0,1,.44.9c0.72,3,2.13,6.14.33,9.19a7.68,7.68,0,0,1-.74,1,11.24,11.24,0,0,1-2.79,2.76,5.34,5.34,0,0,1-.64.41,9.45,9.45,0,0,1-3.74,1.79,8.91,8.91,0,0,1-.91.13c-3.82-.76-7.29-1.91-9.21-5.58-0.08-.21-0.15-0.43-0.23-0.67s-0.15-.47-0.22-0.71a9.26,9.26,0,0,1,.08-1,5.15,5.15,0,0,0-.4-2.8,5.47,5.47,0,0,1,.27-0.94"/><path class="d" d="M291.25,542a4.48,4.48,0,0,1,2.27.72c0.2,0.12.39,0.27,0.57,0.41,0.73,0.64,1.36,1.38,2.2,2l0.45,0.64c0.28,0.44.55,0.93,0.8,1.42a3.57,3.57,0,0,1,.22.74,4.47,4.47,0,0,1-.38,2.66,5.92,5.92,0,0,1-.57.65,7.86,7.86,0,0,1-3.45,1.88l-0.68.05-0.57,0-0.85.06a15.87,15.87,0,0,0-3.1.51c-0.27.06-.53,0.1-0.8,0.15-3,0-4.66-.8-5-3.58a3.14,3.14,0,0,1,0-.75,11,11,0,0,1,1-3.17c0.05-.24.09-0.44,0.12-0.65s0.14-.32.22-0.47a27.45,27.45,0,0,1,4.82-3.3,2.78,2.78,0,0,1,.68-0.2,3.14,3.14,0,0,1,1.44,0l0.6,0.12"/><path class="d" d="M313.36,556.89a4.85,4.85,0,0,0,.39-0.94,10.75,10.75,0,0,0,.31-1.41,5.19,5.19,0,0,1,.43-0.91c0.19-.31.39-0.62,0.61-0.91a22.21,22.21,0,0,1,2.77-2.94,5.88,5.88,0,0,1,.83-0.7,5.33,5.33,0,0,1,5.42-.55,11.16,11.16,0,0,1,1.08.36,6.91,6.91,0,0,1,3.55,3.44c0.08,0.21.17,0.46,0.24,0.7a9.8,9.8,0,0,1-.05,1.05c-0.06.71-.11,1.44-0.12,2.19a11,11,0,0,0,.12,1.28c-1.2,3.1,2.29,6.58-.83,10-0.16.17-.3,0.36-0.47,0.53s-0.32.38-.48,0.56a5,5,0,0,1-1,.22,10.07,10.07,0,0,1-5.32-.84c-0.37-.12-0.75-0.3-1.13-0.45a15.38,15.38,0,0,1-6-5.65,4.2,4.2,0,0,1-.29-4.21,8.16,8.16,0,0,1,0-.85"/><path class="d" d="M331.36,599.42a11.94,11.94,0,0,1,2.58-4.82c0.29-.32.59-0.61,0.88-0.87,1.61-1.73,3.94-1.73,6.59-2.69,0.32,0.09.64,0.18,1,.3s0.65,0.2,1,.33,0.68,0.23,1,.36c2.55,0,3.73,3.44,6,3.83a14.09,14.09,0,0,1,1,1.06,11.67,11.67,0,0,1,.53,1.15,10.71,10.71,0,0,1,1.31,3.8,7.46,7.46,0,0,1,.12,1.32c0.55,7.42-6.5,11-12.91,9.27-0.46-.13-0.9-0.28-1.35-0.45a8,8,0,0,1-7.38-5.95c-0.11-.4-0.22-0.79-0.3-1.2a4.77,4.77,0,0,1-.15-4.1c0.05-.45.11-0.88,0.21-1.35"/><path class="d" d="M310.51,607.41c-0.27-.12-0.51-0.21-0.74-0.29-1.12-1.21-5.46.94-5.55-3.54,0-.24-0.06-0.49-0.06-0.73a6.69,6.69,0,0,1,.17-1.61c0-.18.1-0.36,0.14-0.54a22.86,22.86,0,0,1,1.72-2.93,5.75,5.75,0,0,1,.47-0.58,4,4,0,0,1,1-.76c0.18-.1.38-0.18,0.57-0.27,1.88-.43,3.83-1.31,5.74-0.2,0.21,0.12.42,0.29,0.62,0.43a7.44,7.44,0,0,1,1.74,1.74,2.63,2.63,0,0,1,.25.39,5.76,5.76,0,0,1,1.11,2.33,2.73,2.73,0,0,1,.09.57c-0.48,2.34-1.2,4.5-3.48,5.69-0.14.06-.27,0.09-0.43,0.14l-0.44.14a5.26,5.26,0,0,1-.6,0,3,3,0,0,0-1.75.22,3.93,3.93,0,0,1-.58-0.15"/><path class="d" d="M356.93,567.69a3.81,3.81,0,0,1,.59-1.94c0.11-.16.24-0.31,0.37-0.48,0.52-.62,1.19-1.15,1.73-1.87l0.54-.39c0.39-.23.79-0.46,1.22-0.67a2.79,2.79,0,0,1,.63-0.19,3.73,3.73,0,0,1,2.27.32,4.52,4.52,0,0,1,.55.46,6.71,6.71,0,0,1,1.63,2.93c0,0.2,0,.4,0,0.57s0,0.35,0,.48,0,0.5.05,0.73a12.82,12.82,0,0,0,.45,2.62l0.12,0.68c0.06,2.5-.68,3.94-3.06,4.26a2.85,2.85,0,0,1-.65,0,9.05,9.05,0,0,1-2.71-.83c-0.19,0-.37-0.07-0.53-0.1l-0.41-.18A23.71,23.71,0,0,1,357,570a1.75,1.75,0,0,1-.18-0.6,2.25,2.25,0,0,1,0-1.2,2.22,2.22,0,0,1,.11-0.51"/><path class="d" d="M258.51,580.72a2.58,2.58,0,0,0-.59-0.24,8.19,8.19,0,0,0-.89-0.2,3.4,3.4,0,0,1-.56-0.26,5.24,5.24,0,0,1-.56-0.38,13.38,13.38,0,0,1-1.83-1.71,3.62,3.62,0,0,1-.79-3.88,4,4,0,0,1,.24-0.66,4.3,4.3,0,0,1,2.14-2.2c0.15,0,.29-0.11.46-0.15s0.43,0,.64,0c0.43,0,.89.07,1.37,0.07a4.92,4.92,0,0,0,.8-0.07c1.93,0.74,4.11-1.42,6.25.51,0.11,0.1.22,0.18,0.35,0.3a2.77,2.77,0,0,1,.33.29,3.62,3.62,0,0,1,.14.64,6.28,6.28,0,0,1-.52,3.3c-0.09.23-.18,0.46-0.29,0.7a9.45,9.45,0,0,1-3.52,3.72,2.28,2.28,0,0,1-.59.28,2.5,2.5,0,0,1-2-.09,4.3,4.3,0,0,1-.52,0"/><path class="d" d="M225.06,565.24a7.57,7.57,0,0,1-3-1.59c-0.19-.2-0.39-0.37-0.55-0.57-1.09-1-1.09-2.42-1.68-4.05,0.05-.2.11-0.41,0.18-0.61s0.14-.39.21-0.6a5.25,5.25,0,0,1,.24-0.61c0-1.59,2.13-2.3,2.39-3.7a8.17,8.17,0,0,1,.64-0.6c0.25-.12.48-0.23,0.72-0.33a7.64,7.64,0,0,1,2.38-.82,7.76,7.76,0,0,1,.82-0.06c4.65-.34,6.89,4,5.79,8a8.3,8.3,0,0,1-.27.83,5,5,0,0,1-3.72,4.57l-0.74.19a3.07,3.07,0,0,1-2.56.1c-0.29,0-.56-0.08-0.85-0.13"/><path class="i" d="M187.62,511l-0.16.44c-0.73.66,0.56,3.24-2.12,3.29a3.58,3.58,0,0,1-.44,0,5.67,5.67,0,0,1-1-.09l-0.32-.1a10.8,10.8,0,0,1-1.76-1,1.33,1.33,0,0,1-.34-0.27,2.61,2.61,0,0,1-.46-0.6l-0.16-.33c-0.27-1.13-.79-2.27-0.12-3.39,0.08-.13.17-0.26,0.27-0.4a4.27,4.27,0,0,1,1-1,1.31,1.31,0,0,1,.23-0.15,3.46,3.46,0,0,1,1.38-.66,1.28,1.28,0,0,1,.34,0,4.36,4.36,0,0,1,3.4,2.05l0.08,0.24c0,0.09.05,0.19,0.08,0.26a2.51,2.51,0,0,1,0,.36,2,2,0,0,0,.14,1,1.85,1.85,0,0,1-.1.36"/><path class="i" d="M405.71,576.67a2.08,2.08,0,0,1-1.07-.33,2.31,2.31,0,0,1-.28-0.2c-0.33-.29-0.65-0.66-1-0.94-0.08-.1-0.14-0.2-0.22-0.31s-0.25-.43-0.37-0.67a2,2,0,0,1-.1-0.36,2,2,0,0,1,.17-1.22,2.24,2.24,0,0,1,.27-0.31,3.83,3.83,0,0,1,1.61-.89h0.59l0.4,0a6.48,6.48,0,0,0,1.45-.24,2.55,2.55,0,0,0,.38-0.07c1.39,0,2.18.38,2.36,1.68a1.26,1.26,0,0,1,0,.35,5.27,5.27,0,0,1-.45,1.49,3.06,3.06,0,0,1-.06.3l-0.09.22a12.76,12.76,0,0,1-2.26,1.56l-0.32.08a1.48,1.48,0,0,1-.67,0l-0.28-.06"/><path class="j" d="M403.08,582.16a0.92,0.92,0,0,0,.25.09c0.38,0.43,1.88-.32,1.91,1.21,0,0.08,0,.17,0,0.26a3.09,3.09,0,0,1-.06.55,1.15,1.15,0,0,0-.06.18,6.54,6.54,0,0,1-.59,1l-0.15.21a2,2,0,0,1-.34.26l-0.2.08a2.54,2.54,0,0,1-2,.08,1.59,1.59,0,0,1-.22-0.15,2.18,2.18,0,0,1-.59-0.6l-0.09-.13a2,2,0,0,1-.38-0.8c0-.06,0-0.12,0-0.2a2.58,2.58,0,0,1,1.19-1.95l0.15,0,0.15,0a1.09,1.09,0,0,1,.2,0,1,1,0,0,0,.6-0.09,0.8,0.8,0,0,1,.2.06"/><path class="j" d="M177.3,541a0.92,0.92,0,0,0,.21.1c0.08,0,.15.05,0.34,0.09a1.36,1.36,0,0,1,.2.08l0.21,0.14a6.08,6.08,0,0,1,.68.64,0.92,0.92,0,0,1,.16.18,1.21,1.21,0,0,1,.13,1.25,1.07,1.07,0,0,1-.09.24,1.55,1.55,0,0,1-.8.81l-0.11.05a1.53,1.53,0,0,1-.29,0,2.83,2.83,0,0,0-.51,0,1.32,1.32,0,0,0-.29,0c-0.71-.28-1.52.53-2.32-0.19l-0.12-.11-0.13-.12a1.32,1.32,0,0,1-.05-0.23,2.4,2.4,0,0,1,.19-1.23,2.23,2.23,0,0,1,.11-0.25,3.58,3.58,0,0,1,1.31-1.38,0.59,0.59,0,0,1,.21-0.1,0.91,0.91,0,0,1,.75,0h0.19Z"/><path class="j" d="M183.49,550.63a2.92,2.92,0,0,1,1.1.6,2.83,2.83,0,0,1,.2.22,3.24,3.24,0,0,1,.62,1.49,2.3,2.3,0,0,0-.06.24l-0.08.2a1.88,1.88,0,0,1-.09.23c0,0.59-.79.85-0.89,1.37a1.79,1.79,0,0,1-.24.23,1.38,1.38,0,0,1-.26.12,2.81,2.81,0,0,1-.89.31h-0.31a2.17,2.17,0,0,1-2.14-2.94c0-.11.06-0.22,0.1-0.31A1.83,1.83,0,0,1,182,550.7a2,2,0,0,1,.27-0.07,1.06,1.06,0,0,1,.94,0l0.33,0"/><path class="i" d="M186.06,570.27a1.82,1.82,0,0,1,.84.27,1.33,1.33,0,0,1,.21.15c0.27,0.24.5,0.52,0.81,0.76l0.18,0.23c0.1,0.17.21,0.36,0.3,0.52a1.18,1.18,0,0,1,.07.28,1.6,1.6,0,0,1-.13,1,1.39,1.39,0,0,1-.21.24,2.78,2.78,0,0,1-1.27.7h-0.4l-0.38,0a6.24,6.24,0,0,0-1.14.19l-0.3.05c-1.09,0-1.72-.3-1.85-1.32a2.66,2.66,0,0,1,0-.28,4.62,4.62,0,0,1,.36-1.18,1.45,1.45,0,0,1,0-.17,0.84,0.84,0,0,1,.09-0.24,9.46,9.46,0,0,1,1.78-1.23,1,1,0,0,1,.25-0.07,1.27,1.27,0,0,1,.53,0l0.22,0"/><path class="j" d="M412.43,549.66l-0.25-.09c-0.38-.43-1.86.32-1.9-1.21,0-.08,0-0.17,0-0.25a2.27,2.27,0,0,1,.06-0.55c0-.07,0-0.13,0-0.19a7.67,7.67,0,0,1,.6-1,1.53,1.53,0,0,1,.16-0.21,1.5,1.5,0,0,1,.34-0.26l0.19-.08a2.5,2.5,0,0,1,2-.07,2,2,0,0,1,.21.15,2.58,2.58,0,0,1,.6.59,1.34,1.34,0,0,1,.08.13,2,2,0,0,1,.38.8,0.36,0.36,0,0,1,0,.12,2.53,2.53,0,0,1-1.18,2,0.2,0.2,0,0,1-.1,0l-0.21.07-0.2,0a1.05,1.05,0,0,0-.6.08,1.27,1.27,0,0,1-.2-0.06"/><path class="i" d="M190.66,504a1.55,1.55,0,0,1,.22-0.72,0.79,0.79,0,0,1,.14-0.18c0.19-.22.43-0.44,0.63-0.69l0.21-.14a3.69,3.69,0,0,1,.45-0.25,0.71,0.71,0,0,1,.24-0.07,1.3,1.3,0,0,1,.84.12,2.22,2.22,0,0,1,.21.17,2.39,2.39,0,0,1,.6,1.08v0.21a0.84,0.84,0,0,1,0,.12c0,0.16,0,.24,0,0.34a4.62,4.62,0,0,0,.16,1c0,0.08,0,.15,0,0.26a1.27,1.27,0,0,1-1.13,1.57h-0.24a3.08,3.08,0,0,1-1-.31l-0.14,0a1,1,0,0,1-.21-0.06,9.35,9.35,0,0,1-1-1.52,0.62,0.62,0,0,1-.06-0.22,0.93,0.93,0,0,1,0-.44,0.88,0.88,0,0,1,0-.2"/><path class="e" d="M146.12,58.59c0,49.53-40.35,89.68-90.13,89.68s-90.13-40.16-90.13-89.68S6.21-31.1,56-31.1s90.13,40.16,90.13,89.68"/><path class="f" d="M144.34,58.59c0,48.55-39.55,87.91-88.34,87.91s-88.35-39.36-88.35-87.91S7.2-29.32,56-29.32,144.34,10,144.34,58.59"/><g class="y"><g class="z"><path d="M-17.15,84.78A8.93,8.93,0,0,1-12.45,73L4.66,65.69a9,9,0,1,1,7.12,16.43L-5.34,89.46a9,9,0,0,1-11.81-4.68"/></g></g></g><g class="aa"><polygon class="ab" points="33.07 88.45 1.2 102.11 -12.21 71.13 19.66 57.47 33.07 88.45"/></g><g class="c"><g class="y"><g class="ac"><path d="M99.27,54.14A47.75,47.75,0,1,1,51.52,6.62,47.64,47.64,0,0,1,99.27,54.14"/></g></g><path class="e" d="M103.75,58.59A47.75,47.75,0,1,1,56,11.07a47.64,47.64,0,0,1,47.75,47.51"/><path class="g" d="M98.63,58.59A42.64,42.64,0,1,1,56,16.16,42.54,42.54,0,0,1,98.63,58.59"/><path class="d" d="M96.61,58.59A40.61,40.61,0,1,1,56,18.18,40.52,40.52,0,0,1,96.61,58.59"/><path class="ad" d="M56,18.17a40.52,40.52,0,0,0-40.6,40.4c0,1.18,0,2.4.15,3.54,0,0.61.12,1.18,0.19,1.75a35.08,35.08,0,0,0,.65,3.63c0.23,1.06.54,2.09,0.84,3.12A40.87,40.87,0,0,0,24.68,84.3c0.61,0.72,1.26,1.44,1.92,2.13S28,87.8,28.71,88.49a2.55,2.55,0,0,1,.34.3,42,42,0,0,0,5.32,4,41.55,41.55,0,0,0,12.57,5.19v0a1.9,1.9,0,0,0,.42.07c0.88,0.19,1.8.34,2.68,0.45,0.54,0.08,1.08.19,1.65,0.27a37.2,37.2,0,0,0,4.25.23h0.19c0.27,0,.46,0,0.69,0,1.22,0,2.45-.12,3.63-0.23a10.34,10.34,0,0,0,1.11-.19,34.13,34.13,0,0,0,3.41-.6h0.16A40.66,40.66,0,0,0,87.92,83.46a0.73,0.73,0,0,0,.19-0.16,32.94,32.94,0,0,0,2.6-3.77,0.09,0.09,0,0,0,0-.08,0.41,0.41,0,0,0,.07-0.18,41,41,0,0,0,3.45-7.2,47.18,47.18,0,0,0,1.46-5.22s0-.08,0-0.12a25.81,25.81,0,0,0,.46-2.59,43.26,43.26,0,0,0,.38-5.52v0A40.53,40.53,0,0,0,56,18.17M75.2,25.75a1.12,1.12,0,0,1,1.11,1.11,1.08,1.08,0,0,1-1.11,1.07,1,1,0,0,1-1.07-1.07,1.08,1.08,0,0,1,1.07-1.11m-6.55-2.93a1.53,1.53,0,1,1,0,3.05,1.53,1.53,0,0,1,0-3.05m-6.25-1.26a1.11,1.11,0,0,1,1.11,1.11,1.11,1.11,0,0,1-2.22,0,1.11,1.11,0,0,1,1.11-1.11m-35.73,29a1.11,1.11,0,0,1-1.11,1.11,1.08,1.08,0,0,1-1.08-1.11,1.07,1.07,0,0,1,1.08-1.06,1.09,1.09,0,0,1,1.11,1.06m-5.13,8.09a1.11,1.11,0,0,1-1.11-1.11,1.11,1.11,0,0,1,2.22,0,1.12,1.12,0,0,1-1.12,1.11M20.7,53.76a2.24,2.24,0,0,1-2.26-2.25,2.27,2.27,0,0,1,2.26-2.29A2.3,2.3,0,0,1,23,51.52a2.27,2.27,0,0,1-2.3,2.25m1.53-7.24A1.53,1.53,0,1,1,23.76,48a1.53,1.53,0,0,1-1.54-1.52M83,82.23a1.11,1.11,0,0,1-1.12-1.1,1.11,1.11,0,0,1,2.22,0A1.1,1.1,0,0,1,83,82.23m-0.2-4a1.5,1.5,0,0,1-1.53-1.49,1.53,1.53,0,0,1,3.06,0,1.5,1.5,0,0,1-1.53,1.49m2.91,1.82a1.05,1.05,0,0,1-1-1.06,1,1,0,0,1,1-1,1.06,1.06,0,0,1,1.07,1,1.08,1.08,0,0,1-1.07,1.06m3.49-13.49c-0.2,0-.35-0.07-0.54-0.07a4.9,4.9,0,0,0-4.71,3.62c-0.12,0-.19,0-0.27,0a7.42,7.42,0,0,0-7.44,7.39A7.72,7.72,0,0,0,76.69,80a4.85,4.85,0,0,0-4.25,4.8,4.78,4.78,0,0,0,1.07,3,34.59,34.59,0,0,1-9.19,3.81A9.21,9.21,0,0,0,56,86.42a9.39,9.39,0,0,0-8.31,5.11A34.11,34.11,0,0,1,24.18,71a5.71,5.71,0,0,0,4-5.41,5.57,5.57,0,0,0-.85-2.94,7.91,7.91,0,0,0,5.63-7.54,7.73,7.73,0,0,0-1.84-5,9.36,9.36,0,0,0,4.25-7.85,9.07,9.07,0,0,0-.92-3.92,4.73,4.73,0,0,0,3.72-2.67,5.85,5.85,0,0,0,3.64,1.26,6,6,0,0,0,3.72-10.66A33.71,33.71,0,0,1,56,24.58a33.29,33.29,0,0,1,7.35.79,1.55,1.55,0,0,1,1.42-1,1.53,1.53,0,0,1,1.53,1.53,0.27,0.27,0,0,1,0,.18A33.76,33.76,0,0,1,89.18,66.57"/><path class="ad" d="M44.3,43.52a2.55,2.55,0,0,1-5.09,0,2.55,2.55,0,1,1,5.09,0"/><path class="ad" d="M72.06,67.3a1.86,1.86,0,1,1-1.87-1.82,1.84,1.84,0,0,1,1.87,1.82"/><path class="ad" d="M42.26,52.55A1.53,1.53,0,1,1,40.74,51a1.53,1.53,0,0,1,1.53,1.53"/><path class="ad" d="M54.37,80.87a1.53,1.53,0,0,1-1.53,1.53,1.53,1.53,0,0,1,0-3.05,1.53,1.53,0,0,1,1.53,1.52"/><path class="ad" d="M83.21,54.57a1.53,1.53,0,0,1-3.07,0,1.53,1.53,0,0,1,3.07,0"/><path class="h" d="M66.27,195.53a53.3,53.3,0,0,1-34.51,67.19,53.68,53.68,0,0,1-67.53-34.34A53.3,53.3,0,0,1-1.26,161.19a53.68,53.68,0,0,1,67.53,34.34"/><path class="ae" d="M61.47,197.08A48.28,48.28,0,0,1,30.2,257.94,48.61,48.61,0,0,1-31,226.83,48.27,48.27,0,0,1,.3,166a48.62,48.62,0,0,1,61.17,31.1"/><path class="g" d="M60,197.56a46.71,46.71,0,0,1-30.24,58.89,47,47,0,0,1-59.17-30.1A46.7,46.7,0,0,1,.78,167.47,47,47,0,0,1,60,197.56"/><path class="af" d="M35.23,246.59a3,3,0,0,1-2,3.81l-10,3.22a3,3,0,1,1-1.87-5.76l10-3.22a3,3,0,0,1,3.84,1.95"/><path class="f" d="M49.37,194.76a37.56,37.56,0,0,1-24.32,47.35,37.83,37.83,0,0,1-47.59-24.2A37.57,37.57,0,0,1,1.78,170.56a37.83,37.83,0,0,1,47.59,24.2"/><path class="ae" d="M48.67,195a36.83,36.83,0,0,1-23.85,46.42,37.1,37.1,0,0,1-46.65-23.73A36.83,36.83,0,0,1,2,171.27,37.09,37.09,0,0,1,48.67,195"/><path class="af" d="M5.75,176a2.09,2.09,0,1,1-2.64-1.34A2.08,2.08,0,0,1,5.75,176"/></g></g></g></g></svg>