<svg xmlns="http://www.w3.org/2000/svg" xmlns:xlink="http://www.w3.org/1999/xlink" width="600" height="600" viewBox="0 0 600 600"><defs><style>.a{fill:none;}.b{isolation:isolate;}.c{clip-path:url(#a);}.d{fill:#648da5;}.e{fill:#f1f2f2;}.f{fill:#bcbec0;}.g{fill:#d1d3d4;}.h{fill:#939598;}.i{fill:#e6e7e8;}.j{clip-path:url(#d);}.k{fill:url(#e);}.l{fill:#fff;}.m{fill:#808285;}.n{clip-path:url(#g);}.o{fill:url(#h);}.p{clip-path:url(#j);}.q{fill:url(#k);}.r{clip-path:url(#m);}.s{fill:url(#n);}.t{clip-path:url(#p);}.u{fill:url(#q);}.v{clip-path:url(#s);}.w{fill:url(#t);}.x{clip-path:url(#v);}.y{fill:url(#w);}.z{clip-path:url(#y);}.aa{fill:url(#z);}.ab{clip-path:url(#ab);}.ac{fill:url(#ac);}.ad{clip-path:url(#ae);}.ae{fill:url(#af);}.af{fill:#595b5e;}.ag{fill:#2d3032;}.ah{fill:#29708f;}.ai{clip-path:url(#ah);}.aj{fill:url(#ai);}.ak{fill:#ffd87d;}.al{fill:#fdba58;}.am{fill:#e39842;}.an{fill:#7f8084;}.ao{fill:#626469;}.ap{fill:#444648;}.aq{fill:#efd4a9;}.ar{fill:#d6b49d;}.as{fill:#c3a386;}.at{fill:#5d5f63;}.au{clip-path:url(#ak);}.av{fill:url(#al);}.aw{clip-path:url(#an);}.ax{fill:url(#ao);}.ay{clip-path:url(#ap);}.az{fill:url(#aq);}.ba{clip-path:url(#ar);}.bb{fill:url(#as);}.bc{clip-path:url(#at);}.bd{fill:url(#au);}.be{clip-path:url(#av);}.bf{fill:url(#aw);}.bg{clip-path:url(#ax);}.bh{fill:url(#ay);}.bi{fill:#a7a9ac;}.bj{clip-path:url(#ba);}.bk{fill:url(#bb);}.bl{opacity:0.2;mix-blend-mode:multiply;}.bm{clip-path:url(#bd);}.bn{fill:#231f20;}.bo{clip-path:url(#be);}.bp{fill:url(#bf);}.bq{clip-path:url(#bg);}.br{fill:url(#bh);}.bs{clip-path:url(#bi);}.bt{fill:url(#bj);}.bu{clip-path:url(#bk);}.bv{fill:url(#bl);}.bw{clip-path:url(#bn);}.bx{fill:url(#bo);}.by{clip-path:url(#bq);}.bz{fill:url(#br);}.ca{clip-path:url(#bt);}.cb{fill:url(#bu);}.cc{clip-path:url(#bw);}.cd{fill:url(#bx);}.ce{clip-path:url(#bz);}.cf{fill:url(#ca);}.cg{clip-path:url(#cc);}.ch{fill:url(#cd);}.ci{clip-path:url(#cf);}.cj{fill:url(#cg);}.ck{clip-path:url(#ci);}.cl{fill:url(#cj);}.cm{clip-path:url(#cl);}.cn{fill:url(#cm);}.co{clip-path:url(#co);}.cp{fill:url(#cp);}.cq{clip-path:url(#cq);}.cr{fill:url(#cr);}</style><clipPath id="a"><rect class="a" width="600" height="600"/></clipPath><clipPath id="d"><path class="a" d="M0,280.39L56.86,292a3.82,3.82,0,0,0,4.49-3L90.53,145.78a3.82,3.82,0,0,0-3-4.5L0,123.45V280.39Z"/></clipPath><linearGradient id="e" x1="-228.43" y1="1716.53" x2="-226.03" y2="1716.53" gradientTransform="matrix(0, -47.57, 47.57, 0, -81603.79, -10625.98)" gradientUnits="userSpaceOnUse"><stop offset="0" stop-color="#484c50"/><stop offset="1" stop-color="#3e4246"/></linearGradient><clipPath id="g"><path class="a" d="M3.58,122.09l-2,9.89a1.41,1.41,0,0,0,2.76.56l2-9.89A1.41,1.41,0,0,0,5.24,121L5,121a1.41,1.41,0,0,0-1.38,1.13"/></clipPath><linearGradient id="h" x1="-499.77" y1="1679.24" x2="-497.37" y2="1679.24" gradientTransform="matrix(-5.11, 0, 0, 5.11, -2541.97, -8448.83)" gradientUnits="userSpaceOnUse"><stop offset="0" stop-color="#dcddde"/><stop offset="1" stop-color="#a7a9ac"/></linearGradient><clipPath id="j"><path class="a" d="M13.85,124.18l-2,9.89a1.41,1.41,0,0,0,2.77.57l2-9.89a1.41,1.41,0,0,0-1.1-1.66l-0.29,0a1.4,1.4,0,0,0-1.37,1.13"/></clipPath><linearGradient id="k" x1="-499.76" y1="1680.44" x2="-497.36" y2="1680.44" gradientTransform="matrix(-5.11, 0, 0, 5.11, -2531.77, -8453.33)" xlink:href="#h"/><clipPath id="m"><path class="a" d="M24.11,126.27l-2,9.89a1.41,1.41,0,0,0,2.77.56l2-9.89a1.41,1.41,0,0,0-1.1-1.66l-0.28,0a1.41,1.41,0,0,0-1.38,1.13"/></clipPath><linearGradient id="n" x1="-499.78" y1="1681.64" x2="-497.38" y2="1681.64" gradientTransform="matrix(-5.11, 0, 0, 5.11, -2521.41, -8456.71)" xlink:href="#h"/><clipPath id="p"><path class="a" d="M34.38,128.36l-2,9.89a1.42,1.42,0,0,0,2.78.56l2-9.89a1.42,1.42,0,0,0-1.1-1.66l-0.29,0a1.41,1.41,0,0,0-1.38,1.13"/></clipPath><linearGradient id="q" x1="-499.77" y1="1682.83" x2="-497.37" y2="1682.83" gradientTransform="matrix(-5.11, 0, 0, 5.11, -2511.16, -8460.9)" xlink:href="#h"/><clipPath id="s"><path class="a" d="M44.66,130.46l-2,9.89a1.41,1.41,0,0,0,2.77.56l2-9.89a1.4,1.4,0,0,0-1.1-1.66,1.28,1.28,0,0,0-.29,0,1.41,1.41,0,0,0-1.38,1.13"/></clipPath><linearGradient id="t" x1="-499.81" y1="1684.03" x2="-497.41" y2="1684.03" gradientTransform="matrix(-5.11, 0, 0, 5.11, -2500.73, -8463.82)" xlink:href="#h"/><clipPath id="v"><path class="a" d="M54.93,132.55l-2,9.89a1.41,1.41,0,0,0,2.77.56l2-9.89a1.42,1.42,0,0,0-1.11-1.66l-0.28,0a1.4,1.4,0,0,0-1.38,1.13"/></clipPath><linearGradient id="w" x1="-499.77" y1="1685.23" x2="-497.37" y2="1685.23" gradientTransform="matrix(-5.11, 0, 0, 5.11, -2490.64, -8469.09)" xlink:href="#h"/><clipPath id="y"><path class="a" d="M65.21,134.64l-2,9.89a1.41,1.41,0,0,0,2.76.56l2-9.89a1.41,1.41,0,0,0-1.1-1.66,1.3,1.3,0,0,0-.29,0,1.4,1.4,0,0,0-1.37,1.13"/></clipPath><linearGradient id="z" x1="-499.83" y1="1686.43" x2="-497.43" y2="1686.43" gradientTransform="matrix(-5.11, 0, 0, 5.11, -2480.11, -8471.23)" xlink:href="#h"/><clipPath id="ab"><path class="a" d="M75.47,136.73l-2,9.89a1.42,1.42,0,0,0,2.77.56l2-9.89a1.41,1.41,0,0,0-1.11-1.66l-0.29,0a1.41,1.41,0,0,0-1.38,1.13"/></clipPath><linearGradient id="ac" x1="-499.77" y1="1687.62" x2="-497.37" y2="1687.62" gradientTransform="matrix(-5.11, 0, 0, 5.11, -2470.06, -8476.98)" xlink:href="#h"/><clipPath id="ae"><path class="a" d="M168.74,85.32L106.49,111.8a4.85,4.85,0,0,0-2.55,6.34L114.08,142l22.48,52.87a4.84,4.84,0,0,0,6.34,2.56l62.25-26.48a4.85,4.85,0,0,0,2.56-6.34l-22.49-52.87L175.08,87.87a4.84,4.84,0,0,0-6.34-2.55"/></clipPath><linearGradient id="af" x1="-200.98" y1="1689.92" x2="-198.58" y2="1689.92" gradientTransform="matrix(49.58, 0, 0, -49.58, 10061.35, 83934.54)" gradientUnits="userSpaceOnUse"><stop offset="0" stop-color="#ecebea"/><stop offset="0.92" stop-color="#cccdce"/><stop offset="1" stop-color="#c9cacb"/></linearGradient><clipPath id="ah"><path class="a" d="M171,98.13l-56.79,24.15a1.94,1.94,0,0,0-1,2.53l3.8,8.93a1.94,1.94,0,0,0,2.53,1l56.79-24.15a1.93,1.93,0,0,0,1-2.53l-3.8-8.93A1.94,1.94,0,0,0,171.71,98a1.88,1.88,0,0,0-.75.15"/></clipPath><linearGradient id="ai" x1="-198.84" y1="1729.96" x2="-196.44" y2="1729.96" gradientTransform="matrix(27.32, 0, 0, -27.32, 5545.65, 47385.23)" gradientUnits="userSpaceOnUse"><stop offset="0" stop-color="#ecebea"/><stop offset="1" stop-color="#d4d4d5"/></linearGradient><clipPath id="ak"><path class="a" d="M475.83,123.44a4.11,4.11,0,0,0-1,5.72l65.91,94a4.13,4.13,0,0,0,5.72,1L600,186.61V36.37Z"/></clipPath><linearGradient id="al" x1="-244.47" y1="1664.7" x2="-242.07" y2="1664.7" gradientTransform="matrix(0, 51.26, -51.26, 0, 85864.99, 12620.99)" xlink:href="#e"/><clipPath id="an"><rect class="a" x="524.33" y="141.37" width="2.42" height="44.66" transform="translate(1.27 331.44) rotate(-35.04)"/></clipPath><linearGradient id="ao" x1="723.83" y1="2312.75" x2="726.23" y2="2312.75" gradientTransform="matrix(1.27, 0, 0, -1.27, -394.43, 3097.89)" xlink:href="#h"/><clipPath id="ap"><polygon class="a" points="531.3 198.06 530.13 196.41 528.15 197.8 529.32 199.45 530.7 201.43 530.7 201.43 538.19 196.19 536.8 194.2 531.3 198.06"/></clipPath><linearGradient id="aq" x1="-578.02" y1="2229.91" x2="-575.62" y2="2229.91" gradientTransform="matrix(0, 2.22, 2.22, 0, -4411.47, 1476)" gradientUnits="userSpaceOnUse"><stop offset="0" stop-color="#dcddde"/><stop offset="0.3" stop-color="#d1d2d3"/><stop offset="0.82" stop-color="#b3b5b7"/><stop offset="1" stop-color="#a7a9ac"/></linearGradient><clipPath id="ar"><polygon class="a" points="491.82 146 491.82 146 493.21 147.98 494.38 149.64 496.36 148.25 495.2 146.59 500.7 142.73 499.31 140.74 491.82 146"/></clipPath><linearGradient id="as" x1="148.49" y1="1129.05" x2="150.89" y2="1129.05" gradientTransform="matrix(0, -2.15, -2.15, 0, 2920.9, 466.98)" gradientUnits="userSpaceOnUse"><stop offset="0" stop-color="#dcddde"/><stop offset="0.25" stop-color="#d5d6d8"/><stop offset="0.62" stop-color="#c2c4c6"/><stop offset="1" stop-color="#a7a9ac"/></linearGradient><clipPath id="at"><rect class="a" x="508.85" y="143.61" width="6.81" height="58.82" transform="translate(-6.48 325.51) rotate(-35.04)"/></clipPath><linearGradient id="au" x1="183.54" y1="1960.83" x2="185.94" y2="1960.83" gradientTransform="matrix(2.91, 0, 0, -2.91, -25.08, 5873.18)" gradientUnits="userSpaceOnUse"><stop offset="0" stop-color="#414042"/><stop offset="0.75" stop-color="#373637"/><stop offset="1" stop-color="#333132"/></linearGradient><clipPath id="av"><polygon class="a" points="536.64 183.19 541.43 190.02 536.36 193.57 538.68 196.88 543.74 193.32 547.05 191.01 544.73 187.7 539.94 180.87 536.64 183.19"/></clipPath><linearGradient id="aw" x1="448.36" y1="2122.14" x2="450.76" y2="2122.14" gradientTransform="matrix(1.78, 0, 0, -1.78, -259.55, 3976.02)" xlink:href="#au"/><clipPath id="ax"><polygon class="a" points="503.89 136.5 498.83 140.05 501.14 143.36 506.21 139.8 511 146.63 514.3 144.31 509.51 137.49 507.19 134.18 503.89 136.5"/></clipPath><linearGradient id="ay" x1="418.86" y1="2122.61" x2="421.26" y2="2122.61" gradientTransform="matrix(1.87, 0, 0, -1.87, -275.28, 4100.75)" xlink:href="#au"/><clipPath id="ba"><path class="a" d="M459.56,0l-7.8,5.55a3.31,3.31,0,0,0-.77,4.59l51.81,72.77a3.3,3.3,0,0,0,4.59.78L600,17.76V0H459.56Z"/></clipPath><linearGradient id="bb" x1="-250.43" y1="1719.45" x2="-248.03" y2="1719.45" gradientTransform="matrix(0, 39.97, 39.97, 0, -68201.13, 9979.29)" gradientUnits="userSpaceOnUse"><stop offset="0" stop-color="#484c50"/><stop offset="0.64" stop-color="#45494d"/><stop offset="1" stop-color="#3e4246"/></linearGradient><clipPath id="bd"><rect class="a" x="452.01" y="-65.52" width="111.42" height="81.51"/></clipPath><clipPath id="be"><polygon class="a" points="449.46 24.75 456.44 26.16 455.48 33.23 463.42 27.58 457.39 19.11 449.46 24.75"/></clipPath><linearGradient id="bf" x1="-430.4" y1="1971.84" x2="-428" y2="1971.84" gradientTransform="matrix(0, 4.33, 4.33, 0, -8085.21, 1885.37)" gradientUnits="userSpaceOnUse"><stop offset="0" stop-color="#2f84c4"/><stop offset="1" stop-color="#2a77b0"/></linearGradient><clipPath id="bg"><path class="a" d="M111.21,411a6.73,6.73,0,0,0-6.72,6.71V600H300V417.73a6.73,6.73,0,0,0-6.72-6.71H111.21Z"/></clipPath><linearGradient id="bh" x1="-224.77" y1="1702.55" x2="-222.37" y2="1702.55" gradientTransform="matrix(81.46, 0, 0, -81.46, 18414.29, 139198.17)" xlink:href="#e"/><clipPath id="bi"><path class="a" d="M306.72,411a6.73,6.73,0,0,0-6.71,6.71V600H495.5V417.73a6.73,6.73,0,0,0-6.71-6.71H306.72Z"/></clipPath><linearGradient id="bj" x1="-234.67" y1="1702.55" x2="-232.27" y2="1702.55" gradientTransform="translate(-18620.26 139193.26) rotate(180) scale(81.46)" xlink:href="#e"/><clipPath id="bk"><rect class="a" x="291.51" y="411.01" width="16.97" height="188.99"/></clipPath><linearGradient id="bl" x1="-171.99" y1="1852.39" x2="-169.59" y2="1852.39" gradientTransform="matrix(7.07, 0, 0, -7.07, 1507.87, 13606.15)" gradientUnits="userSpaceOnUse"><stop offset="0" stop-color="#35393c"/><stop offset="1" stop-color="#25292c"/></linearGradient><clipPath id="bn"><path class="a" d="M291.24,433.18a2.49,2.49,0,0,0,0,5H309a2.49,2.49,0,0,0,0-5H291.24Z"/></clipPath><linearGradient id="bo" x1="-273.9" y1="1556.67" x2="-271.5" y2="1556.67" gradientTransform="matrix(-9, 0, 0, 9, -2152.41, -13567.79)" xlink:href="#h"/><clipPath id="bq"><path class="a" d="M291.24,451.65a2.49,2.49,0,0,0,0,5H309a2.49,2.49,0,0,0,0-5H291.24Z"/></clipPath><linearGradient id="br" x1="-273.9" y1="1557.86" x2="-271.5" y2="1557.86" gradientTransform="matrix(-9, 0, 0, 9, -2152.41, -13560.1)" xlink:href="#h"/><clipPath id="bt"><path class="a" d="M291.24,470.11a2.49,2.49,0,0,0,0,5H309a2.49,2.49,0,0,0,0-5H291.24Z"/></clipPath><linearGradient id="bu" x1="-273.9" y1="1559.06" x2="-271.5" y2="1559.06" gradientTransform="matrix(-9, 0, 0, 9, -2152.41, -13552.41)" xlink:href="#h"/><clipPath id="bw"><path class="a" d="M291.24,488.58a2.49,2.49,0,1,0,0,5H309a2.49,2.49,0,0,0,0-5H291.24Z"/></clipPath><linearGradient id="bx" x1="-273.9" y1="1560.26" x2="-271.5" y2="1560.26" gradientTransform="matrix(-9, 0, 0, 9, -2152.41, -13544.71)" xlink:href="#h"/><clipPath id="bz"><path class="a" d="M291.24,507a2.49,2.49,0,0,0,0,5H309a2.49,2.49,0,0,0,0-5H291.24Z"/></clipPath><linearGradient id="ca" x1="-273.9" y1="1561.46" x2="-271.5" y2="1561.46" gradientTransform="matrix(-9, 0, 0, 9, -2152.41, -13537.02)" xlink:href="#h"/><clipPath id="cc"><path class="a" d="M291.24,525.51a2.49,2.49,0,1,0,0,5H309a2.49,2.49,0,0,0,0-5H291.24Z"/></clipPath><linearGradient id="cd" x1="-273.9" y1="1562.65" x2="-271.5" y2="1562.65" gradientTransform="matrix(-9, 0, 0, 9, -2152.41, -13529.33)" xlink:href="#h"/><clipPath id="cf"><path class="a" d="M291.24,544a2.49,2.49,0,0,0,0,5H309a2.49,2.49,0,0,0,0-5H291.24Z"/></clipPath><linearGradient id="cg" x1="-273.9" y1="1563.85" x2="-271.5" y2="1563.85" gradientTransform="matrix(-9, 0, 0, 9, -2152.41, -13521.63)" xlink:href="#h"/><clipPath id="ci"><path class="a" d="M291.24,562.43a2.49,2.49,0,0,0,0,5H309a2.49,2.49,0,0,0,0-5H291.24Z"/></clipPath><linearGradient id="cj" x1="-273.9" y1="1565.05" x2="-271.5" y2="1565.05" gradientTransform="matrix(-9, 0, 0, 9, -2152.41, -13513.94)" xlink:href="#h"/><clipPath id="cl"><path class="a" d="M291.24,580.89a2.49,2.49,0,0,0,0,5H309a2.49,2.49,0,0,0,0-5H291.24Z"/></clipPath><linearGradient id="cm" x1="-273.9" y1="1566.24" x2="-271.5" y2="1566.24" gradientTransform="matrix(-9, 0, 0, 9, -2152.41, -13506.25)" xlink:href="#h"/><clipPath id="co"><path class="a" d="M291.24,599.36a2.48,2.48,0,0,0-1.66.64h21.11a2.49,2.49,0,0,0-1.67-.64H291.24Z"/></clipPath><linearGradient id="cp" x1="-273.9" y1="1567.2" x2="-271.5" y2="1567.2" gradientTransform="matrix(-9, 0, 0, 9, -2152.41, -13498.55)" xlink:href="#h"/><clipPath id="cq"><rect class="a" x="253.85" y="411.02" width="12.18" height="188.98"/></clipPath><linearGradient id="cr" x1="-218.12" y1="1684.62" x2="-215.72" y2="1684.62" gradientTransform="matrix(0, -103.37, -103.37, 0, 174400.45, -21888.6)" xlink:href="#bf"/></defs><title>project</title><g class="b"><g class="c"><g class="c"><rect class="d" width="600" height="600"/><g class="c"><path class="e" d="M99.11,44A44.56,44.56,0,1,1,39.65,23.19,44.55,44.55,0,0,1,99.11,44"/><path class="f" d="M95.33,45.85A40.36,40.36,0,1,1,41.47,27,40.36,40.36,0,0,1,95.33,45.85"/><path class="g" d="M94.14,46.42A39,39,0,1,1,42,28.16,39,39,0,0,1,94.14,46.42"/><path class="h" d="M79.31,89.76a2.52,2.52,0,0,1-1.19,3.37l-7.86,3.78a2.53,2.53,0,0,1-2.19-4.56l7.86-3.78a2.53,2.53,0,0,1,3.37,1.18"/><path class="i" d="M85.11,45.29A31.4,31.4,0,1,1,43.21,30.6,31.4,31.4,0,0,1,85.11,45.29"/><path class="f" d="M84.56,45.56a30.78,30.78,0,1,1-41.08-14.4,30.79,30.79,0,0,1,41.08,14.4"/><path class="h" d="M47.08,34.62a1.74,1.74,0,1,1-2.33-.81,1.74,1.74,0,0,1,2.33.81"/></g><g class="j"><rect class="k" x="-46.38" y="146.5" width="183.7" height="122.84" transform="translate(-167.34 210.98) rotate(-78.49)"/></g><g class="c"><path class="f" d="M51.81,286.41A5.67,5.67,0,0,0,58.48,282L85,151.85a5.68,5.68,0,0,0-4.42-6.68l-92.52-18.85a5.68,5.68,0,0,0-6.68,4.42L-45.13,260.88a5.68,5.68,0,0,0,4.42,6.68Z"/><path class="g" d="M52,285.37A5.68,5.68,0,0,0,58.7,281L85.21,150.81a5.68,5.68,0,0,0-4.42-6.68l-92.52-18.85a5.68,5.68,0,0,0-6.68,4.42L-44.92,259.84a5.68,5.68,0,0,0,4.42,6.68Z"/><path class="e" d="M85.43,149.77L85,152.07a5.68,5.68,0,0,0-4.42-6.68L-12,126.54A5.68,5.68,0,0,0-18.65,131l0.47-2.3a5.68,5.68,0,0,1,6.67-4.42L81,143.09a5.68,5.68,0,0,1,4.42,6.67"/><path class="l" d="M52.23,284.33a5.68,5.68,0,0,0,6.67-4.42L85.42,149.76A5.68,5.68,0,0,0,81,143.08l-92.52-18.85a5.68,5.68,0,0,0-6.68,4.42L-44.7,258.8a5.68,5.68,0,0,0,4.42,6.68Z"/><path class="m" d="M3.21,130.94a1.82,1.82,0,1,1-2.15,1.41,1.81,1.81,0,0,1,2.15-1.41"/></g><g class="n"><rect class="o" x="-2.85" y="123.6" width="13.59" height="7.55" transform="translate(-121.65 105.82) rotate(-78.49)"/></g><g class="c"><path class="m" d="M13.48,133a1.82,1.82,0,1,1-2.14,1.42A1.81,1.81,0,0,1,13.48,133"/></g><g class="p"><rect class="q" x="7.42" y="125.69" width="13.6" height="7.55" transform="translate(-115.48 117.56) rotate(-78.49)"/></g><g class="c"><path class="m" d="M23.75,135.12a1.82,1.82,0,1,1-2.14,1.42,1.81,1.81,0,0,1,2.14-1.42"/></g><g class="r"><rect class="s" x="17.69" y="127.79" width="13.59" height="7.55" transform="translate(-109.31 129.3) rotate(-78.49)"/></g><g class="c"><path class="m" d="M34,137.22a1.82,1.82,0,1,1-2.14,1.42A1.81,1.81,0,0,1,34,137.22"/></g><g class="t"><rect class="u" x="27.97" y="129.87" width="13.6" height="7.56" transform="translate(-103.14 141.04) rotate(-78.49)"/></g><g class="c"><path class="m" d="M44.3,139.31a1.82,1.82,0,1,1-2.14,1.42,1.81,1.81,0,0,1,2.14-1.42"/></g><g class="v"><rect class="w" x="38.24" y="131.97" width="13.6" height="7.56" transform="translate(-96.97 152.78) rotate(-78.49)"/></g><g class="c"><path class="m" d="M54.57,141.4a1.82,1.82,0,1,1-2.14,1.42,1.82,1.82,0,0,1,2.14-1.42"/></g><g class="x"><rect class="y" x="48.51" y="134.06" width="13.6" height="7.56" transform="translate(-90.8 164.52) rotate(-78.49)"/></g><g class="c"><path class="m" d="M64.84,143.5a1.82,1.82,0,1,1-2.15,1.42,1.82,1.82,0,0,1,2.15-1.42"/></g><g class="z"><rect class="aa" x="58.78" y="136.16" width="13.6" height="7.55" transform="translate(-84.63 176.26) rotate(-78.49)"/></g><g class="c"><path class="m" d="M75.11,145.59A1.81,1.81,0,1,1,73,147a1.81,1.81,0,0,1,2.14-1.42"/></g><g class="ab"><rect class="ac" x="69.05" y="138.25" width="13.6" height="7.56" transform="translate(-78.46 188) rotate(-78.49)"/></g><g class="c"><path class="l" d="M143.39,198.57a6.1,6.1,0,0,1-8-3.22l-32.63-76.72a6.1,6.1,0,0,1,3.22-8l62.25-26.48a6.1,6.1,0,0,1,8,3.22l32.63,76.72a6.1,6.1,0,0,1-3.22,8Z"/></g><g class="ad"><rect class="ae" x="86.33" y="74.79" width="138.98" height="133.82" transform="matrix(0.29, -0.96, 0.96, 0.29, -24.41, 250.67)"/></g><g class="c"><path class="af" d="M150.1,184.74a1.94,1.94,0,0,1-1,2.53l-6.15,2.62a1.94,1.94,0,0,1-2.54-1l-1.84-4.32a1.94,1.94,0,0,1,1-2.54l6.15-2.62a1.94,1.94,0,0,1,2.53,1Z"/><path class="af" d="M145.74,174.47a2,2,0,0,1-1,2.54l-6.15,2.61a1.94,1.94,0,0,1-2.54-1l-1.84-4.32a1.94,1.94,0,0,1,1-2.53l6.15-2.62a1.94,1.94,0,0,1,2.53,1Z"/><path class="af" d="M141.37,164.2a1.94,1.94,0,0,1-1,2.54l-6.15,2.61a1.94,1.94,0,0,1-2.54-1L129.82,164a1.94,1.94,0,0,1,1-2.54l6.15-2.62a1.94,1.94,0,0,1,2.53,1Z"/><path class="af" d="M137,153.93a1.94,1.94,0,0,1-1,2.54l-6.15,2.61a1.94,1.94,0,0,1-2.53-1l-1.84-4.32a1.94,1.94,0,0,1,1-2.54l6.15-2.62a1.94,1.94,0,0,1,2.53,1Z"/><path class="ag" d="M162.76,179.36a2,2,0,0,1-1,2.54l-6.15,2.61a1.94,1.94,0,0,1-2.54-1l-1.84-4.32a1.94,1.94,0,0,1,1-2.54l6.15-2.62a1.94,1.94,0,0,1,2.53,1Z"/><path class="ag" d="M158.39,169.09a1.94,1.94,0,0,1-1,2.53l-6.15,2.62a1.94,1.94,0,0,1-2.54-1l-1.84-4.32a1.94,1.94,0,0,1,1-2.53l6.15-2.62a1.94,1.94,0,0,1,2.53,1Z"/><path class="ag" d="M154,158.82a1.94,1.94,0,0,1-1,2.54L146.86,164a1.94,1.94,0,0,1-2.54-1l-1.83-4.32a1.94,1.94,0,0,1,1-2.54l6.15-2.62a1.94,1.94,0,0,1,2.53,1Z"/><path class="ag" d="M149.66,148.55a1.94,1.94,0,0,1-1,2.54l-6.15,2.61a1.94,1.94,0,0,1-2.54-1l-1.84-4.32a1.94,1.94,0,0,1,1-2.54l6.15-2.62a1.94,1.94,0,0,1,2.53,1Z"/><path class="ag" d="M175.42,174a1.94,1.94,0,0,1-1,2.54l-6.15,2.61a1.93,1.93,0,0,1-2.53-1l-1.84-4.32a1.94,1.94,0,0,1,1-2.54l6.15-2.62a1.94,1.94,0,0,1,2.53,1Z"/><path class="ag" d="M171.05,163.71a1.94,1.94,0,0,1-1,2.53l-6.15,2.61a1.94,1.94,0,0,1-2.53-1l-1.84-4.32a1.94,1.94,0,0,1,1-2.53l6.15-2.61a1.93,1.93,0,0,1,2.53,1Z"/><path class="ag" d="M166.68,153.44a1.93,1.93,0,0,1-1,2.53l-6.15,2.61a1.94,1.94,0,0,1-2.54-1l-1.84-4.32a1.94,1.94,0,0,1,1-2.53l6.15-2.62a1.94,1.94,0,0,1,2.53,1Z"/><path class="ag" d="M162.32,143.17a1.94,1.94,0,0,1-1,2.53l-6.15,2.62a1.94,1.94,0,0,1-2.53-1L150.78,143a1.94,1.94,0,0,1,1-2.54l6.15-2.62a1.94,1.94,0,0,1,2.53,1Z"/><path class="ag" d="M188.08,168.59a1.94,1.94,0,0,1-1,2.53l-6.15,2.62a1.94,1.94,0,0,1-2.54-1l-1.84-4.32a2,2,0,0,1,1-2.54l6.15-2.62a1.94,1.94,0,0,1,2.53,1Z"/><path class="ag" d="M183.72,158.32a2,2,0,0,1-1,2.54l-6.15,2.61a1.94,1.94,0,0,1-2.53-1l-1.84-4.32a1.94,1.94,0,0,1,1-2.53l6.15-2.61a1.94,1.94,0,0,1,2.53,1Z"/><path class="ag" d="M179.35,148.05a1.94,1.94,0,0,1-1,2.54l-6.14,2.61a1.94,1.94,0,0,1-2.54-1l-1.84-4.32a1.94,1.94,0,0,1,1-2.54l6.15-2.61a1.94,1.94,0,0,1,2.53,1Z"/><path class="ag" d="M165.87,133.41h6.68a1.94,1.94,0,0,1,1.94,1.94V140a1.93,1.93,0,0,1-1.93,1.93h-6.69a1.93,1.93,0,0,1-1.93-1.93v-4.7A1.93,1.93,0,0,1,165.87,133.41Z" transform="translate(-40.39 77.22) rotate(-23.04)"/><path class="af" d="M200.74,163.21a1.94,1.94,0,0,1-1,2.53l-6.15,2.62a1.94,1.94,0,0,1-2.54-1L189.2,163a1.94,1.94,0,0,1,1-2.54l6.15-2.61a1.94,1.94,0,0,1,2.53,1Z"/><path class="af" d="M196.37,152.94a1.94,1.94,0,0,1-1,2.53l-6.15,2.62a1.94,1.94,0,0,1-2.53-1l-1.84-4.32a1.94,1.94,0,0,1,1-2.53l6.15-2.62a1.94,1.94,0,0,1,2.53,1Z"/><path class="af" d="M192,142.67a1.94,1.94,0,0,1-1,2.54l-6.14,2.61a1.94,1.94,0,0,1-2.54-1l-1.84-4.32a1.94,1.94,0,0,1,1-2.53l6.15-2.61a1.93,1.93,0,0,1,2.53,1Z"/><path class="af" d="M187.64,132.4a1.94,1.94,0,0,1-1,2.53l-6.14,2.61a1.94,1.94,0,0,1-2.54-1l-1.84-4.32a1.94,1.94,0,0,1,1-2.53l6.15-2.62a1.93,1.93,0,0,1,2.53,1Z"/><path class="af" d="M132.59,143.56a1.94,1.94,0,0,1-1,2.54l-6.15,2.61a1.94,1.94,0,0,1-2.54-1l-0.87-2a1.94,1.94,0,0,1,1-2.53l6.15-2.62a1.94,1.94,0,0,1,2.54,1Z"/><path class="af" d="M145.25,138.18a1.94,1.94,0,0,1-1,2.54l-6.15,2.61a1.94,1.94,0,0,1-2.54-1l-0.87-2a1.94,1.94,0,0,1,1-2.54l6.15-2.61a1.94,1.94,0,0,1,2.54,1Z"/><path class="af" d="M157.9,132.79a1.94,1.94,0,0,1-1,2.53l-6.15,2.62a1.94,1.94,0,0,1-2.53-1l-0.87-2a1.93,1.93,0,0,1,1-2.53l6.15-2.62a1.94,1.94,0,0,1,2.53,1Z"/><path class="ah" d="M170.57,127.41a2,2,0,0,1-1,2.54l-6.15,2.61a1.93,1.93,0,0,1-2.53-1l-0.87-2a1.94,1.94,0,0,1,1-2.54l6.15-2.61a2,2,0,0,1,2.54,1Z"/><path class="ah" d="M183.23,122a1.94,1.94,0,0,1-1,2.54l-6.15,2.61a1.93,1.93,0,0,1-2.53-1l-0.87-2a1.94,1.94,0,0,1,1-2.54l6.15-2.61a1.94,1.94,0,0,1,2.54,1Z"/></g><g class="ai"><rect class="aj" x="108.05" y="86.74" width="74.35" height="59.67" transform="translate(-34.04 66.14) rotate(-23.04)"/></g><g class="c"><path class="af" d="M119,133.61a0.68,0.68,0,0,1-.89-0.36l-3.8-8.93a0.68,0.68,0,0,1,.36-0.89l56.79-24.15a0.68,0.68,0,0,1,.89.36l3.8,8.93a0.68,0.68,0,0,1-.36.89Z"/><path class="ag" d="M171.17,93.69a1.94,1.94,0,0,1-1,2.54l-14.84,6.31a1.94,1.94,0,0,1-2.53-1l-0.39-.92a1.94,1.94,0,0,1,1-2.53l14.84-6.31a1.94,1.94,0,0,1,2.53,1Z"/><polygon class="ak" points="31.05 169.58 29.26 169.87 43.02 253.43 44.81 253.13 31.05 169.58"/><rect class="al" x="37.92" y="168.87" width="1.81" height="84.68" transform="translate(-33.97 9.18) rotate(-9.4)"/><rect class="am" x="39.7" y="168.58" width="1.82" height="84.68" transform="translate(-33.73 9.4) rotate(-9.35)"/><rect class="i" x="29.15" y="168.49" width="1.81" height="1.24" transform="translate(-27.15 7.15) rotate(-9.38)"/><rect class="g" x="30.94" y="168.2" width="1.81" height="1.24" transform="translate(-26.9 7.38) rotate(-9.31)"/><rect class="f" x="32.72" y="167.9" width="1.82" height="1.24" transform="translate(-26.73 7.62) rotate(-9.28)"/><rect class="an" x="28.55" y="162.4" width="1.81" height="6.14" transform="translate(-26.32 6.92) rotate(-9.29)"/><rect class="ao" x="30.34" y="162.11" width="1.81" height="6.14" transform="translate(-26.52 7.31) rotate(-9.39)"/><rect class="ap" x="32.12" y="161.81" width="1.82" height="6.14" transform="translate(-26.18 7.49) rotate(-9.29)"/><path class="ap" d="M33.42,161.71l-5.36.88c-0.08-.5,1-1.09,2.53-1.33s2.75-.05,2.83.45"/><polygon class="aq" points="44.81 253.13 47.66 265.02 43.02 253.43 44.81 253.13"/><polygon class="ar" points="47.66 265.02 46.59 252.84 44.81 253.13 47.66 265.02"/><polygon class="as" points="47.66 265.02 48.38 252.54 46.59 252.84 47.66 265.02"/><path class="at" d="M47.38,261.87l-0.18,0a1.6,1.6,0,0,0-.28.07,2.13,2.13,0,0,0-.42.17L47.66,265l0.18-3.14a1.83,1.83,0,0,0-.46,0"/></g><g class="au"><rect class="av" x="430.71" y="17.2" width="212.11" height="227.42" transform="translate(22.14 331.95) rotate(-35.04)"/></g><g class="c"><path class="l" d="M616.09,38.07a6.12,6.12,0,0,0-8.5-1.49L490.41,118.76a6.12,6.12,0,0,0-1.49,8.5l58.42,83.3a6.12,6.12,0,0,0,8.5,1.49L673,129.86a6.12,6.12,0,0,0,1.49-8.5Z"/></g><g class="aw"><rect class="ax" x="503.34" y="140.24" width="44.41" height="46.93" transform="translate(1.28 331.45) rotate(-35.04)"/></g><g class="ay"><rect class="az" x="526.99" y="191.98" width="12.37" height="11.69" transform="translate(-16.93 342.02) rotate(-35.04)"/></g><g class="ba"><rect class="bb" x="490.08" y="139" width="12.38" height="12.38" transform="translate(6.6 311.28) rotate(-35.04)"/></g><g class="bc"><rect class="bd" x="481.2" y="140.41" width="62.12" height="65.23" transform="translate(-6.48 325.51) rotate(-35.04)"/></g><g class="be"><rect class="bf" x="532.73" y="179.25" width="17.94" height="19.24" transform="translate(-10.25 345.29) rotate(-35.04)"/></g><g class="bg"><rect class="bh" x="496.66" y="130.87" width="19.82" height="19.08" transform="translate(11.21 316.33) rotate(-35.04)"/></g><g class="c"><path class="l" d="M601.18,306.23l0.32,0.58c2.66,4.77,4,10.13,4.94,15.49a37.69,37.69,0,0,1,5.88,15.92,35.28,35.28,0,0,1,.24,5.39,40.84,40.84,0,0,1,1.38,9.84,31,31,0,0,1-12.16,25.62,35,35,0,0,1-9.46,5.08,28.42,28.42,0,0,1-5.58,2.32,32.58,32.58,0,0,1-7.46,1.27c-11.93,7-26,13.87-36.11,18.59l-1.2-2.57c7.49-3.5,20.21-9.63,31.82-16.15a42.47,42.47,0,0,1-14.88-4.46c-18.9-9.53-30.52-31.14-27.61-51.36A37.33,37.33,0,0,1,542,310.1a33,33,0,0,1,18.33-8.8c14-2,29.84,3.48,40.44,14,0.56,0.56,1.11,1.13,1.63,1.71a37.06,37.06,0,0,0-3.38-8.85c-1.95-3.5-5.95-9.38-9.49-14.61-2-2.9-3.83-5.65-5.23-7.82l2.38-1.54c1.39,2.16,3.25,4.89,5.2,7.77,3.39,5,7.21,10.64,9.29,14.25m3.17,20.48c-0.19-1.11-.38-2.23-0.58-3.35a39.05,39.05,0,0,0-5-6c-10-9.92-24.92-15.11-38-13.22a31.29,31.29,0,0,0-9.47,2.92c16.5-7.52,37.91,1.53,50.4,16.28q1.41,1.67,2.68,3.4m5.38,17.22c-0.09-.33-0.18-0.67-0.28-1,0.06,0.92.12,1.83,0.16,2.75,0.06-.59.1-1.17,0.12-1.76M601.94,364c5.45-11.75,4.92-25.92-1.92-36.93A34.52,34.52,0,0,0,580.45,312a32.58,32.58,0,0,0-25.74,3.53A34,34,0,0,0,539,338.26a34.66,34.66,0,0,0,.11,13.27,40.88,40.88,0,0,0,10,14.91A37.61,37.61,0,0,0,577.4,376.6,35.45,35.45,0,0,0,601.94,364m1.32,10a28.56,28.56,0,0,0,7.87-20.54c0-.27,0-0.54,0-0.81a36.72,36.72,0,0,1-2.08,5.44,42.5,42.5,0,0,1-3.94,12.71,31.87,31.87,0,0,1-1.84,3.19m-67.07-36.29a36.85,36.85,0,0,1,17-24.67,35.64,35.64,0,0,1,18.33-5.16c-8.63-1.89-17.58-.82-25.12,5.48-8.17,6.83-10.09,15.83-10.26,22.18,0,0.72,0,1.45,0,2.17m55.4,43.61a27.79,27.79,0,0,0,11-11.78A35.51,35.51,0,0,0,604.1,366a40.86,40.86,0,0,1-3,5.21c-2.26,3.28-7.06,7.14-13.14,11.16a33.13,33.13,0,0,0,3.69-1.05m-10.3,1.89A104.32,104.32,0,0,0,594.56,374a38.53,38.53,0,0,1-16.95,5.42,40.31,40.31,0,0,1-29-9.66,44.46,44.46,0,0,0,32.74,13.49m-45-30.95a46.05,46.05,0,0,1-1.85-6,47.81,47.81,0,0,0,2.44,8.45q-0.33-1.22-.59-2.45"/><rect class="l" x="575.32" y="271.31" width="12.66" height="14.73" transform="translate(-54.02 387.79) rotate(-35.34)"/><rect class="g" x="568.03" y="263.14" width="12.66" height="10.49" transform="matrix(0.82, -0.58, 0.58, 0.82, -49.39, 381.76)"/><rect class="bi" x="570.92" y="267.99" width="2.83" height="3.66" transform="translate(-50.51 381.31) rotate(-35.39)"/><rect class="bi" x="574.96" y="265.13" width="2.83" height="3.65" transform="translate(-48.19 382.69) rotate(-35.35)"/><rect class="i" x="580.42" y="277.44" width="2.46" height="2.47" transform="translate(-53.89 388.54) rotate(-35.41)"/><rect class="l" x="534.68" y="395.51" width="10.96" height="22.06" transform="translate(-129.94 317.06) rotate(-29.36)"/><rect class="g" x="531.51" y="401.43" width="4.14" height="17.62" transform="translate(-132.66 314.65) rotate(-29.39)"/><rect class="i" x="538.92" y="405.31" width="2.46" height="2.46" transform="translate(-129.83 316.21) rotate(-29.29)"/></g><g class="bj"><rect class="bk" x="439.28" y="-35.66" width="171.39" height="156.06" transform="matrix(0.81, -0.58, 0.58, 0.81, 72.75, 312.35)"/></g><g class="c"><g class="bl"><g class="bm"><rect class="bn" x="441.27" y="-27.49" width="132.89" height="5.45" transform="translate(108.58 290) rotate(-35.47)"/></g></g></g><g class="bo"><rect class="bp" x="446.66" y="16.36" width="19.57" height="19.6" transform="translate(69.44 269.59) rotate(-35.45)"/></g><g class="bq"><rect class="br" x="104.5" y="411.02" width="195.5" height="188.98"/></g><g class="bs"><rect class="bt" x="300" y="411.02" width="195.5" height="188.98"/></g><g class="bu"><rect class="bv" x="291.51" y="411.01" width="16.97" height="188.99"/></g><g class="c"><path class="l" d="M476.28,673.4a10,10,0,0,0,10-10V429.48a10,10,0,0,0-10-10H310a10,10,0,0,0-10,10V663.43a10,10,0,0,0,10,10H476.28Z"/><path class="l" d="M123.72,673.4a10,10,0,0,1-10-10V429.48a10,10,0,0,1,10-10H290a10,10,0,0,1,10,10V663.43a10,10,0,0,1-10,10H123.72Z"/><path class="e" d="M306.39,420.2V672.71a9.94,9.94,0,0,1-6.38-9.27v-234a9.94,9.94,0,0,1,6.38-9.28"/><path class="m" d="M293.61,435.66a3.2,3.2,0,1,1-3.2-3.19,3.2,3.2,0,0,1,3.2,3.19"/><path class="m" d="M312.79,435.66a3.2,3.2,0,1,1-3.2-3.19,3.2,3.2,0,0,1,3.2,3.19"/></g><g class="bw"><rect class="bx" x="288.75" y="433.18" width="22.75" height="4.98"/></g><g class="c"><path class="m" d="M293.61,454.14a3.2,3.2,0,1,1-3.2-3.2,3.2,3.2,0,0,1,3.2,3.2"/><path class="m" d="M312.79,454.14a3.2,3.2,0,1,1-3.2-3.2,3.2,3.2,0,0,1,3.2,3.2"/></g><g class="by"><rect class="bz" x="288.75" y="451.65" width="22.75" height="4.98"/></g><g class="c"><path class="m" d="M293.61,472.6a3.2,3.2,0,1,1-3.2-3.19,3.2,3.2,0,0,1,3.2,3.19"/><path class="m" d="M312.79,472.6a3.2,3.2,0,1,1-3.2-3.19,3.2,3.2,0,0,1,3.2,3.19"/></g><g class="ca"><rect class="cb" x="288.75" y="470.11" width="22.75" height="4.98"/></g><g class="c"><path class="m" d="M293.61,491.06a3.2,3.2,0,1,1-3.2-3.2,3.2,3.2,0,0,1,3.2,3.2"/><path class="m" d="M312.79,491.06a3.2,3.2,0,1,1-3.2-3.2,3.21,3.21,0,0,1,3.2,3.2"/></g><g class="cc"><rect class="cd" x="288.75" y="488.58" width="22.75" height="4.97"/></g><g class="c"><path class="m" d="M293.61,509.52a3.2,3.2,0,1,1-3.2-3.19,3.2,3.2,0,0,1,3.2,3.19"/><path class="m" d="M312.79,509.52a3.2,3.2,0,1,1-3.2-3.19,3.2,3.2,0,0,1,3.2,3.19"/></g><g class="ce"><rect class="cf" x="288.75" y="507.04" width="22.75" height="4.98"/></g><g class="c"><path class="m" d="M293.61,528a3.2,3.2,0,1,1-3.2-3.2,3.2,3.2,0,0,1,3.2,3.2"/><path class="m" d="M312.79,528a3.2,3.2,0,1,1-3.2-3.2,3.2,3.2,0,0,1,3.2,3.2"/></g><g class="cg"><rect class="ch" x="288.75" y="525.51" width="22.75" height="4.97"/></g><g class="c"><path class="m" d="M293.61,546.45a3.2,3.2,0,1,1-3.2-3.2,3.2,3.2,0,0,1,3.2,3.2"/><path class="m" d="M312.79,546.45a3.2,3.2,0,1,1-3.2-3.2,3.2,3.2,0,0,1,3.2,3.2"/></g><g class="ci"><rect class="cj" x="288.75" y="543.96" width="22.75" height="4.99"/></g><g class="c"><path class="m" d="M293.61,564.92a3.2,3.2,0,1,1-3.2-3.2,3.2,3.2,0,0,1,3.2,3.2"/><path class="m" d="M312.79,564.92a3.2,3.2,0,1,1-3.2-3.2,3.2,3.2,0,0,1,3.2,3.2"/></g><g class="ck"><rect class="cl" x="288.75" y="562.43" width="22.75" height="4.98"/></g><g class="c"><path class="m" d="M293.61,583.38a3.2,3.2,0,1,1-3.2-3.19,3.19,3.19,0,0,1,3.2,3.19"/><path class="m" d="M312.79,583.38a3.2,3.2,0,1,1-3.2-3.19,3.2,3.2,0,0,1,3.2,3.19"/></g><g class="cm"><rect class="cn" x="288.75" y="580.89" width="22.75" height="4.99"/></g><g class="c"><path class="m" d="M293.61,601.85a3.2,3.2,0,1,1-3.2-3.2,3.2,3.2,0,0,1,3.2,3.2"/><path class="m" d="M312.79,601.85a3.2,3.2,0,1,1-3.2-3.2,3.2,3.2,0,0,1,3.2,3.2"/></g><g class="co"><rect class="cp" x="289.58" y="599.36" width="21.11" height="0.64"/></g><g class="cq"><rect class="cr" x="253.85" y="411.02" width="12.18" height="188.98"/></g></g></g></g></svg>